<svg xmlns="http://www.w3.org/2000/svg" xmlns:xlink="http://www.w3.org/1999/xlink" viewBox="0 0 226.82 389.91"><defs><style>.cls-1{stroke:#063;fill:url(#Unbenannter_Verlauf_257);}.cls-1,.cls-2{stroke-miterlimit:10;}.cls-2{fill:#683c11;stroke:#7d4e24;}</style><linearGradient id="Unbenannter_Verlauf_257" x1="0.5" y1="195.3" x2="226.32" y2="195.3" gradientUnits="userSpaceOnUse"><stop offset="0" stop-color="#1a2410"/><stop offset="1" stop-color="#106822"/></linearGradient></defs><g id="Ebene_2" data-name="Ebene 2"><g id="Ebene_1-2" data-name="Ebene 1"><path class="cls-1" d="M103.4,1.19l-.13,2.44c0,1.34-.16,5.39-.25,9l-.12,6.56-3.69-3.81c-4.26-4.44-4.83-4.61-4.81-1.56,0,1.24,1.75,4.14,3.84,6.47,3.36,3.72,3.83,4.9,4,9.84.16,3.74-.14,5.4-.84,5a2.68,2.68,0,0,1-1-2.09c0-.8-.45-1.44-1-1.44s-1-1.74-1-3.88c0-4.43-2.52-7.54-4.09-5.06a3.44,3.44,0,0,0-.47,2.63c.53,1.45-2.35.5-4.28-1.41a4.5,4.5,0,0,0-2.63-1.28c-2.7,0-2.26,2.82,1,6.59,3.92,4.49,4.13,5.39,1.53,6.07a1.71,1.71,0,0,0-1.37,2.4c.56,2.15,3.24,2.54,5.06.72,1.36-1.36,1.4-1.29,1.63,2.47C95,44,94.82,44,91.4,42.07s-4-1.87-4,.41c0,1.06,1.46,3.06,3.25,4.46,2.44,1.91,2.71,2.42,1.12,2-1.38-.36-2.32,0-2.71,1-.87,2.24-1.56,2.05-8.22-2.29-3.27-2.13-6.44-3.69-7-3.46-2.09.79-.76,4.61,2.15,6.21L78.9,52l-2.69.31c-1.46.18-2.9.94-3.19,1.69-.56,1.46,1.94,2.89,3.44,2,.5-.31.94-.09.94.5s.79,1.08,1.75,1.12c1.27.06,1.36.22.34.63s-.85,1,.91,2.31l2.34,1.75L78.56,63c-4.31.73-5.29,2.33-2.72,4.47a2.54,2.54,0,0,0,3.12.25c1.89-1.06,5.44-.47,5.44.9,0,.49.9.91,2,.91s2-.45,2-1,1-1,2.25-1l2.25,0-2.47,2c-1.92,1.6-2.16,2.22-1.09,2.88,1.5.93,4.09.25,5.37-1.41.47-.6.59.15.25,1.69-.5,2.29-.27,2.75,1.41,2.75,1.11,0,2-.56,2.09-1.25.06-.85.25-.8.63.16s.91.74,1.84-1l1.28-2.41,1.25,2.75c.69,1.51.93,3.07.53,3.47s-4,.89-8,1.09c-6.66.34-7.63.14-12-2.65s-7.59-3.25-7.59-1.1c0,.48,1.24,1.58,2.75,2.44l2.75,1.56L78.4,78a29.13,29.13,0,0,1-11.84-6.13,5.35,5.35,0,0,0-3.25-1.28c-2,0-2.57,1.93-1,3.53.6.6-.94,1.08-4.19,1.28a26.4,26.4,0,0,0-6,.81c-3.29,2,4.82,5.73,10.69,4.88l4-.56L64.09,82.1c-1.71,1-2.71,2.26-2.5,3.28.48,2.45,4.8,1.63,7.56-1.44,1.28-1.42,3-2.36,4-2.12,1.38.33,1.2.66-.91,1.53-3.4,1.41-4.44,3.05-2.37,3.84A1.59,1.59,0,0,1,71,89.1a1.49,1.49,0,0,0,1,1.84c.79.31,1.44.16,1.44-.31,0-.82,3.23-2.22,5.66-2.47a8.61,8.61,0,0,0,3.25-2c1.15-1,2.09-1.55,2.09-1.15,0,1-2.19,3.07-4.78,4.46-1.23.66-2.22,1.64-2.22,2.19,0,1.89,3.08,2.18,5,.47s1.86-1.62,1.34.38C83,95.39,85,95.1,87,92c1.27-1.94,1.9-2.24,2.54-1.25s1,1.06,1.68,0A3.06,3.06,0,0,1,94,89.63c4,.51,9.34-3.09,9.5-6.47.09-1.82.19-1.76.82.41s.1,3.06-2.85,5.72a58.54,58.54,0,0,1-9.75,6.47L85.52,99,80.71,96.6A42.68,42.68,0,0,0,74.65,94c-1.79-.34-1.54,1.59.5,4,1.57,1.85,1.57,1.9,0,.71-.94-.72-2.09-1.07-2.56-.78S70.5,97.8,69,97c-3.68-1.91-4.83-1.82-4.15.31.44,1.41,0,1.73-2.44,1.66a8.19,8.19,0,0,1-3.53-.66c-1.22-1.22-4.44.57-4.44,2.47,0,1.53.49,1.89,2.09,1.47,2-.53,2-.48.35,1.37-1.81,2-1.52,2.28,2.28,2,1.74-.14,2.1.2,1.59,1.53s-.19,1.65,1.88,1.25,2.42-.16,2,1.35c-.54,2,.1,2.26,2.59.93s5.55,2.84,3.53,4.72c-1.12,1.06-1.47,1-1.9-.12-.3-.78-2.07-1.43-4-1.5s-3.27.26-3,.75-.34.63-1.44.34c-2.53-.66-2.6.86-.13,2.41,1.32.82,1.72,1.92,1.38,3.72-.61,3.16-.76,3.19-4.44.09-1.63-1.38-3.62-2.5-4.4-2.5-1.68,0-1.77.49-.47,2.91,1,2,.39,2-7.19.56-2.47-.47-3.75-.34-3.75.37,0,1.3,5.19,4.16,7.56,4.16,1.37,0,1.45.25.44,1.47s-1,1.61.22,2.06a5.54,5.54,0,0,0,2.37.38c2.09-.4,3.39.17,3.16,1.34-.15.77.81,1.22,2.5,1.19,2.12,0,2.76.41,2.78,2,0,2,.11,2,2-.32,1.56-1.87,2-2,2-.68,0,.91.45,1.4,1,1.06s1.43.55,2,2a6,6,0,0,0,2.5,3.15,2.41,2.41,0,0,1,1.53,2A1.53,1.53,0,0,0,73,143.57a4.24,4.24,0,0,1,2.91,1.72c1.2,1.63,1.42,1.62,3.63-.25l2.34-2-1.78,2.09c-1.08,1.28-4.41,2.74-8.63,3.75C62.69,151,60.56,151,57,148.6c-3.33-2.2-5-1.79-4.06,1,.5,1.59.12,1.94-2.25,1.94a6.78,6.78,0,0,1-3.88-1c-.67-.67-1.64-.54-2.93.41-1.86,1.35-1.81,1.48,1.28,3.25,2.33,1.33,3.07,2.34,2.65,3.65s-.08,1.74.79,1.63c2.89-.4,4,.1,3.46,1.53-1,2.5,2.7,3.69,5.47,1.78,1.83-1.25,2.09-1.31,1.19-.19-1.69,2.11-.06,4.3,2.56,3.47,3.79-1.2,4.81.72,1.1,2.06-4.77,1.73-9.53,1.69-11.32-.09-2-2-5-2-4.28,0,.47,1.21-.23,1.38-3.9.87-5.38-.73-6.06.93-1.1,2.72,2.41.87,3.26,1.72,2.94,2.94-.53,2,2.63,3.18,5.06,1.81,1.33-.74,1.66-.45,1.66,1.53s.37,2.38,2.16,1.91,2-.27,1.46,1.19-.26,1.7,1.35,1.28c1.11-.29,2-.13,2,.37,0,1.75,2.11.88,4.78-2,3.21-3.42,5.11-4.18,7.47-3,2.74,1.4,2,2.54-1.25,2.06s-4,1-1.47,4.56c1.45,2.07,1.45,2.22-.41,2.22a5.75,5.75,0,0,0-3.5,1.5,5.16,5.16,0,0,1-3,1.5,2.67,2.67,0,0,0-2.09.94c-.32.51-2.33.9-4.47.87a13.35,13.35,0,0,0-5.19.75,9.9,9.9,0,0,1-4.53.6c-2.66-.18-3.26.17-3.53,2.06-.23,1.64-1,2.29-2.81,2.37a23.72,23.72,0,0,0-3.5.38,10.06,10.06,0,0,1-2.75.06c-1-.1-1.75.22-1.75.69,0,1.32,5.53,4.28,8,4.28,2.19,0,2.23.06.47,2s-1.75,2,.81,2c2,0,2.48.37,2,1.53s-.06,1.43,2.28.88a27.41,27.41,0,0,1,3.38-.66c3.12.06,3.84.4,3.37,1.62-1,2.73,1.55,2.65,3-.09s1.49-2.64,1.53-.53c0,1.24.4,2.28.81,2.34,6.11.9,7.11.6,8.34-2.37l1.25-3,.88,2.37.87,2.41,1.94-2.5c1.92-2.5,1.92-2.5,1.94-.25,0,3,1.81,2.86,2.59-.25.35-1.38,1.07-2.5,1.6-2.5s.62.48.25,1.09c-.48.78.29.91,2.56.41s3.15-.41,2.84.53c-.61,1.84-6.88,5-10,5-1.46,0-2.86.56-3.12,1.25S65.87,215,63,215c-2.54,0-4.62.27-4.62.68,0,1.93,3.47,4,6.22,3.72,1.63-.17,3,.08,3.12.6.27,1.66-5.59,2.6-19.84,3.15-16.06.63-22.5,1.33-22.5,2.41,0,.41-1.13.54-2.5.28s-2.5,0-2.5.59c0,1.4,3.27,3.16,5.91,3.16,1.13,0,2.09.45,2.09,1a1,1,0,0,1-1.06,1,7.57,7.57,0,0,0-3.25,2.09l-2.19,2.13,3.25-.44c2.15-.29,3.25,0,3.25.78s.8,1,2,.72,2,0,2,.59c0,1.62,2.54,1.38,4-.37a3.9,3.9,0,0,1,2.25-1.5c.57,0,.32.81-.59,1.81a7,7,0,0,0-1.66,2.5c0,1.06,3.81.8,4.5-.31,1-1.6,2.31-1.16,3,1,.8,2.53,1.94,2.51,5.56-.06l2.91-2.07-.63,3.07c-.75,3.76,1.07,4.07,5.13.87,2.67-2.1,2.74-2.1,1.69-.12-1.25,2.32-.65,3.42,1.43,2.62a3.32,3.32,0,0,1,2.91.69c1,.86,1.5.9,1.5.12,0-.61.67-1.12,1.5-1.12A1.46,1.46,0,0,1,67.4,246c0,1,.88,1.33,2.75,1.12C80.56,245.92,67.1,252,55,253.91c-7.91,1.27-8.7,1.22-11.31-.5a11.21,11.21,0,0,0-4-1.84c-2.07,0-1.41,2,1,3,1.65.71,1.05.79-2.25.28a45,45,0,0,0-7-.56A30.83,30.83,0,0,1,24,253c-2.7-.79-5.07-1.31-5.25-1.13-1,1,5.36,5.17,8.94,5.75l4.25.69-3.75.12c-2.61.09-3.75.58-3.75,1.63a1.85,1.85,0,0,0,1.75,1.66,24.36,24.36,0,0,1,2.75.37,19.4,19.4,0,0,0,2.44.34c1.06.09.92.49-.5,1.54-2.47,1.8-1.3,3.1,1.47,1.62,1.72-.92,2.09-.83,2.09.53s.71,1.55,3.25,1.19a31.12,31.12,0,0,0,5.25-1.19c2-.72,1.94-.71,0,.85s-1.53,1.95,1.72,1.62A1.46,1.46,0,0,1,46.4,270c0,2.14.81,2,3.19-.69l2-2.25L50,269.79a11.67,11.67,0,0,0-1.59,3.75c0,1.54,4.91.4,7.25-1.69,2-1.75,2-1.72,1.22.72-1.06,3.39-2.29,4.1-11.5,6.87-7.66,2.3-8.12,2.33-12.25.75-4.51-1.72-10.72-2.21-10.72-.84a3.93,3.93,0,0,0,1.19,2c.81.81-.53.69-4.1-.37-2.92-.87-6-1.33-6.84-1-1.31.5-1.19,1,.75,3.06l2.28,2.44-3.37-1c-4.35-1.25-9.64-1.25-10.41,0s5.89,4,9.84,4H14.9L12,290.91c-2.9,2.32-2.87,5.37,0,4.25,1-.37,1.41.24,1.41,1.94s.52,2.47,1.91,2.47a5.72,5.72,0,0,1,3.46,1.53c1.28,1.27,1.87,1.31,3.57.25,1.12-.7,2.06-1.61,2.06-2s.79,0,1.78,1c1.92,1.85,2.46,4.25,1,4.25-.49,0-.56.48-.19,1.09.48.77-.26.92-2.44.44-2-.44-3.12-.31-3.12.38s-1.95,1.09-4.5,1.09c-4.69,0-5.57.87-3,3,1,.83,3.12,1.05,6.25.66l4.75-.6-3.72,2c-2.58,1.37-3.54,2.45-3.12,3.53a1.52,1.52,0,0,0,2.21.88,16.82,16.82,0,0,1,3.13-.91c.82-.13.94-.05.25.19-2.53.87-1.23,2.47,1.5,1.84,2-.46,2.33-.35,1.28.35-2.64,1.75-.3,2.26,2.88.62,1.7-.88,3.09-1.17,3.09-.66a1.82,1.82,0,0,1-1.25,1.41c-.69.25-.9.82-.47,1.28s2.07.35,3.66-.25c2.36-.89,2.81-.83,2.37.31s0,1.2,1.31.72c1.56-.55,1.66-.42.57.75s-4.47,1.36-15.75,1.19c-8.73-.13-14.44.17-14.44.75s.7,1,1.56,1a5,5,0,0,1,3,1.41c1.2,1.2,1.18,1.48-.16,2a17.72,17.72,0,0,1-4.71.59c-3.68,0-6.2,1.32-5.32,2.75,1.09,1.76,6.06,2.09,10.16.66,5.47-1.91,5.77-1.8,2.94,1-3.53,3.52-3.27,5.65.53,4.56a22.69,22.69,0,0,0,4-1.5c.57-.35,1.07.19,1.15,1.19s.22,2.32.29,3a3.57,3.57,0,0,0,.78,1.87c.79.79,6.81-2.58,6.81-3.81,0-.47.41-.58.94-.25s.61,1.5,0,3.12a14.52,14.52,0,0,0-.94,3.53c0,1.33,4.73-2.1,9.47-6.84,3.54-3.54,4-2.93.75.91a3.79,3.79,0,0,0-.81,3.4c.57,1.5.9,1.42,3.18-.72l2.6-2.37-.35,2.5c-.31,2.29-1,2.6-8.34,3.81-5.16.86-8.54,1-9.53.38-2.51-1.55-8-2.47-8-1.35,0,.56.79,1.23,1.75,1.47s-.5.24-3.25,0c-4-.35-4.76-.2-3.75.81,1.91,1.93,1.48,2.65-1.25,2.13-3.23-.62-7.77.54-7,1.78a3.88,3.88,0,0,0,2.87,1c4.28,0,3.68,1.38-1.53,3.47-8.87,3.56-6.93,6.22,2.19,3,4.62-1.63,6.42-1.35,3,.47a3.74,3.74,0,0,0-2.06,2.68c0,1.21.61,1.42,2.66.91,2.36-.59,2.53-.49,1.37.91-2.69,3.24.16,3.25,4.63,0,2.08-1.52,2.16-1.51,1.59.72-.54,2.08-.43,2.18,1.09.93s1.61-1.17,1,.5-.36,1.6,1.82-.37c2.54-2.32,4.11-2.12,3.15.37-.76,2,1.64,1.73,5.44-.59,1.81-1.11,3.25-1.49,3.25-.88s1.05.86,2.75.47c1.86-.42,2.26-.33,1.25.28a34.66,34.66,0,0,1-7,2c-6.51,1.34-8.54,2.43-7.53,4.06.69,1.11,2,1,8-.63,1.53-.41,1.24.22-1.25,2.63a18.81,18.81,0,0,0-3.25,3.62c0,1,5.56-.24,8.75-1.93,3.5-1.87,4-1.3,1.72,1.78-2,2.68-1.84,3.87.53,3.25,1.3-.34,2,0,2,.9,0,1.87.91,1.77,3.25-.34,1.85-1.67,1.93-1.66,1.59.25-.53,3.05,5,2.13,8-1.31l2.31-2.69-.65,3.25c-.87,4.3,1.64,4.41,5.53.25a21.37,21.37,0,0,1,3.12-3c.2,0,.42,1.16.5,2.59.23,3.93,1.86,5,3.94,2.57,1.64-1.92,1.88-2,3.1-.38s1.34,1.54,1.9-.47c.37-1.3,1.16-2,2-1.65s1.6-.46,2-2.16.93-2.31,1.47-1.44a4.59,4.59,0,0,0,2.88,1.6c1.62.24,2.58-.67,4.28-4.16,2.19-4.51,4.5-6.25,3.31-2.5-.77,2.42-.19,2.48,3,.37a5.73,5.73,0,0,0,2.56-3.75c.1-1.7.23-1.78.6-.37.76,2.91,2.31.89,2.34-3.06,0-3,.21-3.36,1-1.94a4,4,0,0,0,3.1,1.75,2.47,2.47,0,0,1,1.14.17c.82.45.74,2,.26,7.58a35,35,0,0,1-3.12,12.59c-1,1.89-1.76,3.57-2.16,4.5h24.88c1.1-.88.6-2.43-.54-5.15-1.77-4.25-2.45-12.91-1.06-13.38.55-.18,1.77,1,2.75,2.66,1.82,3.08,4.07,4.22,3,1.53-1.18-3.08.68-1.39,2,1.84,1.08,2.59,1.95,3.36,3.75,3.22a6.51,6.51,0,0,1,3.79.88c1,.75,1.52.72,1.81-.13s1.06-.54,2.34.75c2.58,2.58,3.86,2.45,3.25-.31-.29-1.32-.14-1.82.35-1.19,1.15,1.48,4.34,2.56,4.34,1.47s5.52-.65,8.41.53c1.51.62,1.8.43,1.31-.84-.34-.89-.1-1.79.56-2,.91-.34.92-.77,0-1.78-2.27-2.41-1.33-2.72,2.41-.82,4.13,2.11,5.28,1.8,3.28-.84-1.07-1.41-1.09-1.53,0-.59a3,3,0,0,0,2.68.65c.76-.29,1.41-.13,1.41.38a7.17,7.17,0,0,0,1.37,2.81c1.2,1.64,1.64,1.71,3.07.53s1.84-1.05,3.25,1l1.62,2.31.91-2.4c.83-2.24,1-2.28,2.19-.66,1.58,2.14,2.29,2.18,4.25.22,1.21-1.22,1.28-1.83.31-3-.67-.81-.93-1.47-.56-1.47s.13-1-.5-2.25c-1-1.88-.61-1.77,2.21.78,6.23,5.63,6.64,5.84,8.41,4.06.88-.88,1.25-2.14.84-2.84s.1-.6,1.19.28c5.29,4.24,10.64,5.08,7,1.09-1.63-1.8-1.57-1.94,1-2.59l2.72-.69L205.81,371c-3.85-3.14-1.79-3.15,3.71,0,2.4,1.37,4.94,2.49,5.63,2.5,2,0,1.44-1.58-1-2.75-2-1-1.87-1.1,1.78-1.16a12.42,12.42,0,0,0,6-1.53c1.85-1.4,1.82-1.47-1-1.5-4.28-.05-19.52-2.82-22.69-4.12-3.88-1.6-4.62-4.05-.78-2.6,3.37,1.27,5.08.22,2.59-1.59-1.44-1.06-1-1.18,2.85-.88,4.87.39,5.91-.84,2.28-2.68-2-1-1.62-1.12,2.62-.91,5.73.28,7.34-1.6,2.41-2.81l-3.28-.82,3.25-.37c3.81-.46,4.14-1.48,1-3.09-1.84-1-1.06-1.08,4.25-.63,6,.5,6.32.42,4.53-1a7.22,7.22,0,0,0-3.69-1.53,3.09,3.09,0,0,1-2.4-1.09c-.42-.69.2-1,1.68-.91,4.18.35,6.88,0,6.88-.88,0-.48-3.17-1.18-7-1.56s-6.81-1.05-6.53-1.5,3.15-1.4,6.4-2.12c6.13-1.36,10-3.4,8.78-4.63-.62-.63-6.19.28-13.62,2.25-2.28.61-2.23.42.91-2.28,5.15-4.44,2.24-4.9-5.19-.81s-11.74,4.43-20,1.59c-9.38-3.22-24.59-10.95-25.72-13.06-1.4-2.62-.61-2.54,1.94.19,1.12,1.2,2.06,1.82,2.06,1.37s.67-.25,1.5.44c1.24,1,1.5.93,1.5-.56s.51-1.32,3.12,1.12l3.13,2.94-.59-3.22c-.6-3.17-.56-3.21,2.12-2.06a23.84,23.84,0,0,1,4.22,2.31c3.88,3,4.33,2.92,3.62-.59-.53-2.66-.42-3.12.54-2.16,1.74,1.74,5.84,1.54,5.84-.28s1.61-2,2.69-.16a14,14,0,0,0,3.56,3.1c2.27,1.46,2.75,1.51,2.75.31a5.84,5.84,0,0,0-2-3.25,6.12,6.12,0,0,1-2-2.84c0-.56.25-.72.59-.38s1.33-.08,2.19-.94c1.08-1.08,2.71-1.41,5.31-1.06s3.93.08,4.28-.84,1.31-1.13,3.82-.41c8.82,2.53,10.44-.35,1.93-3.44-5.75-2.08-6.47-3.14-1.09-1.59,6.84,2,15.74.48,12-2-.83-.54-3.53-1.05-6-1.13-3.82-.11-4.07-.21-1.59-.75,1.6-.34,3.11-1.26,3.37-2,.39-1.17-1.19-1.3-9.69-.72-10,.69-10.16.69-8.93-1.28,1.83-2.93.57-3.44-4.41-1.75a21.45,21.45,0,0,1-8.84,1c-5.79-.7-24.91-7.11-27.16-9.09s-2.22-3.5.25-2.72c1.12.35,2,.17,2-.41,0-1.08,1.5-.77,6.5,1.41a25,25,0,0,0,8.06,1.34c2.79,0,5.49.12,6,.22,2.34.45,2.59-.23.85-2.31-1.26-1.49-.86-1.33,1.15.5,3.46,3.13,4.44,3.39,4.44,1.22,0-1.32.32-1.31,2.56.15,1.51,1,2.86,1.3,3.25.75a12.27,12.27,0,0,1,3.66-2.25c2.87-1.26,2.91-1.36,1.06-2.71-2.26-1.66-1.69-1.8,1.88-.44,1.93.73,2.59.66,2.59-.31,0-.8,2.54-1.83,6.5-2.66,3.57-.75,6.5-1.77,6.5-2.25s.42-.59,1-.25a3.25,3.25,0,0,0,2.75-.38c1.52-.85,1.39-1.08-1-1.68-2.09-.53-2.62-1.14-2.19-2.5s0-1.88-1.72-2.13-.47-.94,3.94-2.34c6.83-2.18,8.51-4.14,2.53-3-5.53,1.08-19.25,1.33-19.25.34a.93.93,0,0,1,1-.84,1,1,0,0,0,1-1c0-.55-2.14-1-4.75-.91-6.56.14-17.05-2.06-17.69-3.72-.36-.93.29-1.37,2-1.37,1.36,0,2.47-.44,2.47-1s.67-.72,1.5-.41,1.5.05,1.5-.59.75-.62,2.22.41a9.59,9.59,0,0,0,4.75,1.53l2.53,0-2.31-1.94-2.28-1.91,4.78-.31,4.81-.34-3.5-1.69-3.5-1.69,3.06,0a7.71,7.71,0,0,0,5.44-2.53c1.29-1.38,2.81-2.5,3.41-2.5s1.68-.92,2.37-2c1.83-2.93-.5-3.52-6.25-1.56-6.2,2.1-7.48,2-6.84-.41s.46-2.43-5.82-.38c-4.77,1.57-5.27,1.52-12.9-.65-10.29-2.93-12.93-5.68-5-5.22a2.62,2.62,0,0,0,2.19-1c.49-.8,1.32-.61,2.71.65,1.57,1.42,2.88,1.67,6.07,1.13,4.54-.77,4.82-1.15,2.31-3.22-1.8-1.48-1.14-1.44,3.16.28,1.53.62,1.79.43,1.28-.9s-.1-1.66,1.43-1.66,1.91-.48,1.54-1.44a1.48,1.48,0,0,1,.62-1.94c.84-.35.72-.92-.44-1.87-1.52-1.24-1.45-1.53.75-3.66,3.61-3.46,2.94-4.19-2.34-2.5-13.12,4.21-17.94,4.46-21.16,1-1.82-1.94-1.93-2.47-.72-2.93a8.13,8.13,0,0,1,4.5.56c4.28,1.61,5.19,0,1.63-2.88-2.5-2-2.67-2.39-1-2.25,3.5.31,5.5-.09,5.5-1.12,0-.55-.79-1-1.75-1.06-1.42,0-1.37-.25.34-.94a5.31,5.31,0,0,0,2.72-2.44c.54-1.39.34-1.45-1.59-.37-3.49,2-24.33,1.65-28.72-.41-3.07-1.44-3.23-1.65-1.16-1.72,1.9-.06,2.28-.48,1.85-2.15-.49-1.88-.39-1.95,1.12-.66,2.19,1.88,5.19,2.93,5.19,1.81,0-.48.9-.66,2-.37s2,0,2-.6,1.12-1.09,2.5-1.09c3.32,0,3.16-1-.69-4.16L164,194.79l5.35.84c5.51.87,7.51.51,6.47-1.19s1.66-3.87,4.68-3.87c3.41,0,3.88-1.65.66-2.34-1.28-.28-.74-.45,1.25-.38,2.27.09,3.41-.27,3.25-1.06a.92.92,0,0,1,.84-1.22c.76,0,.72-.51-.15-1.56a3.87,3.87,0,0,0-3.88-1.07c-1.41.29-2,.3-1.31,0,2.31-1,1.29-2.6-1.25-2-2,.5-2.34.31-1.81-1.07.47-1.23.26-1.45-.72-.84a10.83,10.83,0,0,1-3.91,1,33.33,33.33,0,0,0-5.06.91l-2.5.68,2.75-2.34c3.18-2.73,3.64-4.32.81-2.81s-4.83,1.36-3.28-.19c2.25-2.24,1.36-4-.94-1.87a24.63,24.63,0,0,1-5.25,3.46c-6.11,2.9-22.59-1-22.59-5.4a4.59,4.59,0,0,0-1.22-2.78c-.8-.81-.82-1.19-.09-1.19a2.18,2.18,0,0,1,1.65,1.5c.37,1,1.8,1.45,3.88,1.37a19.48,19.48,0,0,1,5.53.63c1.85.6,2.25.33,2.25-1.38v-2.06l3.41,2c2.44,1.45,3.61,1.71,4.12.88a1.63,1.63,0,0,0-.66-2.1c-1.18-.8,4.65-.69,8.63.16a9,9,0,0,0,3.28-.53c2.11-.68,2.15-.89.69-2.5s-1.39-1.79,1-2.38c2.89-.72,3.46-2.59.81-2.65-1.1,0-.64-.54,1.25-1.41a33,33,0,0,0,5.94-3.81l2.9-2.44-3.65-.69c-2-.38-3.69-1.12-3.69-1.65s-1.16-.71-2.75-.32c-2.4.6-2.61.51-1.5-.84,1.93-2.34-1-3.06-3.91-1-1.38,1-4.39,1.71-7.28,1.75-3.94.06-4.5-.14-2.78-.9,1.95-.87,2.14-1.69,1.28-5.5,0-.19-1.58.6-3.44,1.75a15.37,15.37,0,0,1-6.75,2.06c-6.23,0-17-4.18-23.78-9.22-2.62-1.94-2.07-2.35,1-.72,1.58.84,2,.7,2-.75,0-1.7.08-1.72,1.06,0,.57,1,1.44,1.53,1.94,1.22s2,.18,3.44,1.09c2.5,1.64,2.51,1.62,2.53-1.22,0-1.57.35-2.35.75-1.75.87,1.31,4.65,3.41,6.16,3.41.58,0,1.13-1,1.18-2.25.1-2.14.12-2.12.78.25.39,1.37.91,2.29,1.16,2.06s1.39.08,2.53.69c1.69.9,2.33.76,3.44-.78.75-1,1.75-1.64,2.22-1.35s.54-.63.19-2.06c-.63-2.49-.54-2.56,2.09-1.56,3.25,1.23,4.26.62,2.5-1.5-1.05-1.27-1-1.5.53-1.5,1.68,0,1.66-.11,0-1.91-.94-1-1.29-2.15-.78-2.47s1.72.31,2.69,1.38c1.52,1.68,2.5,1.83,6.37,1.06.21,0-.1-.67-.72-1.4-1.3-1.57-.53-2.66,1.91-2.66a8.35,8.35,0,0,0,4.09-2l2.38-2-3-.19a42.44,42.44,0,0,0-5.44,0c-2.11.19-2.27,0-1.12-1.38,2.18-2.63.64-2.63-3.22,0-4.19,2.85-6.72,3.34-4.72.94,1.06-1.28,1-1.44-.38-.91-1.9.73-2.18-.62-.46-2.34,2.56-2.56-.16-2.18-3.32.47-6.21,5.21-7,5.37-14,3.25-7.36-2.23-12.29-5-13.78-7.78-.91-1.7-.7-1.94,1.47-1.82,1.37.08,2.7.84,3,1.69a3,3,0,0,0,2.59,1.69c1.69.12,2-.27,1.53-2-.5-1.92-.29-1.85,1.79.56,1.28,1.49,3.32,2.72,4.56,2.72,2,0,2.19-.38,1.69-2.91-.76-3.78,1.59-4.83,4-1.78,1.66,2.08,7.29,3.55,7.31,1.91,0-.41-1.46-1.94-3.25-3.44-2.49-2.08-2.83-2.73-1.47-2.75A2.57,2.57,0,0,1,150,110c.32.82,1,1.28,1.41,1a1.08,1.08,0,0,1,1.44.5c.34.56,1.83,1,3.28,1,2.52,0,2.55-.07.69-1.44s-1.84-1.46.87-2.5a17.73,17.73,0,0,1,4-1.09c.65,0,.06-.68-1.31-1.44-2.44-1.35-2.41-1.38,1.37-1,2.46.23,4.41-.16,5.32-1.06,2.2-2.2.64-3.44-4.32-3.44-2.76,0-4.25-.41-3.87-1,1.26-2-2.43-2.08-6.59-.06-5.1,2.46-6.05,2.58-5.29.59.37-.94,0-1.5-1-1.5s-1.36-.56-1-1.5c.68-1.76.33-1.82-3-.56-2.15.81-2.38.68-1.94-1,.52-2-1.16-2.72-2.25-.94a17.91,17.91,0,0,1-4.72,3.12c-3.63,1.85-4.56,2-8.13.88-3.32-1-3.74-1.37-2.34-2.16a3.36,3.36,0,0,0,1.72-2.47c0-1.18-1-1.46-4.53-1.25s-5-.21-6.44-1.68c-2.19-2.22-4.32-10.15-2.94-11,.86-.53,1.33,1.6,1,4.34-.09.7.79,2.62,2,4.28,1.71,2.41,2.44,2.77,3.56,1.85a5.91,5.91,0,0,0,1.5-3.79c.09-2.07.24-2.2.63-.62.76,3.11,3.35,5.5,6,5.5,2,0,2.23-.28,1.34-1.94-1.31-2.44-1.31-3.35,0-2.56.55.34,1,.14,1-.44a1,1,0,0,1,1-1.06c.55,0,1,.63,1,1.41,0,1.79,5.84,6.78,7.06,6a3.28,3.28,0,0,0,.94-2.5c0-1.07.45-1.94,1-1.94s.79-.56.44-1.25.19-.23,1.22,1,2.22,2,2.62,1.56a6.55,6.55,0,0,1,2.94-1.06c2.71-.38,6.75-2.37,6.75-3.34,0-.39-1.34-1.27-3-1.94s-2.87-1.75-2.75-2.38-1.15-1.19-2.84-1.25c-3.5-.11-8.59-2.49-6.69-3.12A2.05,2.05,0,0,0,138.4,75c0-1.59-5-2-6.56-.54s-5.44,2.34-5.44,1.29c0-.53,1.14-1.24,2.56-1.6,2.13-.53,2.37-.92,1.38-2.12s-.84-1.45.68-1.47c2.23,0,6-2.7,5.1-3.6-.35-.34-2.69-.84-5.19-1.12-5-.57-5-.55-3.5-3.31,1-1.8,1.2-1.82,3.41-.38s2.41,1.41,3-.53c.36-1.14,1.08-1.82,1.59-1.5s.94.11.94-.47.9-1.06,2-1.06,2-.64,2-1.41c0-1.53-2.11-2.59-5.09-2.59-2.27,0-2.58-1.84-.44-2.66.82-.31,1.28-.9,1-1.31s.66-1.33,2-2.06c3.37-1.81,2.54-3.47-1.75-3.47h-3.53l2.53-3.31c2-2.59,2.24-3.56,1.28-4.5s-1.92-.43-4.5,2.37c-3.06,3.32-3.37,3.45-4.44,1.75-.63-1-1.59-1.81-2.12-1.81-1.19,0-4.35,5.59-5,8.94-.51,2.47-9.71,10.35-11.1,9.5-.39-.25-.58-2.92-.46-5.94s-.18-5.5-.66-5.5-.73-1.66-.56-3.69c.26-3.07.76-3.82,3.09-4.44s2.72-.49,2.22,1.1c-.91,2.87,1.53,3.6,3.47,1,1-1.36,2-1.87,2.37-1.25.68,1.1,4.66.52,4.66-.69,0-.93-5-5.58-5.84-5.47a9.26,9.26,0,0,1-2.41-.37c-2.82-.74-1-2.15,2-1.53,5,1,9.53.83,10-.44.23-.69-.23-1.25-1-1.25a4.18,4.18,0,0,1-2.69-1.5c-.68-.82-1.64-1.24-2.13-.94s-.87.2-.87-.25,1.35-1.71,3-2.81c3-2,3.86-3.5,2-3.5s-8.37,3-9.25,4.28c-.52.74-.62.36-.25-1s.17-2.43-.35-2.75c-1.08-.67-5.12,5.76-5.12,8.16,0,.88-.3,1.32-.66,1s-1.28.1-2,1.06c-1.19,1.51-1.29,1.1-.84-3.16.41-3.95,1.35-5.88,5-10.15,2.48-2.9,4.53-5.92,4.53-6.72,0-2.41-5-.83-6.06,1.9-1.65,4.35-3.47,2.84-3.1-2.56.28-3.94-.08-5.43-1.75-7.22L103.4,1.19Zm-6.78,35.1c.46,0,1.54.89,2.78,2.28,2.06,2.3,3,4.38,3,6.66,0,1.82-.19,3.34-.41,3.34-.53,0-1.82-3.1-2.28-5.47a8.75,8.75,0,0,0-1.84-3.56,5.72,5.72,0,0,1-1.47-3c0-.19.07-.26.22-.25ZM94.18,51c1.9.14,6.52,3.32,7.25,5.25,1.3,3.42.56,4.06-1.69,1.43-1-1.15-2.34-2.09-3-2.09-1.16,0-3.89-3.87-3.15-4.47A.84.84,0,0,1,94.18,51Zm27.31,8.15a3.59,3.59,0,0,1,.85.13c1.65.43,1.26,1-2.6,4-2.5,1.9-5.42,3.54-6.47,3.62s-1.87.47-1.87.91-.51.81-1.09.81-.93-1-.75-2.25c.27-1.95.84-2.22,4.09-1.94,2.89.25,3.75,0,3.75-1.25a1.53,1.53,0,0,1,1.5-1.56,1.46,1.46,0,0,0,1.5-1.41c0-.67.37-1,1.09-1ZM109.9,73.44l2.34,1.16a8.13,8.13,0,0,0,4.75.53c1.37-.34,2.41-.17,2.41.41a1,1,0,0,1-.94,1,8.27,8.27,0,0,0-2.34.53c-.78.3-2.49-.41-3.81-1.56Zm11,2.47a2.88,2.88,0,0,1,1,.66c1.12.93,1.5.94,1.5.06,0-.65.49-.86,1.12-.47.8.5.59,1.13-.68,2.07-2.58,1.88-3.44,1.67-3.44-.79C120.4,76.34,120.49,75.86,120.87,75.91Zm15.06,3.66c.86,0,1.31.45,1,1-.8,1.29-2.5,1.29-2.5,0C134.4,80,135.07,79.57,135.93,79.57Zm-23.53,16c.55,0,1,2.25,1,5,0,5.07-.15,5.51-1.34,4.31s-.76-9.31.34-9.31Zm-7.63,13.34c.36-.06.63.16.63.6a1,1,0,0,1-1,1.06c-1.28,0-1.28-.71,0-1.5A1,1,0,0,1,104.77,108.91Zm8.07,2.13s.15.08.22.25a5.81,5.81,0,0,1,0,3c-.26,1-.48.43-.5-1.22C112.57,111.83,112.66,111.05,112.84,111Zm-12.44.53c.55,0,1,.19,1,.44s-.45.72-1,1.06-1,.14-1-.44A1,1,0,0,1,100.4,111.57Zm-5,2c.55,0,1,.19,1,.44s-.45.72-1,1.06-1,.14-1-.44A1,1,0,0,1,95.4,113.57Zm-20.81,0a3.42,3.42,0,0,1,2.18,1.34c2,2.56,5.39,2.9,7.25.72,1.65-1.92,4-2,2.82,0-.32.51.11.94.93.94a2.74,2.74,0,0,0,2.13-1c.81-1.31,2.5-1.31,2.5,0,0,.56-1.24,1.51-2.75,2.09a41.74,41.74,0,0,1-8.44,1.57c-5,.45-5.8.27-6.75-1.5a8.88,8.88,0,0,1-1.06-3.1,1,1,0,0,1,1.19-1Zm91.75,53a1,1,0,0,1,1.06,1c0,1.28-.71,1.28-1.5,0-.34-.55-.15-1,.44-1Zm-83.6,12c.62,0-.57.9-2.62,2-3.63,2-5.72,2.49-5.72,1.5C74.4,181.45,81.27,178.57,82.74,178.57Zm86.35,42.72a8.66,8.66,0,0,1,2.87.37c1.37.54.7.77-2.31.82-2.34,0-4.25-.11-4.25-.32C165.4,221.63,167.25,221.3,169.09,221.29Zm22.37,5.4a3,3,0,0,1,1.13.19c.79.32.54.55-.63.6s-1.64-.2-1.31-.54a1.3,1.3,0,0,1,.81-.25Zm.25,24.91h.19a6.08,6.08,0,0,1,2.5,1c.82.53,1,1,.5,1a6,6,0,0,1-2.5-1C191.68,252.1,191.4,251.69,191.71,251.6ZM17.52,292c.47-.07.61.13.35.56a2.14,2.14,0,0,1-1.54,1c-1.43,0-1.13-.74.6-1.41a2.83,2.83,0,0,1,.59-.15Zm16.16,8.59L36,303l2.25,2.44,1.72-2.63c1.56-2.39,1.78-2.43,2.69-.81.74,1.33,1.2,1.44,1.78.5s1-.64,1.43.87c.69,2.16,2.57,3,2.57,1.16,0-.55,1.23-1,2.75-1H53.9l-3,1.59a12.83,12.83,0,0,1-7.25,1.1c-2.33-.26-4-.05-3.69.43.79,1.28-.7,1.05-3.78-.56-1.57-.82-2.81-1-3-.44s-1.15.66-2.13.29c-1.66-.64-1.61-.85.44-3l2.19-2.34Zm23.25,1.09a1.87,1.87,0,0,1,.59.07c.75.25.29.71-1.06,1.06-1.66.43-2.06.3-1.31-.44A2.71,2.71,0,0,1,56.93,301.69ZM46.77,342.91c.36-.06.63.16.63.6a1,1,0,0,1-1,1.06c-1.28,0-1.28-.71,0-1.5A.91.91,0,0,1,46.77,342.91Z"/><path class="cls-2" d="M123,384.26c-1.54-3.7-2.26-10.74-1.5-12.81h0l-17.25-5.56a40.48,40.48,0,0,1-.31,6.43,35,35,0,0,1-3.12,12.59c-1,1.89-1.76,3.57-2.16,4.5h24.88C124.66,388.53,124.16,387,123,384.26Z"/></g></g></svg>