<svg xmlns="http://www.w3.org/2000/svg" viewBox="0 0 212.72 251"><defs><style>.cls-1{fill:#520;fill-rule:evenodd;}</style></defs><g id="Ebene_2" data-name="Ebene 2"><g id="Ebene_1-2" data-name="Ebene 1"><path class="cls-1" d="M124.91,0q-.51,4.17-1,8.34-.82,6.93-1.61,13.88a47.77,47.77,0,0,0-4-9.18A43,43,0,0,0,115.59,9l-2.68-3-1.59-1.75-.41-.46-.1-.12,4,5.84A45.31,45.31,0,0,1,120.18,26c0,.24,0,.48.08.73,0-.07-.09-.13-.13-.19a7.11,7.11,0,0,0-1.94-1.85,14.27,14.27,0,0,0-2.84-1.31,1.94,1.94,0,0,0-1.26-.06,2.12,2.12,0,0,0-.94.7,4.48,4.48,0,0,0-.62,1,9.34,9.34,0,0,0-.5,1.55c-.11.86-.21,1.74-.32,2.6l-.15,1.13c0,.06,0,.13,0,.19l.72-3.88a6.1,6.1,0,0,1,1.17-2.38,1.68,1.68,0,0,1,.8-.52,1.41,1.41,0,0,1,.94.1,13,13,0,0,1,2.64,1.39A6.15,6.15,0,0,1,119.48,27a9.19,9.19,0,0,1,1,2,.84.84,0,0,0,0,.12c.17,2.47.2,5,.15,7.47,0,.35,0,.71,0,1.06-.46,4.74-.9,9.49-1.28,14.27-.67-1.41-1.36-2.79-2.07-4.16-2.4-4.6-5.05-9-7.82-13.33Q108,32.17,106.52,30c0-.07,0-.14,0-.21s0-.2-.08-.3c-.29-1-.62-2-1-2.92l-.12-.38c-.24-.68-.48-1.37-.69-2.06a.65.65,0,0,1,0-.13c-.24-.77-.46-1.54-.64-2.32a7.73,7.73,0,0,1-.13-3.41,5.58,5.58,0,0,1,1.87-2.92,2.35,2.35,0,0,1,1.12-.54,3.5,3.5,0,0,1,1.33,0,5.57,5.57,0,0,1,.9.2,10.84,10.84,0,0,1,2,.89l2,1.39,1,.71.27.19-3.16-2.47a9.1,9.1,0,0,0-2.92-1.27,3.81,3.81,0,0,0-1.47-.06,2.57,2.57,0,0,0-.4.08,2.72,2.72,0,0,0,.11-.25,3.55,3.55,0,0,0,.16-1.33c0-.2,0-.4-.06-.59a8.75,8.75,0,0,0-.75-2.23,16.23,16.23,0,0,0-1.08-2l-.25-.38c-.14-.22-.29-.43-.44-.64L104,7c0-.06-.09-.13-.14-.18A1.22,1.22,0,0,1,104,7c.16.24.32.49.47.74a17.22,17.22,0,0,1,1.2,2.39,7.52,7.52,0,0,1,.65,2.75,3.2,3.2,0,0,1-.2,1.17,2.23,2.23,0,0,1-.6.84l-.09,0a6.21,6.21,0,0,0-2.19,3.16,8.35,8.35,0,0,0,0,3.72c.09.54.22,1.08.35,1.62.29,1.22.65,2.4,1,3.59q-1.48-2.14-3-4.24c-.82-1.11-1.64-2.23-2.47-3.32s-1.83-2.4-2.76-3.58l-.66-.84-.79-1-.17-.22-.21-.25,0,0h0l.21.34.79,1.29c1,1.6,1.9,3.2,2.82,4.82q4.5,7.85,8.45,16l.78,1.63c-.37-.3-.74-.6-1.12-.88s-.59-.44-.9-.65a37.88,37.88,0,0,0-10.07-4.75,17.12,17.12,0,0,1-8.46-5.67,18.2,18.2,0,0,1-3-6.08c-.17-.58-.31-1.16-.43-1.76A28,28,0,0,1,83,11a.56.56,0,0,0,0-.13c0-.74.11-1.48.21-2.21h0c0-.2.06-.4.09-.6V8l0-.14,0,.16c0,.2-.08.39-.12.6-.14.72-.24,1.46-.32,2.19a28,28,0,0,0,.11,7.09,19.48,19.48,0,0,0,3.15,8.33,16.79,16.79,0,0,0,3.53,3.66c-2.24-.68-4.49-1.34-6.76-1.92l-1.24-.3c-.31-.07-.61-.16-.9-.21a3.53,3.53,0,0,0-.54-.08h-.08l0,0a7.36,7.36,0,0,1,1.45.37c3.36,1,6.65,2.19,9.94,3.42a20.15,20.15,0,0,0,3.32,1.57,40.91,40.91,0,0,1,5.44,2.45,29.87,29.87,0,0,1,3.94,2.51,28.59,28.59,0,0,1,6,6.13l.09.12c.07.16.15.32.21.48.5,1.12,1,2.24,1.43,3.37a4.91,4.91,0,0,0-.55,0,5.58,5.58,0,0,0-2,.47,18.77,18.77,0,0,0-4.72,3.27c-.35.29-.68.6-1,.92a5.65,5.65,0,0,1-1.46.66,3.68,3.68,0,0,1-1.19.12,4.06,4.06,0,0,1-.76-.14,3.81,3.81,0,0,1-1.13-.59l-.08-.07c-.11-.09-.21-.19-.31-.29a2.81,2.81,0,0,0,.29.31,3.5,3.5,0,0,0,1.2.76,3.75,3.75,0,0,0,2,.14,4.75,4.75,0,0,0,.76-.22,34.86,34.86,0,0,0-3.34,4.42c-.23.4-.48.81-.72,1.21l-1,1.73c-.08.15-.17.29-.26.44l-.06.12,2.28-3.36a27.32,27.32,0,0,1,5.23-5.59,18.39,18.39,0,0,1,4.66-2.84,4.3,4.3,0,0,1,1.57-.29,2.7,2.7,0,0,1,1.15.31q1.26,3.1,2.34,6.27a73.72,73.72,0,0,1,2.58,9.21,41.16,41.16,0,0,1,.71,4.87c0,.94-.07,1.86-.09,2.8a51.21,51.21,0,0,1-2.63,13.66c-.17.51-.33,1-.51,1.53a36.31,36.31,0,0,0-3-7.38c-.46-.87-1-1.73-1.47-2.57a27.06,27.06,0,0,0-4.12-5.23,10.23,10.23,0,0,0-2.89-2.09,4.45,4.45,0,0,0-1.35-.38,2.62,2.62,0,0,0-1.24.17l-.46.19c-1.17.48-2.35,1-3.56,1.37l-.76.25-.22.07a1.07,1.07,0,0,1-.32,0h0a2.06,2.06,0,0,0,.59-.06c1.69-.3,3.34-.79,5-1.23a1.83,1.83,0,0,1,.9,0,3.37,3.37,0,0,1,1,.43,9.47,9.47,0,0,1,2.33,2.16,22.72,22.72,0,0,1,2.12,3.08,38.52,38.52,0,0,1,2.35,4.78c.21.49.4,1,.59,1.47a26.79,26.79,0,0,0-4.2-1.54l-3.14-1.36c-.85-.38-1.69-.77-2.52-1.16-1.25-.59-2.47-1.2-3.68-1.86a28.56,28.56,0,0,1-3-1.86,7.38,7.38,0,0,1-1.85-1.76,2.05,2.05,0,0,1-.25-.46,1.61,1.61,0,0,1-.1-.36,1.4,1.4,0,0,1,0-.5.9.9,0,0,1,.08-.21,1.29,1.29,0,0,0-.16.72,2.15,2.15,0,0,0,.3.87,7.77,7.77,0,0,0,1.75,2,29.55,29.55,0,0,0,2.89,2.1c1.17.75,2.37,1.46,3.58,2.13l.6.34c.43.24.87.46,1.31.68l-.81-.06a21.23,21.23,0,0,0-2.52,0,12.35,12.35,0,0,0-6.1,1.94,8.29,8.29,0,0,0-1.4,1.24,9.8,9.8,0,0,0-.68.88,8.26,8.26,0,0,0-.88,1.82c-.08.27-.16.54-.22.82a1.6,1.6,0,0,0,0,.21,8.23,8.23,0,0,1,1.34-2.72,7.46,7.46,0,0,1,2.13-1.87,11.65,11.65,0,0,1,5.9-1.44h.32a22.2,22.2,0,0,1,6.61,1.08l.52.16,1.35.65c1,.46,1.92.93,2.89,1.38l.68.28a28.8,28.8,0,0,1,1.24,5.55,13.79,13.79,0,0,1,0,3.69,4.74,4.74,0,0,1-.88,2.25,7.39,7.39,0,0,0-1.16,2.38,23.23,23.23,0,0,0-.75,3.1c-.08.5-.15,1-.22,1.5s-.23.74-.34,1.11c0,.16-.09.32-.13.48l-.33,1.2s0,.11,0,.16c-.13.48-.24,1-.35,1.45l0,.13c-.16.75-.3,1.51-.43,2.27,0,.31-.11.62-.15.94l0,.13c0,.27-.07.54-.11.81,0,0,0,0,0,.08s0,.14,0,.21l-.09.69c0,.31-.06.63-.08.94s0,.76,0,1.14v.09c0,.05,0,.09,0,.14s0,.33,0,.49c.59,3.72-2.48-2.34-3.24-3.27A74.89,74.89,0,0,0,97.8,106c-4.25-4-8.65-7.67-12.83-11.31l-.83-.74c-4.3-3.81-8.41-7.58-11.61-11.92a30.87,30.87,0,0,1-3.4-5.67c0-.06,0-.12,0-.19a10,10,0,0,1,2.14-4.49c.12-.14.23-.29.36-.43a18.53,18.53,0,0,1,4.52-3.6l.15-.07a6.48,6.48,0,0,1,4.39.27,5.84,5.84,0,0,1,.8.48,6.23,6.23,0,0,1,1,.93,8.91,8.91,0,0,1,1.26,1.93,15.08,15.08,0,0,1,1.13,3.44l.12.66c.07.44.12.87.16,1.31,0,.05,0,.09,0,.13l0,.39v.14h0v-.11c0-.14,0-.28,0-.42,0-.48,0-1-.09-1.45a15.47,15.47,0,0,0-1-4.25,9.74,9.74,0,0,0-1.21-2.12,6,6,0,0,0-4.55-2.42c.84-.4,1.69-.75,2.57-1.07a8.7,8.7,0,0,0,1.39-.63,14.57,14.57,0,0,1,5.22-.43c.27,0,.55.06.82.11a14.43,14.43,0,0,1,4.33,1.48,16.58,16.58,0,0,1,2.48,1.59c.29.23.57.45.84.7s.47.43.7.66l.19.19.18.19L96.92,69a11.79,11.79,0,0,0-.83-.9,16.36,16.36,0,0,0-3.22-2.52,14.32,14.32,0,0,0-8.75-2.1l.24-.22a13.17,13.17,0,0,0,2.41-3.07,22,22,0,0,0,2.35-6.48c.07-.33.13-.66.19-1a40.74,40.74,0,0,0,.63-6.7V46c0-.7,0-1.4,0-2.1,0-.18,0-.36,0-.54s0-.09,0-.14c0,1-.07,1.91-.11,2.87a41.5,41.5,0,0,1-1,6.58,22.58,22.58,0,0,1-2.85,7.06,12.14,12.14,0,0,1-2.36,2.68A8.94,8.94,0,0,1,80.48,64a30.29,30.29,0,0,0-5.13,2.08c-.42.21-.83.43-1.23.67s-.78.48-1.16.74a17.07,17.07,0,0,0-2.45,1.08,8.56,8.56,0,0,0-3,2.61,18.26,18.26,0,0,1-.25-2.07c0-.71-.06-1.41-.07-2.12a53.51,53.51,0,0,1,1.35-12.29,70.84,70.84,0,0,1,4-12.36c.33-.63.67-1.26,1-1.9q1.95-3.65,3.9-7.32c.35-.66.71-1.31,1.06-2,.09-.17.18-.35.28-.52a.91.91,0,0,1,.07-.14Q75,36,71,41.48a72.6,72.6,0,0,0-5.81,12.27c-.51,1.42-1,2.87-1.37,4.34-.25-.62-.52-1.24-.82-1.85a14.73,14.73,0,0,0-5.28-6.13,9.7,9.7,0,0,1-4.12-5.4A15.37,15.37,0,0,1,53,40.32c0-.82,0-1.63.1-2.45a31,31,0,0,1,1-5.55c0-.11.05-.22.09-.33.16-.59.34-1.19.55-1.77l0,0,.18-.49v0h0c-.07.17-.15.33-.22.5-.24.59-.46,1.18-.67,1.78a31.87,31.87,0,0,0-1.45,5.87A18.1,18.1,0,0,0,52.79,45a11,11,0,0,0,1.56,3.48c-1.08-.66-2.16-1.33-3.22-2l-1.27-.83-.46-.3A4.59,4.59,0,0,1,49,45c.28.25.57.48.86.7,1.76,1.32,3.55,2.58,5.35,3.83a10.52,10.52,0,0,0,1.89,1.69A13.29,13.29,0,0,1,61.51,57c.3.7.56,1.41.79,2.14s.49,1.66.7,2.51a50.81,50.81,0,0,0-.94,7.53,25.53,25.53,0,0,0,.59,6.41l-.44-.23a80.19,80.19,0,0,0-12.14-4.45L47.28,70c-1-.31-2.09-.62-3.12-1-1.42-.45-2.83-.91-4.19-1.45a12.53,12.53,0,0,1-3-2.11A5.89,5.89,0,0,1,35.84,64a4.08,4.08,0,0,1-.42-1.72,5.5,5.5,0,0,1,.41-2,10.65,10.65,0,0,1,1.44-2.44,20.9,20.9,0,0,0,1.48-2.26A26.46,26.46,0,0,1,42.11,52a8.19,8.19,0,0,1,2.31-1.54,4.63,4.63,0,0,1,.75-.22,2,2,0,0,1,1.51.32l.09.07.29.39c-.09-.13-.17-.28-.26-.42a2.09,2.09,0,0,0-1.66-.48,7.05,7.05,0,0,0-3.24,1.62,24.84,24.84,0,0,0-2.31,2,15.26,15.26,0,0,0,1.09-4,13.62,13.62,0,0,0,.09-2.21A15.47,15.47,0,0,0,40,43.2a18.23,18.23,0,0,0-1.74-3.68c-.17-.28-.35-.54-.53-.81s-.5-.71-.78-1.05c0-.06-.1-.12-.14-.17l-.24-.28,0-.05-.06-.06.05.08.26.33c.31.41.59.83.86,1.26a18.17,18.17,0,0,1,2,4.54A14.47,14.47,0,0,1,40,49.68,15.89,15.89,0,0,1,36.35,57a12,12,0,0,0-1.58,2.34l0-.12a7.76,7.76,0,0,0-2-3.11,10,10,0,0,0-3-1.88,15.14,15.14,0,0,0-2-.65c-.52-.13-1-.22-1.56-.31a29.18,29.18,0,0,0-6.73-.23h-.07c-.73.06-1.46.13-2.18.23h-.07l-.55.09s0,0,0,0l-.15,0h0l.17,0,.64-.06c.74-.06,1.49-.1,2.24-.11a28.06,28.06,0,0,1,6.61.59,15.21,15.21,0,0,1,3.34,1.1,9.05,9.05,0,0,1,2.66,1.87,6.63,6.63,0,0,1,1.56,2.78,9.37,9.37,0,0,1,.11,4A2.91,2.91,0,0,0,34,65.23a4.43,4.43,0,0,0,1,1.38,11.86,11.86,0,0,0,3,2l.1.07A21.49,21.49,0,0,0,40.39,70a56.46,56.46,0,0,0,6.19,2.75c2.29.89,4.59,1.71,6.85,2.55s4.41,1.66,6.51,2.61a31.87,31.87,0,0,1,4.14,2.21,37.27,37.27,0,0,0,2.85,5.6A79,79,0,0,0,78.57,99.76c2.22,2.22,4.47,4.37,6.68,6.49-.88-.17-1.76-.34-2.62-.49L79,105.13c-2.52-.45-5-.9-7.27-1.52l-.18,0a37.37,37.37,0,0,1-3.2-2.09A46.52,46.52,0,0,1,61,94.69a12.93,12.93,0,0,1-.18-1.41,18.22,18.22,0,0,0-.63-4,15.67,15.67,0,0,0-1.4-3.47A14,14,0,0,0,55.55,82a.77.77,0,0,1,0-.15.4.4,0,0,0,0-.11c0-.19,0-.3.06-.34a1.86,1.86,0,0,0-.28-.18,2.41,2.41,0,0,1-.32.32c-.24-.19-.5-.36-.75-.53a18.52,18.52,0,0,0-3.37-1.73l.09-.07c-1.93-.85-3.86-1.68-5.79-2.51-.56-.23-1.12-.48-1.67-.73-2-.91-4-1.9-5.87-3-.26-.14-.52-.27-.78-.42-.51-.28-1-.57-1.5-.86l-.24-.15-.38-.23-.08,0,.06,0,.6.4c.73.49,1.47,1,2.21,1.44q3.57,2.25,7.33,4.16l1.28.63a35,35,0,0,0-4.05-.42,46.37,46.37,0,0,0-5.78.09c-1.89.14-3.76.38-5.61.69-.76.13-1.52.28-2.28.43l-1.4.32-.67.16-.35.09-.18,0-.08,0h0l.27,0,1.05-.11c1.23-.11,2.48-.18,3.72-.22a52.67,52.67,0,0,1,11.05.76,28.55,28.55,0,0,1,5.61,1.6,15.64,15.64,0,0,1,4.48,2.66,10.37,10.37,0,0,1,1,1c.79,1.64,1.58,3.28,2.36,4.94a15.5,15.5,0,0,1,.16,3.21c0,.2,0,.4,0,.61-1.41-.82-2.84-1.6-4.32-2.31a55.92,55.92,0,0,0-12.54-4.15c-.63,0-1.26,0-1.89,0-.44-.06-.88-.13-1.31-.23a5.78,5.78,0,0,1-1.86-.73,2.21,2.21,0,0,1-.85-1,2,2,0,0,1-.08-1.11,3.82,3.82,0,0,1,.33-.93,6.23,6.23,0,0,1,.74-1.1q.18-.23.39-.45l.21-.21.13-.13,0-.06-.2.16c-.22.2-.44.41-.64.63a4.77,4.77,0,0,0-1.23,2,2.2,2.2,0,0,0,0,1.27,2.48,2.48,0,0,0,.9,1.2,5.57,5.57,0,0,0,1.34.71c-.59,0-1.18.09-1.76.17a22.42,22.42,0,0,0-5.61,1.41c-.41.17-.81.35-1.21.55s-.9.5-1.33.78l-.29.21-.31.24-.07.06-.07.06h0l.14-.12c.2-.14.42-.27.64-.4a14.38,14.38,0,0,1,2.6-1.15,26.4,26.4,0,0,1,11.08-.9,54.14,54.14,0,0,1,11.89,4.77l.49.27c1.63.92,3.21,1.93,4.78,3a15.54,15.54,0,0,0,1.63,5A16.14,16.14,0,0,0,58.93,104q-3.23-.39-6.46-.65a62.66,62.66,0,0,0-7.63-.19l-.51,0a14,14,0,0,0-3.71.61,3,3,0,0,0-1.68,1.1,1.23,1.23,0,0,0-.18.59,1.52,1.52,0,0,0,.08.56,2.9,2.9,0,0,0,.54.93l0,0a3.58,3.58,0,0,0,.26.29h0a.57.57,0,0,1,0,.13v-.14l-.24-.31a3,3,0,0,1-.48-1,1.23,1.23,0,0,1,.16-1,2.77,2.77,0,0,1,1.61-.86,15.62,15.62,0,0,1,4.12-.34,61,61,0,0,1,7.49.71c2.91.42,5.8.93,8.68,1.51a16.39,16.39,0,0,0,1.47,1.09,30.62,30.62,0,0,0,7.05,3.41c2.62.93,5.23,1.64,7.76,2.28,5.25,1.36,10.29,2.4,14.67,4.26a21.59,21.59,0,0,1,5.22,3c.27.22.54.46.8.7l.3.34.12.14c.5.58,1,1.17,1.45,1.78.08.12.15.24.22.36s.18.35.26.53a3,3,0,0,1,.16.31,1.42,1.42,0,0,1,.08.18l.06.16.15.39s0,.06,0,.09c.12.36.24.77.35,1.2.07.26.13.53.2.81a48.28,48.28,0,0,1,.87,5.27c.55,3-.62,1.48-2.69.9a42.85,42.85,0,0,0-8.63-1.44c-9.34.41-13.06-1.11-21.55-4.76l-1-.42a49.57,49.57,0,0,1-5.8-3c-.08,0-.15-.11-.24-.16-.38-.66-.74-1.35-1.09-2-.79-1.56-1.52-3.16-2.24-4.76-.06-.12-.11-.25-.17-.37q-1-2.33-2-4.67l-.06-.16c-.19-.44-.38-.88-.56-1.33l0-.07c-.05-.12-.1-.23-.14-.35h0a0,0,0,0,1,0,0l.15.42c.17.51.33,1,.5,1.54q.81,2.41,1.66,4.82c.57,1.6,1.15,3.2,1.79,4.79l-.44-.42c-2-1.93-4.09-3.82-6.16-5.7l-2.3-2.08-3.49-3.12-.95-.84-.91-.81-.29-.24-.24-.22-.07-.06.06.07.48.51c.58.6,1.16,1.19,1.73,1.79q2.7,2.79,5.38,5.61l3.28,3.51-.64-.14a28.5,28.5,0,0,0-3.54-.36l-1.4,0-4.39.16-1.55.06h-.51l6.44.28a29.58,29.58,0,0,1,4.75.74,9.35,9.35,0,0,1,1.76.61,2.27,2.27,0,0,1,.87.66,13.88,13.88,0,0,0,2.28,2.43l.52.57c.31.36.61.7.87,1q.18.23.33.45a14.58,14.58,0,0,0,3.72,3.44,36.22,36.22,0,0,0,4.83,2.74l-1.48,0q-2.8.06-5.55,0a61.19,61.19,0,0,1-8.43-.69,31.94,31.94,0,0,1-7.47-2,41.53,41.53,0,0,1-8.19-4.67c-1.48-1-2.9-2.19-4.29-3.39s-2.68-2.43-4-3.72a22.58,22.58,0,0,1-1.65-6.36,30,30,0,0,1,.08-7.15,36.63,36.63,0,0,1,.82-4.4c.21-.88.45-1.76.73-2.64.11-.36.23-.71.36-1.06s.19-.52.29-.77l.09-.28.09-.2-.11.2c-.16.34-.3.67-.45,1-.5,1.19-.95,2.42-1.34,3.66a33.63,33.63,0,0,0-1.63,11.72,24.39,24.39,0,0,0,.53,4q-1.95-2.13-3.76-4.4l-3-4.4c-1.42-2.08-2.85-4.15-4.29-6.23l-1.16-1.69-.3-.43a.75.75,0,0,1-.07-.12l0,0L23.29,112a82.14,82.14,0,0,0,8.81,12.24c.11.13.23.25.35.38a51.83,51.83,0,0,0,8.34,7.46l-2.87-.26c-2.07-.2-4.11-.39-6.12-.71l-1.06-.17-1.85-.25c-5.77-.94-11.51-2-17.18-3.37-1.13-.28-2.28-.55-3.41-.86a34.6,34.6,0,0,1-5.75-2.07,10.81,10.81,0,0,1-1.06-.57,6.37,6.37,0,0,1-.75-.53,2.06,2.06,0,0,1-.66-.89s0,0,0-.05a.81.81,0,0,1,0-.57.08.08,0,0,1,0,0l0,0a1,1,0,0,0-.06.65,2.2,2.2,0,0,0,.64,1,8.38,8.38,0,0,0,1.76,1.24,45.7,45.7,0,0,0,9.05,3.51c2.21.69,4.44,1.32,6.67,1.91a26.92,26.92,0,0,0-5.44.69,11.53,11.53,0,0,0-4.52,2,6.64,6.64,0,0,0-1.57,1.81,6.49,6.49,0,0,0-.47,1,7.16,7.16,0,0,0-.3,3,11.2,11.2,0,0,0,.69,2.75c0,.14.11.28.17.42a15.29,15.29,0,0,0,.76,1.58,2,2,0,0,1,.11.2c.08.13.15.26.23.38l0,.06.06.08-.09-.15-.3-.59a14.83,14.83,0,0,1-.79-2,11,11,0,0,1-.49-2.71,6.57,6.57,0,0,1,.44-2.8,5.61,5.61,0,0,1,2-2.39,10.75,10.75,0,0,1,4.26-1.59,29.64,29.64,0,0,1,7.36-.24c1.74.12,3.47.32,5.19.59,2,.29,4,.66,5.94,1.08,1.72.36,3.44.61,5.14.86-1,.14-2,.31-3,.52a22.52,22.52,0,0,0-10.94,5.34c-.33.31-.64.63-.94,1a15,15,0,0,0-3.06,5.34l-.12.62-.33,1.8-.09.46c.25-.94.5-1.89.75-2.82a14.66,14.66,0,0,1,4.27-5.85A21.65,21.65,0,0,1,33.83,136a38.09,38.09,0,0,1,4.89-.41,55.69,55.69,0,0,1,9.28.58,39.74,39.74,0,0,0,5.58,1.87A64.36,64.36,0,0,0,63,139.67c6.4.65,12.69.63,18.76.8l.93,0h.16c3.94.43,7.86.91,11.74,1.51l1.18.22c1,.19,2,.38,3,.59a15,15,0,0,1,1.62.74c-.29,1.52-.49,3-.63,4.48a103,103,0,0,0-.32,14c.2,5.45.64,10.84,1.22,16.18.4,3.77.89,7.53,1.41,11.26q-.24,5.15-.51,10.26-.58,10.77-1.29,21.48c0,.36,0,.72-.07,1.07-.53.92-1.09,1.81-1.66,2.67a33.32,33.32,0,0,1-3.81,4.81c-.39.41-.8.81-1.21,1.2s-.92.83-1.4,1.21c-.89.07-1.79.13-2.68.22-.2,0-.39,0-.58.06-4,.38-7.81.91-11.59,1.24a19.72,19.72,0,0,0-10,3.48,19.07,19.07,0,0,0-2.7,2.42,20.16,20.16,0,0,0-2.82,3.86c-.49,1.44-1,2.87-1.42,4.3-.25.79-.49,1.59-.73,2.38-.07.22-.13.43-.19.64a1,1,0,0,0-.05.16.06.06,0,0,0,0,0l0,0,.12-.13c.16-.18.31-.37.47-.54l1.72-2c.26-.31.5-.61.76-.91a.57.57,0,0,1,0,.13,1.34,1.34,0,0,1,0,.2s0,0,0,.06h0s0,0,0,0l0-.06a1.67,1.67,0,0,0,.08-.2c.07-.16.12-.31.18-.47l.25-.29a5,5,0,0,1,2.37-1.33l.26-.08a32.09,32.09,0,0,1,6.46-.95c.82-.06,1.65-.13,2.47-.17,3.58-.19,7.16-.21,10.8-.31l.8,0a23,23,0,0,0,8.48-2.34c.56-.29,1.11-.6,1.64-.94.76-.16,1.52-.34,2.27-.52a17.86,17.86,0,0,0-1.66,2.31c-.15.26-.3.52-.44.79a6.05,6.05,0,0,0-.75,4.36,3.82,3.82,0,0,0,.7,1.28,3,3,0,0,0,1.1.84,2.68,2.68,0,0,0,.52.18l.26.08.18,0h.12s0,0,0,0,0,0,0,0h0s0,0,0,0,0,0,0,0,0,0-.06-.06a.68.68,0,0,1-.12-.12,1.55,1.55,0,0,1-.19-.24,3,3,0,0,1-.24-.38,2.43,2.43,0,0,1-.34-1.09,1.56,1.56,0,0,1,.12-.7c.32-.84,1.2-1.1,1.92-1.52.26-.12.51-.24.77-.34,1.52-.58,3.13-.85,4.81-1.38l.37-.13a14.91,14.91,0,0,0,5.5-3.5,13.57,13.57,0,0,0,1.45-1.85,17.88,17.88,0,0,0,8.13,3.29c.56.09,1.11.18,1.66.24a38,38,0,0,0,6.65.07,93.22,93.22,0,0,0,13,3.14l2.26.4q2.64.44,5.3.78l.64.08,1.54.18.17,0,.42,0h0l.11,0h0l0,0h0l-.1-.07,0,0-.36-.32-.1-.08q-.65-.59-1.32-1.14l-.4-.34q-2.22-1.86-4.53-3.59L144,240c-1.56-1.11-3.15-2.18-4.79-3.16,1.9.29,3.78.59,5.66.9,4.22.69,8.4,1.48,12.54,2.53,1,.26,2.06.54,3.09.84a54.18,54.18,0,0,1,6.5,2.23c.44.19.87.38,1.3.59s.95.47,1.43.74c.12.07.26.14.38.22l.34.21.11.08.08.06,0,0h0s0,0,0,0l-.08-.12c-.1-.15-.21-.28-.32-.42-.44-.55-.91-1.08-1.39-1.59a46.87,46.87,0,0,0-6.67-5.58l-1-.7a69,69,0,0,0-12.2-6.22,76.45,76.45,0,0,0-13.21-3.84c-2.36-.46-4.72-.82-7.07-1.1q-.75-3.49-1.36-7c-.14-.82-.28-1.63-.4-2.45-.63-4-1.1-7.95-1.37-11.91-.1-1.39-.17-2.77-.22-4.15a80.19,80.19,0,0,1,.33-10.56c.15-1.64.29-3.27.39-4.91.35-5.38.42-10.78.41-16.15q0-7.14-.24-14.24c0-.73-.06-1.46-.08-2.19q-.21-6-.52-11.89a19.14,19.14,0,0,1,1.44-1.76c.3-.32.61-.62.91-.92a15.46,15.46,0,0,1,1.38-1.22,11,11,0,0,1,3-1.65l.35-.13c1.27-.35,2.53-.74,3.79-1.15l3.16-.18c1.91-.1,3.83-.18,5.76-.27l6.52.93,6.6.93,9.4,1.37,2.11.31c.94.14,1.87.29,2.81.42l.58.09.76.11.15,0,.2,0h.09s0,0,0,.06,0-.05,0-.07l-.1,0-.33-.09-1.31-.39c-1.59-.46-3.18-.9-4.78-1.35q-3.45-1-6.91-1.92l-4.14-1.06c1.68-.12,3.35-.28,5-.46a76.36,76.36,0,0,0,10.27-1.7c1-.25,2.09-.55,3.13-.89l1.32.3q.65.15,1.29.33a23.24,23.24,0,0,1,6.36,2.64c1.36.86,2.74,1.7,4.12,2.54s2.68,1.62,4,2.41l.27.16.93.54.22.13.09.07.07.06h0a1,1,0,0,1-.13-.16l-1-.85L190,134.88q-2.25-1.83-4.55-3.6a19.15,19.15,0,0,0-6-3l-.68-.19c.62-.28,1.24-.58,1.84-.9L181,127q5.83-3.37,11.61-6.76a38.28,38.28,0,0,1,6.2-1.77,18.72,18.72,0,0,1,3.17-.32,31.87,31.87,0,0,1,4.68.28c.39.05.78.12,1.16.19s.77.15,1.14.25l.33.1.29.08.08,0,.08,0-.07,0-.36-.16a14.3,14.3,0,0,0-1.44-.48,28.92,28.92,0,0,0-5.85-1,16.28,16.28,0,0,0-1.71,0,23.59,23.59,0,0,0-3.35.32q2.37-1.38,4.72-2.78l1.91-1.13,6.74-4,1.81-1.08.47-.29.12-.07-11.85,5-.94.39c.26-.29.52-.58.77-.88a77.92,77.92,0,0,0,4.75-6.48c.37-.55.73-1.11,1.09-1.66q1.4-2.14,2.73-4.34c.12-.21.24-.42.37-.63l.77-1.3c0-.07.07-.12.1-.18l.21-.35,0,0,.06-.1h0a.58.58,0,0,1-.1.12c-.12.17-.25.33-.38.5L208.93,100c-.82,1-1.65,2-2.48,3.06l-2,2.44c-1.69,2-3.39,4.06-5.15,6-.75.81-1.49,1.6-2.27,2.34l-.56.51a7.59,7.59,0,0,1-1.18.87c-.77.44-1.55.86-2.33,1.29l-9.63,4.06c0-.07,0-.14,0-.21a7.94,7.94,0,0,0,.15-.85,6.71,6.71,0,0,0-4-7.09c-.86-.41-1.71-.81-2.57-1.2-1.07-.48-2.15-.93-3.25-1.32h0a7.76,7.76,0,0,0-.9-.28h-.07l-.17,0,.17.05c.33.1.65.24,1,.37,1.93.83,3.78,1.85,5.63,2.87a6.56,6.56,0,0,1,2.82,2.94,5.66,5.66,0,0,1,.49,2.11,7.22,7.22,0,0,1-.1,1.47,7.69,7.69,0,0,1-.5,1.76c-1.08.47-2.17.93-3.25,1.41a29.68,29.68,0,0,1-7.5,1.9,78.73,78.73,0,0,1-9.57.64c-8.56-2.06-28.75,3.4-21.36-1.28,1.08-.68,2.15-1.36,3.22-2.06,4-2.58,7.84-5.26,11.72-7.89,1.38-.93,2.75-1.86,4.13-2.77q3.44-1.94,6.84-3.9l.69-.41-.52.51,1-.52c.69-.36,1.4-.69,2.12-1a63.64,63.64,0,0,1,9.53-3.21,49.08,49.08,0,0,1,5.62,1.4c2,.6,4,1.3,6,2l.75.28c1.3.48,2.59,1,3.88,1.5l.33.14,1,.42.11,0,.27.12h0l.07,0-.09-.05-.35-.19-1.3-.7q-2.19-1.16-4.44-2.24c-1.91-.93-3.86-1.82-5.84-2.63-.85-.35-1.71-.68-2.58-1l1.55-.32c2.49-.49,5-.89,7.56-1.2,1.66-.21,3.32-.37,5-.51l2.57-.13,2.05-.11.54,0H202l-5.28-.51c-.87-.06-1.73-.09-2.6-.13a23,23,0,0,0,9.69-5.22,13,13,0,0,0,1.47-1.68q.54-1.27,1.08-2.52l.51-1.21.15-.31,0-.09q-1.07,2-2.11,3.9c-2.87,3.29-7.22,4.82-11.48,5.67l-2.36.39-5.86,1.06c-.46,0-.93,0-1.38.06A73.24,73.24,0,0,0,171,100.53c-4.81,1.58-12.65,7-7.29-5a41.86,41.86,0,0,1,3.77-7.78l.38-.66A63.68,63.68,0,0,1,173.52,79c.83-.61,1.69-1.2,2.57-1.78,1.1-.74,2.22-1.46,3.34-2.16a22.29,22.29,0,0,1,2.2-.93,20,20,0,0,1,4.85-1.07,19,19,0,0,1,8.67,1.28c.32.12.64.26.95.4l1.42.8.62.34.16.09-2.08-1.42a19.44,19.44,0,0,0-5.95-2.19,18.47,18.47,0,0,0-6.25-.12c2.11-1.28,4.25-2.54,6.38-3.8l.06,0,2.13-1.25h0l.58-.34h0l.15-.08-.16.07-.64.3-2.3,1.07c-2,1-4,1.92-6.05,2.91l-1.14.58c-1,.51-2,1-3,1.57a24.7,24.7,0,0,0-2.32,1l.5-.55c2.41-2.58,4.94-5.06,7.56-7.44,1.16-1,2.33-2.08,3.53-3.1l2.77-2.24,1.74-1.4.44-.36.12-.1c-1.85,1.13-3.72,2.24-5.59,3.37a130.13,130.13,0,0,0-12.55,9.16c-1.67,1.38-3.32,2.81-4.91,4.32.45-1.23.9-2.45,1.36-3.67l2.52-6.72,1.23-3.33.33-.9.07-.2L172,71.92c-.33.74-.66,1.49-1,2.23l-1.53,3.54c-.68.69-1.35,1.39-2,2.11A59.48,59.48,0,0,0,163.25,85a40,40,0,0,0-4.42,7.76l-.17-.39a32.88,32.88,0,0,0-1.51-3c-.07-.11-.13-.23-.19-.34-.15-.26-.31-.52-.47-.77l-.06-.1-.12-.19h0c0,.1.09.22.14.32.18.39.35.78.52,1.18a33.84,33.84,0,0,1,1.37,4c0,.11,0,.23.08.35a25.65,25.65,0,0,0-1.73,8.24,9.23,9.23,0,0,1-1.63,4.8,15.86,15.86,0,0,1-4.31,4,43.24,43.24,0,0,1-6.92,3.58c-.78.33-1.58.65-2.38,1a25.44,25.44,0,0,0,3.21-4.21c.2-.34.38-.7.56-1.06a11,11,0,0,0,.79-2,6.87,6.87,0,0,0,.19-2.93,8,8,0,0,1,.72-4.51,17.54,17.54,0,0,1,2.72-4.18l0-.06a29,29,0,0,1,2.91-3l.17-.14q.41-.37.84-.72l.06,0,.21-.18h0a.15.15,0,0,1,.06,0l-.09,0-.31.2c-.37.24-.73.49-1.09.74a28.81,28.81,0,0,0-3.3,2.75,18.67,18.67,0,0,0-3.27,4.09,11.41,11.41,0,0,0-.76,1.62c-.1-.54-.19-1.09-.29-1.64,0-.17-.07-.34-.1-.5l-.09-.57a1.55,1.55,0,0,1,0-.21v-.06a.15.15,0,0,1,0-.06s0,0,0,0,0,.07,0,.12c0,.26,0,.52,0,.79l.21,3.09a8.3,8.3,0,0,0-.27,2.64,4.54,4.54,0,0,1-.14,1.41c-.06.25-.14.51-.23.77a10.53,10.53,0,0,1-1.37,2.49,29.16,29.16,0,0,1-5.6,5.67c-1,.82-2.06,1.62-3.13,2.38-3.09,1.07-6.25,2.13-9.45,3.35-6.22,1.5-6.42,4.41-7.56-.35a1.66,1.66,0,0,0-.06-.21h0l-.12-.54v0c0-.09,0-.18,0-.27a1.42,1.42,0,0,1,0-.2.51.51,0,0,1,0-.13c0-.22-.07-.45-.1-.67s-.08-.63-.11-1c0,0,0-.08,0-.12v0c0-.53-.07-1.05-.07-1.58v0c0-.28,0-.55,0-.82v0c0-.27,0-.55,0-.82a32.75,32.75,0,0,1,.91-5.9c.06-.25.13-.5.19-.75l0-.1a18.8,18.8,0,0,1,1.91-3.27,9.63,9.63,0,0,1,3.33-3c2.23-1.14,4.41-2.39,6.52-3.74A125.41,125.41,0,0,0,151.35,83c1.47-1.28,2.89-2.62,4.24-4a51.88,51.88,0,0,0,4.49-5.33,36.91,36.91,0,0,0,5.18-9.81c.24-.69.45-1.38.65-2.08.13-.27.26-.52.41-.77a8.85,8.85,0,0,1,1.76-2.23,6,6,0,0,1,3.41-1.53,6.12,6.12,0,0,1,1.21,0,7.32,7.32,0,0,1,1.61.34l.48.2.52.22-1-.49a7.19,7.19,0,0,0-2.87-.51,6.34,6.34,0,0,0-3.69,1.41,8.46,8.46,0,0,0-1.36,1.38,53.27,53.27,0,0,0,1-5.57c.19-1.49.32-3,.4-4.48.06-1.22.1-2.44.09-3.66,0-.37,0-.74,0-1.11s0-.73,0-1.08l0-.28a2.81,2.81,0,0,0,0-.29v-.07s0,0,0-.07v.43c0,.45,0,.9,0,1.36-.06,1.58-.19,3.17-.36,4.75a52.42,52.42,0,0,1-3.27,13.73,36,36,0,0,1-5.47,9.15l-.83,1a59.11,59.11,0,0,1-8,7.64c-1.75,1.4-3.55,2.73-5.39,4a59.45,59.45,0,0,0,6.5-8.55,33.93,33.93,0,0,0,5.28-13.48,17,17,0,0,0-.21-6,21.77,21.77,0,0,1,2.41-4.48,13,13,0,0,1,.86-1.1,10.38,10.38,0,0,1,1.26-1.22l.28-.22c.12-.09.26-.17.39-.25l.08,0,.1-.06-.19.08a6.2,6.2,0,0,0-.69.44,11.58,11.58,0,0,0-2.3,2.23,22.27,22.27,0,0,0-2.43,3.8,12.16,12.16,0,0,0-2.26-4.26,5.45,5.45,0,0,1-1-1.87,6.2,6.2,0,0,1-.25-1.44,6.77,6.77,0,0,1,0-.78,14.28,14.28,0,0,1,1.58-5.44,38.18,38.18,0,0,1,3.87-6.15A77.19,77.19,0,0,1,163,30.17c2.07-2.26,4.24-4.44,6.48-6.55,1.42-1.35,2.88-2.66,4.35-4,.87-.77,1.74-1.52,2.62-2.27.38-.33.77-.65,1.16-1l.78-.64.29-.25.22-.17.07-.06H179l-.09,0-.3.23c-.38.27-.75.55-1.12.83-1.33,1-2.64,2-3.93,3a142.67,142.67,0,0,0-11.39,10,78.63,78.63,0,0,0-5.59,6.08,39.42,39.42,0,0,0-4.31,6.23l-.27.49a18.46,18.46,0,0,0-1.21,2.92,20.82,20.82,0,0,1,0-2.37,36.64,36.64,0,0,1,2.75-11.13c.32-.81.65-1.61,1-2.4A72.87,72.87,0,0,1,158,22.41l.64-1.1c.34-.58.67-1.14,1-1.71l.21-.34c.1-.14.19-.28.28-.43l.06-.1-.07.09c-.18.24-.36.49-.53.74-.63.9-1.24,1.8-1.82,2.73a72.06,72.06,0,0,0-4.94,9.06,37.41,37.41,0,0,0-3.37,11.32,18,18,0,0,0,.21,5.62,12.41,12.41,0,0,0,.85,2.65,7.6,7.6,0,0,0,1.28,2.52,10,10,0,0,1,1.86,4.19,13.34,13.34,0,0,1,.18,3.58c-.47,1.48-.86,3-1.2,4.47a34,34,0,0,1-1,3.58A43.38,43.38,0,0,1,148.41,75c-.34.51-.68,1-1,1.52a12.68,12.68,0,0,0-.11-2.46,17.12,17.12,0,0,0-4.16-8.32c-.53-.61-1.06-1.24-1.61-1.84a21.65,21.65,0,0,0-3.64-3.33,6.07,6.07,0,0,0-1.57-.83,2.38,2.38,0,0,0-.69-.12,1.34,1.34,0,0,0-.3,0,1.08,1.08,0,0,0-.56.4,1.73,1.73,0,0,0-.27.6l0,.15-.06.51c0-.22.09-.43.14-.65a1.47,1.47,0,0,1,.3-.55.86.86,0,0,1,.51-.31,1.58,1.58,0,0,1,.89.13,5.45,5.45,0,0,1,1.44.89,29,29,0,0,1,4.85,5.38,16,16,0,0,1,3.45,8,11.47,11.47,0,0,1-.75,5.14,67.05,67.05,0,0,1-8.09,8.25,75.73,75.73,0,0,1-15.89,10.56c-.25.13-.48.26-.72.41.51-1.54,1-3.08,1.5-4.66.19-.59.37-1.18.55-1.78.36-1.19.71-2.39,1-3.62.42-1.59.79-3.2,1.1-4.84a1.77,1.77,0,0,1,0-.2c.1-.57.21-1.13.3-1.7a50.82,50.82,0,0,0,.61-9.33l-.09-2.31c0-1.6,0-3.22,0-4.85a16.51,16.51,0,0,1,1.57-4.36A27.81,27.81,0,0,1,130,56.71c.56-.71,1.16-1.43,1.75-2.16S133,53,133.58,52.23A42.51,42.51,0,0,0,137,47.17c.49-.6,1-1.2,1.5-1.76.09-.11.2-.21.3-.31a6.52,6.52,0,0,1,1.84-1.53,2.42,2.42,0,0,1,1.79-.06A7.86,7.86,0,0,1,146,46.06l0,0a7.64,7.64,0,0,1,.72,1.17,0,0,0,0,0,0,0,3.49,3.49,0,0,1,.15.34s0,0,0,0a.3.3,0,0,1,0,.1h0v-.11c0-.14,0-.29-.05-.42a7.25,7.25,0,0,0-.34-1.43,8.78,8.78,0,0,0-2.27-3.4c-.26-.23-.54-.45-.83-.66a4.74,4.74,0,0,0-3.48-.75l-.31.08c.19-.59.36-1.2.51-1.8a47,47,0,0,0,1.42-10q0-1,.06-1.92a80.1,80.1,0,0,0-.37-8.5c-.07-.76-.15-1.52-.24-2.27,0-.2-.05-.39-.07-.59,0,0,0-.11,0-.16v0A83.59,83.59,0,0,1,139.81,29c-.15.89-.32,1.77-.52,2.64-.11-.23-.23-.47-.36-.69a18.74,18.74,0,0,0-3.07-4c-.51-.52-1.06-1-1.61-1.51l-.43-.37-.11-.1A21.92,21.92,0,0,1,138,31.45a10.76,10.76,0,0,1,.68,2.85,38.52,38.52,0,0,1-1.35,4,31.74,31.74,0,0,1-3.13,5.91l-1.06,1.17c-1.82,2-3.76,3.91-5.64,6-.61.69-1.2,1.4-1.79,2.14,0-.94,0-1.87,0-2.81,0-2.75-.1-5.49-.24-8.25-.07-1.45-.17-2.92-.29-4.38,0-.69,0-1.38,0-2.07.15-1.11.31-2.21.47-3.31.11-.79.22-1.56.35-2.34a41.14,41.14,0,0,1,1.92-8.27.06.06,0,0,1,0,0c.77-1.29,1.62-2.56,2.48-3.83a4,4,0,0,1,.61-.4l3.72-2,1.25-.67.29-.15.42-.21h0l.12-.05h0l-.13,0-.76.28c-1.52.56-3,1.15-4.54,1.74l.75-1.12a29.52,29.52,0,0,0,2.33-3.86,5.92,5.92,0,0,0,.73-3.2s0,0,0-.07a4.16,4.16,0,0,0-.91-2.09,4.37,4.37,0,0,0-1.54-1.12l-.43-.17a7.09,7.09,0,0,0-1-.25,1.38,1.38,0,0,0-.2,0l-.25,0,.45.09a5.23,5.23,0,0,1,1.39.49,4.13,4.13,0,0,1,1.43,1.15,3.85,3.85,0,0,1,.77,2.06,5.6,5.6,0,0,1-.84,3,30.24,30.24,0,0,1-2.46,3.68l-1.62,2.15a6.41,6.41,0,0,0-1.57,1.31,11.92,11.92,0,0,0-1.8,2.8,23.49,23.49,0,0,0-1,2.34l-.4.74-.12.26c0-4.26-.06-8.52-.08-12.77,0-1.23,0-2.46,0-3.69l0-5.2c0-.8,0-1.6,0-2.4V0s0,0,0,0ZM51,79.21c1.12.49,2.23,1,3.34,1.51l.84.41.17.09.13-.2-.13,0c-.36-.13-.71-.3-1.08-.46l-1.48-.65-1.28-.57-.41-.18-.1.08ZM160.32,18.56h0l.12.06-.12-.07ZM146.76,47.77l0,0h0Zm-12.6,13.68h0Zm22.09,26.42,0,0,0,0Zm53.49,31.19s0,0,0,.06a.14.14,0,0,0,0-.06Zm-81.63,7.68c-.78.42-1.56.81-2.35,1.18l.56-.35,1.79-.83ZM112,148.34s0,0,0,.07l0,.05s0-.08,0-.12Zm9,4.49c-.06.34-.13.68-.2,1,0,.08,0,.17-.05.25s0-.15,0-.23a1.21,1.21,0,0,0,0-.18c.09-.28.17-.57.25-.86Zm-13.46,4.55s0,.05,0,.08c-.27,1.14-.51,2.28-.73,3.42-.27,1.59-.53,3.17-.8,4.75.41-1.55.81-3.11,1.22-4.66l.12-.42a.48.48,0,0,0,0,.12c0,.1-.07.2-.1.31-.41,1.55-.82,3.1-1.24,4.65.26-1.58.51-3.17.77-4.76.21-1.1.45-2.19.7-3.29,0-.07.05-.13.07-.2Zm18.17,67.56.21.44-.27,0h-.15l.06-.12A2.64,2.64,0,0,0,125.7,224.94Z"/></g></g></svg>