<svg xmlns="http://www.w3.org/2000/svg" viewBox="0 0 237.13 267.54"><defs><style>.cls-1{fill:#520;}.cls-1,.cls-3,.cls-5,.cls-7,.cls-8,.cls-9{fill-rule:evenodd;}.cls-2{fill:green;}.cls-3{fill:#8be58d;}.cls-4{fill:olive;}.cls-5{fill:#c8b7b7;}.cls-6{fill:#d45500;}.cls-7{fill:#fca;}.cls-8{fill:#e3dbdb;}.cls-9{fill:#c5b5af;}</style></defs><g id="Ebene_2" data-name="Ebene 2"><g id="Ebene_1-2" data-name="Ebene 1"><path class="cls-1" d="M137.69,7c-.34,2.79-.67,5.56-1,8.34q-.83,6.94-1.61,13.89A47.5,47.5,0,0,0,131,20a44.46,44.46,0,0,0-2.66-4.07l-2.68-3L124.1,11.2l-.41-.46-.1-.12c1.36,2,2.7,3.92,4,5.85A45.21,45.21,0,0,1,133,33c0,.24.06.49.08.73a2.14,2.14,0,0,0-.13-.19A7,7,0,0,0,131,31.67a14.86,14.86,0,0,0-2.84-1.31,2,2,0,0,0-1.26-.06,2.12,2.12,0,0,0-.94.7,4.7,4.7,0,0,0-.62,1,9.65,9.65,0,0,0-.5,1.55c-.11.87-.21,1.74-.32,2.6l-.15,1.13c0,.07,0,.13,0,.19l.72-3.87a6.08,6.08,0,0,1,1.17-2.39,1.68,1.68,0,0,1,.8-.52,1.48,1.48,0,0,1,.94.1,13.51,13.51,0,0,1,2.64,1.39A6.14,6.14,0,0,1,132.26,34a9.66,9.66,0,0,1,1,2,.56.56,0,0,0,0,.12c.17,2.47.2,5,.15,7.48,0,.35,0,.7,0,1-.46,4.74-.9,9.49-1.28,14.27q-1-2.1-2.07-4.15c-2.4-4.61-5-9-7.82-13.33-1-1.49-1.93-3-2.92-4.41l0-.2c0-.1,0-.2-.08-.3-.29-1-.62-2-1-2.93l-.12-.37c-.23-.69-.48-1.38-.69-2.07a.5.5,0,0,1,0-.13c-.24-.77-.46-1.53-.64-2.31a8,8,0,0,1-.13-3.41,5.71,5.71,0,0,1,1.87-2.93,2.49,2.49,0,0,1,1.12-.54,3.72,3.72,0,0,1,1.33,0,6.54,6.54,0,0,1,.9.2,10.91,10.91,0,0,1,2,.89l2,1.39,1,.71.27.19c-1.06-.81-2.1-1.65-3.16-2.47A9.32,9.32,0,0,0,121,21.4a4,4,0,0,0-1.47-.06,2.57,2.57,0,0,0-.4.08,1.89,1.89,0,0,0,.11-.25,3.55,3.55,0,0,0,.16-1.33c0-.2,0-.39-.06-.59a8.75,8.75,0,0,0-.75-2.23,16.23,16.23,0,0,0-1.08-2l-.25-.38c-.14-.22-.29-.43-.44-.64l-.06-.08-.14-.18a2,2,0,0,1,.12.19c.16.24.32.5.47.75a17.11,17.11,0,0,1,1.2,2.38,7.52,7.52,0,0,1,.65,2.75,3.29,3.29,0,0,1-.2,1.18,2.28,2.28,0,0,1-.6.84l-.09.05A6.24,6.24,0,0,0,116,25.07a8.35,8.35,0,0,0,0,3.72c.09.55.22,1.09.35,1.62.29,1.22.65,2.41,1,3.59-1-1.42-2-2.84-3-4.24-.81-1.11-1.64-2.22-2.47-3.32S110,24,109,22.86l-.66-.84-.79-1-.17-.22-.21-.25,0-.05,0,0,.21.33c.26.43.53.86.79,1.3,1,1.59,1.9,3.2,2.82,4.81q4.5,7.86,8.45,16l.78,1.63c-.37-.3-.74-.59-1.12-.87s-.59-.44-.9-.65a37.27,37.27,0,0,0-10.07-4.75,17.25,17.25,0,0,1-8.46-5.68,18.15,18.15,0,0,1-3-6.07c-.16-.59-.31-1.17-.43-1.77a28,28,0,0,1-.47-6.85.56.56,0,0,0,0-.13c0-.74.11-1.48.21-2.21h0L96,15h0l0-.15L96,15l-.12.6c-.14.73-.24,1.46-.32,2.2a28.06,28.06,0,0,0,.11,7.09,19.53,19.53,0,0,0,3.15,8.33,17,17,0,0,0,3.53,3.66c-2.24-.69-4.49-1.35-6.76-1.92-.41-.11-.83-.2-1.24-.3s-.61-.16-.9-.22a3.48,3.48,0,0,0-.54-.07h-.08l0,0a8.13,8.13,0,0,1,1.45.37c3.36,1,6.65,2.2,9.94,3.42a19.37,19.37,0,0,0,3.32,1.57A43,43,0,0,1,113,42.17,33,33,0,0,1,117,44.68a29.06,29.06,0,0,1,6,6.13l.08.12.22.48c.49,1.12,1,2.25,1.42,3.37a3.32,3.32,0,0,0-.55,0,5.27,5.27,0,0,0-2,.47,18.62,18.62,0,0,0-4.73,3.26c-.35.3-.68.61-1,.92a4.93,4.93,0,0,1-1.46.66,3.68,3.68,0,0,1-1.19.12,3.38,3.38,0,0,1-.76-.14,3.26,3.26,0,0,1-1.12-.59l-.09-.07a4.11,4.11,0,0,1-.31-.29,2.87,2.87,0,0,0,.29.31,3.5,3.5,0,0,0,1.2.76,3.69,3.69,0,0,0,2,.14,4.91,4.91,0,0,0,.75-.21,33.11,33.11,0,0,0-3.33,4.41c-.24.41-.49.81-.72,1.22l-1,1.72-.27.45-.06.12,2.28-3.36a27.06,27.06,0,0,1,5.23-5.59,18.15,18.15,0,0,1,4.66-2.85,4.52,4.52,0,0,1,1.57-.29,2.71,2.71,0,0,1,1.15.32c.84,2.07,1.63,4.16,2.34,6.26a73.38,73.38,0,0,1,2.58,9.22,40.57,40.57,0,0,1,.71,4.87q-.06,1.39-.09,2.79A50.82,50.82,0,0,1,128.22,93c-.16.51-.33,1-.51,1.54a35.85,35.85,0,0,0-3-7.38c-.46-.87-1-1.73-1.47-2.57a26.79,26.79,0,0,0-4.11-5.23,10.23,10.23,0,0,0-2.9-2.09,4.46,4.46,0,0,0-1.35-.39,2.75,2.75,0,0,0-1.24.17l-.45.19c-1.18.48-2.36,1-3.57,1.37-.25.09-.5.18-.75.25l-.23.08a1.46,1.46,0,0,1-.31,0h0v0a2.06,2.06,0,0,0,.59-.06c1.69-.3,3.34-.79,5-1.24a2,2,0,0,1,.9,0,3.37,3.37,0,0,1,1,.43,9.49,9.49,0,0,1,2.33,2.16,22.54,22.54,0,0,1,2.12,3.09,38.39,38.39,0,0,1,2.35,4.77c.21.49.4,1,.59,1.48a25.87,25.87,0,0,0-4.2-1.55c-1-.44-2.1-.89-3.14-1.36-.85-.37-1.69-.76-2.52-1.16-1.24-.59-2.47-1.2-3.67-1.86a28.7,28.7,0,0,1-3-1.86,7.34,7.34,0,0,1-1.85-1.75,2.12,2.12,0,0,1-.25-.47,1.48,1.48,0,0,1-.1-.36,1.35,1.35,0,0,1,0-.49.81.81,0,0,1,.07-.22,1.29,1.29,0,0,0-.16.72,2.25,2.25,0,0,0,.3.88,7.56,7.56,0,0,0,1.75,1.94,26.69,26.69,0,0,0,2.9,2.1c1.16.76,2.36,1.46,3.57,2.14l.6.33c.43.24.88.46,1.31.69l-.8-.06a21.17,21.17,0,0,0-2.52,0,12.26,12.26,0,0,0-6.11,2A7.75,7.75,0,0,0,104,90.54a8.35,8.35,0,0,0-.69.88,7.8,7.8,0,0,0-.87,1.82,8.37,8.37,0,0,0-.23.82,1.74,1.74,0,0,0,0,.22,8.18,8.18,0,0,1,1.34-2.73,7.46,7.46,0,0,1,2.13-1.87,11.75,11.75,0,0,1,5.9-1.44h.33a22.85,22.85,0,0,1,6.6,1.08l.52.17,1.35.65,2.89,1.38.68.27a28.73,28.73,0,0,1,1.24,5.56,13.71,13.71,0,0,1,0,3.68,4.83,4.83,0,0,1-.88,2.26,7.35,7.35,0,0,0-1.16,2.37,24,24,0,0,0-.75,3.1c-.08.5-.15,1-.22,1.5s-.23.74-.34,1.12c0,.16-.09.32-.13.48q-.17.58-.33,1.2s0,.1,0,.15c-.13.48-.24,1-.35,1.45l0,.14c-.16.74-.3,1.5-.43,2.26,0,.31-.11.63-.15.94l0,.13c0,.27-.07.55-.11.82a.17.17,0,0,1,0,.07c0,.07,0,.14,0,.22l-.09.68c0,.32,0,.63-.08,1s0,.76-.05,1.14v.08s0,.1,0,.15,0,.32,0,.49c.59,3.71-2.48-2.35-3.24-3.28a73.33,73.33,0,0,0-6.12-6.51c-4.24-4.06-8.65-7.67-12.83-11.32l-.83-.73c-4.3-3.81-8.41-7.58-11.61-11.93a30.79,30.79,0,0,1-3.4-5.66c0-.07,0-.13,0-.2a10,10,0,0,1,2.14-4.48l.36-.44A18.77,18.77,0,0,1,89,74.58l.15-.07a6.48,6.48,0,0,1,4.39.28,5,5,0,0,1,.8.48,5.75,5.75,0,0,1,1,.92,8.55,8.55,0,0,1,1.26,1.93,14.84,14.84,0,0,1,1.13,3.45l.12.66c.07.43.12.87.16,1.31,0,0,0,.08,0,.13l0,.38v.15h0a.41.41,0,0,0,0-.11,3,3,0,0,0,0-.42c0-.49,0-1-.09-1.45a15.3,15.3,0,0,0-1-4.25,9.2,9.2,0,0,0-1.21-2.13,6.33,6.33,0,0,0-1.9-1.66,6.41,6.41,0,0,0-2.65-.76c.84-.39,1.69-.75,2.57-1.07a9.64,9.64,0,0,0,1.39-.62,14.35,14.35,0,0,1,5.22-.43l.82.1a15,15,0,0,1,4.33,1.48,15.88,15.88,0,0,1,2.48,1.6q.44.33.84.69c.24.21.47.44.7.66.06.07.13.13.19.19l.18.2L109.7,76c-.26-.31-.54-.61-.83-.9a17.14,17.14,0,0,0-3.22-2.52,15.14,15.14,0,0,0-5.22-2,14.9,14.9,0,0,0-3.53-.14l.24-.22a12.53,12.53,0,0,0,2.41-3.07,21.92,21.92,0,0,0,2.35-6.48c.07-.32.14-.65.19-1a41,41,0,0,0,.63-6.71v-.08c0-.71,0-1.4,0-2.1,0-.19,0-.36,0-.54s0-.1,0-.15c0,1-.07,1.92-.11,2.87a41.44,41.44,0,0,1-1,6.59,22.52,22.52,0,0,1-2.85,7,11.71,11.71,0,0,1-2.36,2.68A8.78,8.78,0,0,1,93.26,71a31.14,31.14,0,0,0-5.13,2.08c-.42.21-.82.43-1.23.67s-.78.49-1.16.75a17.07,17.07,0,0,0-2.45,1.08,8.63,8.63,0,0,0-3,2.6,17.82,17.82,0,0,1-.25-2.06C80,75.39,80,74.68,80,74a54.07,54.07,0,0,1,1.35-12.29,71.12,71.12,0,0,1,4-12.36l1-1.89c1.3-2.43,2.61-4.87,3.9-7.32.36-.66.71-1.32,1.06-2l.28-.53.07-.13q-3.92,5.45-7.87,11A72.14,72.14,0,0,0,78,60.71c-.51,1.43-1,2.88-1.37,4.35-.25-.63-.52-1.24-.82-1.85a14.61,14.61,0,0,0-5.28-6.13,9.77,9.77,0,0,1-4.12-5.4,15.49,15.49,0,0,1-.68-4.4c0-.81,0-1.63.1-2.44a31.84,31.84,0,0,1,1-5.56L67,39c.17-.6.35-1.19.55-1.78l0,0,.18-.49h0l-.22.49c-.24.59-.46,1.18-.67,1.79a31.68,31.68,0,0,0-1.45,5.87,18.11,18.11,0,0,0,.22,7.14,11.11,11.11,0,0,0,1.56,3.48c-1.08-.66-2.16-1.34-3.22-2-.43-.27-.85-.55-1.27-.83l-.46-.3-.44-.32a10.82,10.82,0,0,0,.86.69C64.36,54,66.15,55.2,68,56.45a10.48,10.48,0,0,0,1.89,1.69,13.26,13.26,0,0,1,4.45,5.78,21.64,21.64,0,0,1,.79,2.13c.27.82.5,1.66.7,2.51a50.94,50.94,0,0,0-.94,7.54,25.45,25.45,0,0,0,.59,6.4L75,82.28a79.85,79.85,0,0,0-12.14-4.46L60.06,77,56.94,76c-1.42-.45-2.82-.92-4.19-1.46a12.53,12.53,0,0,1-3-2.11,6.12,6.12,0,0,1-1.15-1.55,4.07,4.07,0,0,1-.42-1.71,5.42,5.42,0,0,1,.41-2,10.5,10.5,0,0,1,1.44-2.45,19.11,19.11,0,0,0,1.48-2.26A27.77,27.77,0,0,1,54.89,59a8.33,8.33,0,0,1,2.31-1.54,3.79,3.79,0,0,1,.75-.21,2,2,0,0,1,1.51.31l.09.07.29.4c-.09-.14-.17-.29-.26-.42a2.06,2.06,0,0,0-1.66-.48,6.87,6.87,0,0,0-3.24,1.62,23.46,23.46,0,0,0-2.31,2,15.44,15.44,0,0,0,1.09-4,13.58,13.58,0,0,0,.09-2.21,15.19,15.19,0,0,0-.8-4.38A18.23,18.23,0,0,0,51,46.48c-.17-.27-.35-.54-.53-.8S50,45,49.7,44.62a2.09,2.09,0,0,0-.14-.17l-.24-.27,0,0-.06-.06.05.07c.09.11.18.22.26.34a14,14,0,0,1,.86,1.26,18.26,18.26,0,0,1,2,4.53,14.48,14.48,0,0,1,.35,6.37A15.93,15.93,0,0,1,49.13,64a12,12,0,0,0-1.58,2.34l0-.12a7.49,7.49,0,0,0-2-3.11,9.79,9.79,0,0,0-3-1.89,13.72,13.72,0,0,0-2-.64c-.51-.13-1-.23-1.56-.32A29.18,29.18,0,0,0,32.28,60s-.05,0-.07,0c-.73,0-1.46.13-2.18.22l-.07,0-.55.08h0l-.15,0v0l.17,0,.64-.06c.74-.06,1.49-.09,2.24-.11a29.16,29.16,0,0,1,6.61.59,15.78,15.78,0,0,1,3.34,1.11,8.87,8.87,0,0,1,2.66,1.87,6.43,6.43,0,0,1,1.56,2.77,9.37,9.37,0,0,1,.11,4,3,3,0,0,0,.23,1.66,4.43,4.43,0,0,0,1,1.38,12.42,12.42,0,0,0,3,2l.1.07A25.71,25.71,0,0,0,53.17,77a58.42,58.42,0,0,0,6.19,2.75c2.29.88,4.59,1.7,6.86,2.54s4.4,1.66,6.5,2.62a31.83,31.83,0,0,1,4.14,2.2,36.06,36.06,0,0,0,2.86,5.61,78.4,78.4,0,0,0,11.63,14c2.22,2.23,4.47,4.37,6.68,6.49-.88-.17-1.76-.34-2.62-.49-1.22-.22-2.42-.42-3.61-.62-2.52-.46-5-.91-7.27-1.53l-.18,0a37.27,37.27,0,0,1-3.2-2.08,47.48,47.48,0,0,1-7.41-6.78c-.08-.47-.14-.94-.18-1.42a18,18,0,0,0-.63-4,15.29,15.29,0,0,0-1.4-3.47A14,14,0,0,0,68.33,89a.71.71,0,0,1,0-.14v-.11c0-.2,0-.31.06-.35l-.29-.18a2.33,2.33,0,0,1-.31.32L67,88a17.91,17.91,0,0,0-3.37-1.73l.09-.07c-1.93-.86-3.86-1.68-5.79-2.51l-1.67-.73c-2-.91-4-1.91-5.87-3l-.78-.42-1.5-.86-.24-.14-.38-.23-.07,0s0,0,.06,0c.19.14.39.27.6.41.72.49,1.46,1,2.2,1.44,2.38,1.49,4.82,2.89,7.34,4.15l1.27.64a32.91,32.91,0,0,0-4-.42,46.38,46.38,0,0,0-5.78.08c-1.89.14-3.76.38-5.6.7-.77.13-1.53.27-2.28.43l-1.41.31-.67.17-.35.08-.18,0-.08,0,0,0h0l.27,0,1-.11c1.24-.1,2.48-.18,3.72-.21a52,52,0,0,1,11.05.75,29.35,29.35,0,0,1,5.62,1.6,16,16,0,0,1,4.47,2.66,11.77,11.77,0,0,1,1,1q1.18,2.46,2.35,5a15.36,15.36,0,0,1,.17,3.2c0,.2,0,.41,0,.61-1.41-.82-2.84-1.6-4.32-2.3A55.42,55.42,0,0,0,51.32,94.4c-.63,0-1.26,0-1.89,0-.44-.06-.88-.13-1.31-.23a5.43,5.43,0,0,1-1.86-.73,2.19,2.19,0,0,1-.85-1,1.94,1.94,0,0,1-.07-1.12,3.35,3.35,0,0,1,.32-.92,6,6,0,0,1,.74-1.11l.39-.44.21-.22.14-.13,0-.06-.2.17c-.22.2-.43.4-.64.62a5,5,0,0,0-1.23,2,2.29,2.29,0,0,0,0,1.27,2.54,2.54,0,0,0,.9,1.2,4.94,4.94,0,0,0,1.34.71c-.59,0-1.17.1-1.76.17A22.25,22.25,0,0,0,40,96a13.37,13.37,0,0,0-1.22.55,11.85,11.85,0,0,0-1.33.78l-.29.2-.31.24-.07.06-.07.06h0a1.49,1.49,0,0,0,.14-.12,6.82,6.82,0,0,1,.64-.39,13.71,13.71,0,0,1,2.6-1.15,26.4,26.4,0,0,1,11.08-.9,53.72,53.72,0,0,1,11.89,4.76l.49.28c1.64.91,3.21,1.93,4.78,3A15.59,15.59,0,0,0,70,108.44,16.14,16.14,0,0,0,71.71,111q-3.22-.39-6.45-.65a59.08,59.08,0,0,0-7.64-.19l-.51,0a14.84,14.84,0,0,0-3.71.61,3,3,0,0,0-1.68,1.11,1.2,1.2,0,0,0-.18.58,1.54,1.54,0,0,0,.08.57,3.05,3.05,0,0,0,.54.92l0,0a3.45,3.45,0,0,0,.26.28v0a.57.57,0,0,1,0,.13.75.75,0,0,0,0-.15c-.08-.09-.16-.2-.24-.31a2.89,2.89,0,0,1-.48-1,1.2,1.2,0,0,1,.16-1,2.78,2.78,0,0,1,1.61-.87,15.29,15.29,0,0,1,4.13-.33,61,61,0,0,1,7.48.7q4.36.64,8.68,1.52c.48.39,1,.75,1.48,1.09a31.19,31.19,0,0,0,7,3.41c2.62.93,5.23,1.63,7.76,2.28,5.25,1.35,10.29,2.39,14.67,4.26a21.24,21.24,0,0,1,5.22,3c.28.23.54.46.8.71l.3.33.12.15c.5.58,1,1.17,1.45,1.77.08.12.15.25.22.36l.26.53c.06.1.11.21.16.31s.06.12.08.18a1.66,1.66,0,0,1,.06.16l.15.4s0,0,0,.08c.12.37.24.77.35,1.2.07.26.13.54.2.82a47.69,47.69,0,0,1,.87,5.26c.55,3-.62,1.48-2.69.9a42.74,42.74,0,0,0-8.63-1.44c-9.34.42-13.06-1.1-21.55-4.76l-1-.42a45.86,45.86,0,0,1-5.79-3l-.24-.15c-.39-.67-.75-1.35-1.1-2-.78-1.57-1.52-3.16-2.24-4.77-.06-.12-.11-.25-.17-.37-.69-1.55-1.37-3.1-2-4.67l-.06-.15L69,117.06l0-.07c0-.11-.09-.23-.14-.35a0,0,0,0,1,0,0s0,0,0,0,.09.28.14.42c.17.51.33,1,.5,1.53.54,1.62,1.09,3.22,1.66,4.83s1.15,3.2,1.79,4.78c-.15-.13-.29-.28-.43-.42q-3.06-2.88-6.17-5.7L64,120c-1.16-1-2.33-2.08-3.5-3.12l-.94-.84-.92-.82c-.09-.08-.19-.15-.28-.24l-.24-.21-.08-.06a.2.2,0,0,1,.06.07l.48.5c.58.6,1.16,1.19,1.73,1.79,1.8,1.87,3.6,3.74,5.38,5.62,1.1,1.16,2.19,2.33,3.29,3.5l-.65-.13a26.54,26.54,0,0,0-3.54-.36l-1.39,0-4.4.16-1.54.06h-.52l6.44.28a30.86,30.86,0,0,1,4.76.74,9.26,9.26,0,0,1,1.75.62,2.18,2.18,0,0,1,.87.66A13.81,13.81,0,0,0,73,130.66c.17.19.35.38.52.58s.61.69.88,1c.11.14.22.3.32.44a14.45,14.45,0,0,0,3.72,3.45,35.64,35.64,0,0,0,4.84,2.73l-1.49.05c-1.86,0-3.72,0-5.55,0a62.8,62.8,0,0,1-8.43-.68,33,33,0,0,1-7.47-2,43.16,43.16,0,0,1-8.19-4.67c-1.48-1.06-2.9-2.2-4.29-3.4s-2.68-2.42-4-3.72a22.58,22.58,0,0,1-1.65-6.36,30.56,30.56,0,0,1,.08-7.15,39,39,0,0,1,.82-4.39c.21-.89.45-1.77.73-2.64.11-.36.23-.71.36-1.07s.19-.51.29-.77l.09-.27.09-.21a2.12,2.12,0,0,0-.11.21c-.16.33-.3.67-.44,1q-.77,1.8-1.35,3.66a33.66,33.66,0,0,0-1.63,11.73,24.27,24.27,0,0,0,.53,4c-1.3-1.42-2.54-2.88-3.76-4.39l-3-4.41-4.28-6.22-1.17-1.7-.3-.43s0-.08-.07-.12,0,0,0,0q3.44,7,6.93,14.11a82.34,82.34,0,0,0,8.81,12.24c.11.13.23.26.35.38a53.25,53.25,0,0,0,8.34,7.47c-1-.09-1.92-.17-2.87-.27-2.07-.2-4.11-.38-6.12-.7l-1.06-.17-1.84-.25c-5.78-.95-11.52-2-17.19-3.38-1.13-.27-2.28-.55-3.41-.86a34.13,34.13,0,0,1-5.74-2.06c-.36-.18-.73-.37-1.07-.58a6.37,6.37,0,0,1-.75-.53,2,2,0,0,1-.66-.89.06.06,0,0,0,0,0,.83.83,0,0,1,0-.58.17.17,0,0,1,0-.05s0,0,0,0a.87.87,0,0,0-.06.65,2.21,2.21,0,0,0,.63,1,8.14,8.14,0,0,0,1.77,1.23,46.27,46.27,0,0,0,9,3.52q3.31,1,6.68,1.91a26.91,26.91,0,0,0-5.45.68,11.51,11.51,0,0,0-4.51,2,6.51,6.51,0,0,0-1.58,1.81,6.33,6.33,0,0,0-.46,1,6.9,6.9,0,0,0-.3,3,11.22,11.22,0,0,0,.68,2.74,4.08,4.08,0,0,0,.17.42,13,13,0,0,0,.77,1.59l.1.19c.08.13.15.26.23.38l0,.06.06.09-.09-.16-.3-.59a14.83,14.83,0,0,1-.79-2,11,11,0,0,1-.49-2.71,6.53,6.53,0,0,1,.44-2.79,5.62,5.62,0,0,1,2-2.39,10.76,10.76,0,0,1,4.26-1.6,30.12,30.12,0,0,1,7.36-.24c1.74.12,3.47.32,5.2.59,2,.3,4,.67,5.94,1.08,1.72.36,3.43.62,5.13.86-1,.14-2,.31-3,.52a22.61,22.61,0,0,0-10.94,5.34c-.33.31-.64.63-.94,1a15,15,0,0,0-3.06,5.34l-.12.63L31,155.6l-.09.45.75-2.82a14.62,14.62,0,0,1,4.27-5.84A21.61,21.61,0,0,1,46.61,143a38.23,38.23,0,0,1,4.89-.4,55.68,55.68,0,0,1,9.28.57A39.74,39.74,0,0,0,66.36,145a61.78,61.78,0,0,0,9.38,1.61c6.4.65,12.7.64,18.76.81l.94,0h.15c3.94.43,7.86.91,11.74,1.52l1.19.21,3,.59a16.16,16.16,0,0,1,1.62.74c-.29,1.53-.49,3-.63,4.48a101.35,101.35,0,0,0-.31,14c.19,5.45.63,10.84,1.21,16.18.41,3.78.89,7.53,1.41,11.27q-.24,5.13-.51,10.26-.59,10.76-1.29,21.48c0,.35,0,.71-.07,1.07-.53.91-1.08,1.8-1.65,2.66a33.52,33.52,0,0,1-3.82,4.81c-.39.41-.8.82-1.21,1.2s-.92.83-1.39,1.21l-2.69.22-.58.06c-4,.38-7.81.91-11.59,1.25a18.25,18.25,0,0,0-12.67,5.89,20.16,20.16,0,0,0-2.82,3.86c-.49,1.44-1,2.87-1.42,4.3-.25.8-.49,1.6-.73,2.39-.06.21-.13.42-.19.63s0,.11,0,.16a.43.43,0,0,0,0,.05l0,0,.12-.13.47-.54,1.72-2,.77-.91a.57.57,0,0,0,0,.13,1.47,1.47,0,0,0,0,.21.11.11,0,0,0,0,.06h0s0,0,0,0l0-.06a1.8,1.8,0,0,0,.08-.21c.07-.16.12-.31.18-.47a3.45,3.45,0,0,1,.26-.28,5,5,0,0,1,2.36-1.34l.26-.08a32.81,32.81,0,0,1,6.46-1l2.47-.17c3.58-.18,7.17-.2,10.8-.31.27,0,.54,0,.81,0a22.81,22.81,0,0,0,8.47-2.34c.56-.28,1.11-.6,1.64-.93.76-.17,1.52-.34,2.27-.53a19,19,0,0,0-1.66,2.32c-.15.26-.3.52-.44.79a6,6,0,0,0-.75,4.35,3.78,3.78,0,0,0,.7,1.29,3.11,3.11,0,0,0,1.1.84,5.34,5.34,0,0,0,.52.18l.26.07.18,0,.08,0h.07a0,0,0,0,1,0,0l0,0-.06-.06-.12-.12-.19-.24a4.11,4.11,0,0,1-.24-.39,2.39,2.39,0,0,1-.34-1.09,1.7,1.7,0,0,1,.12-.69c.32-.85,1.2-1.1,1.92-1.53.26-.12.51-.23.77-.33,1.52-.59,3.13-.85,4.81-1.38l.37-.14a14.78,14.78,0,0,0,5.5-3.5,12.83,12.83,0,0,0,1.45-1.85,17.88,17.88,0,0,0,8.13,3.29c.56.09,1.11.18,1.66.24a36.12,36.12,0,0,0,6.65.07,94.68,94.68,0,0,0,13,3.15c.75.13,1.5.27,2.26.39q2.64.43,5.3.78l.64.09,1.55.18.16,0,.42.05h.2l0,0v0l-.09-.07,0,0-.36-.33-.09-.08-1.32-1.14c-.14-.11-.28-.22-.41-.34-1.48-1.23-3-2.43-4.53-3.58l-1.7-1.25c-1.56-1.12-3.15-2.18-4.79-3.17,1.9.3,3.79.59,5.67.9,4.21.7,8.39,1.48,12.54,2.53,1,.26,2,.55,3.08.84a54.18,54.18,0,0,1,6.5,2.23l1.3.59c.48.23,1,.48,1.43.75l.38.21.34.22.11.07.08.06,0,0,0,0a0,0,0,0,1,0,0l-.08-.12-.32-.42a20.93,20.93,0,0,0-1.39-1.58,46.21,46.21,0,0,0-6.67-5.58l-1-.71a69,69,0,0,0-12.2-6.22,78.26,78.26,0,0,0-13.21-3.84c-2.35-.46-4.71-.81-7.07-1.1q-.75-3.48-1.36-7c-.14-.82-.27-1.63-.4-2.45-.63-4-1.1-8-1.37-11.92-.1-1.39-.17-2.77-.22-4.15a80.19,80.19,0,0,1,.33-10.56c.15-1.63.29-3.27.39-4.91.35-5.38.42-10.78.41-16.15q0-7.12-.24-14.23c0-.74-.06-1.46-.08-2.2q-.21-6-.52-11.89a17.71,17.71,0,0,1,1.44-1.75l.91-.93a17,17,0,0,1,1.38-1.22,11,11,0,0,1,3-1.64l.35-.14c1.27-.35,2.53-.74,3.79-1.15l3.16-.18,5.76-.26,6.52.92,6.6.94,9.4,1.37,2.11.31,2.81.42.58.08.76.11.15,0,.2,0h.09v.06s0,0,0-.07l-.1,0L187,144l-1.31-.38-4.78-1.36q-3.45-1-6.91-1.92l-4.14-1.06c1.68-.12,3.35-.27,5-.45a76.4,76.4,0,0,0,10.27-1.71c1-.25,2.09-.54,3.13-.88.45.09.88.19,1.32.3l1.29.32a23.56,23.56,0,0,1,6.36,2.64q2.05,1.29,4.12,2.54c1.34.82,2.69,1.62,4,2.42l.27.15.93.54.22.13.09.08.07.06v0l-.13-.15-1-.85-3.12-2.6c-1.5-1.21-3-2.42-4.55-3.6a19.26,19.26,0,0,0-6-3l-.68-.19c.63-.27,1.24-.57,1.84-.9l.44-.24q5.83-3.36,11.61-6.75a38.32,38.32,0,0,1,6.2-1.78,18.71,18.71,0,0,1,3.17-.31,33.31,33.31,0,0,1,4.68.27c.39.06.78.12,1.16.2s.77.15,1.14.25l.33.09.29.09.08,0,.08,0s0,0-.07,0l-.36-.16c-.47-.18-1-.33-1.44-.48a29.63,29.63,0,0,0-5.85-1c-.57,0-1.14,0-1.71,0a23.61,23.61,0,0,0-3.35.33l4.72-2.79,1.91-1.12,6.74-4c.61-.36,1.21-.71,1.81-1.08l.47-.28.12-.08-11.85,5-.94.4c.26-.3.52-.59.77-.89a76.29,76.29,0,0,0,4.75-6.48c.37-.55.73-1.1,1.09-1.66.94-1.43,1.84-2.88,2.73-4.34.12-.21.24-.42.37-.62l.77-1.31.1-.18.21-.35,0,0a.47.47,0,0,0,.06-.09h0l-.1.12-.38.49L221.71,107c-.82,1-1.65,2-2.48,3.06l-2,2.44c-1.69,2-3.38,4.06-5.15,6-.75.81-1.48,1.61-2.27,2.34l-.56.52a7.51,7.51,0,0,1-1.18.86c-.77.44-1.55.86-2.33,1.3l-9.63,4.05c0-.07,0-.13,0-.2a8.13,8.13,0,0,0,.15-.86,6.71,6.71,0,0,0-4-7.09c-.86-.4-1.71-.81-2.57-1.2-1.07-.48-2.15-.93-3.25-1.32h0c-.3-.1-.6-.2-.9-.27l-.07,0a1,1,0,0,0-.17,0l.17,0a7.15,7.15,0,0,1,1,.37,58.43,58.43,0,0,1,5.63,2.87,6.41,6.41,0,0,1,2.82,2.94,5.66,5.66,0,0,1,.49,2.11,6.49,6.49,0,0,1-.1,1.46,7.77,7.77,0,0,1-.5,1.77l-3.25,1.4a29.68,29.68,0,0,1-7.5,1.91,78.74,78.74,0,0,1-9.57.63c-8.56-2.05-28.74,3.4-21.36-1.28,1.08-.68,2.16-1.36,3.22-2.05,4-2.59,7.84-5.27,11.72-7.9,1.38-.93,2.75-1.86,4.13-2.77,2.29-1.29,4.57-2.58,6.84-3.9l.69-.41c-.18.17-.34.35-.52.52.33-.18.66-.36,1-.53.69-.35,1.4-.69,2.12-1a63.56,63.56,0,0,1,9.53-3.2,49.71,49.71,0,0,1,5.63,1.39c2,.61,4,1.3,6,2l.75.27c1.3.49,2.59,1,3.88,1.5l.34.15,1,.42.1,0c.09,0,.18.09.27.12l0,0,.07,0-.09,0-.35-.19-1.3-.7q-2.19-1.16-4.44-2.24c-1.91-.93-3.86-1.82-5.84-2.63q-1.27-.52-2.58-1c.52-.11,1-.23,1.55-.33q3.75-.74,7.56-1.2c1.66-.2,3.32-.37,5-.5l2.57-.13,2.05-.11.54,0h.13l-5.28-.5c-.86-.06-1.73-.1-2.6-.14a22.94,22.94,0,0,0,9.69-5.22A12.37,12.37,0,0,0,218,98.81c.36-.84.72-1.69,1.08-2.52l.51-1.21.15-.31,0-.08-2.11,3.9c-2.87,3.28-7.21,4.81-11.48,5.66l-2.36.4-5.86,1-1.38.06a74.2,74.2,0,0,0-12.82,1.73c-4.81,1.58-12.64,7-7.29-5a42.17,42.17,0,0,1,3.77-7.78l.38-.66A63.89,63.89,0,0,1,186.3,86c.83-.62,1.69-1.21,2.57-1.79,1.1-.74,2.22-1.45,3.34-2.16a22.22,22.22,0,0,1,2.2-.92,19.57,19.57,0,0,1,4.85-1.07,18.76,18.76,0,0,1,3.67,0,19.38,19.38,0,0,1,5,1.24c.32.13.64.26.95.41l1.42.79.62.35.16.08L209,81.55a19.2,19.2,0,0,0-5.95-2.2,16.67,16.67,0,0,0-2-.26,19.58,19.58,0,0,0-4.26.14c2.11-1.28,4.25-2.54,6.38-3.79l.06,0,2.13-1.25h0l.58-.33v0l.15-.08-.16.07-.64.3L203,75.15c-2,.95-4,1.92-6.05,2.92l-1.14.57-3,1.57a22.37,22.37,0,0,0-2.32,1c.17-.19.33-.38.5-.56,2.41-2.57,4.94-5.06,7.56-7.44,1.16-1,2.33-2.08,3.53-3.09l2.77-2.25,1.74-1.4.44-.36.12-.1c-1.85,1.13-3.72,2.24-5.59,3.38A130,130,0,0,0,189,78.52q-2.5,2.07-4.91,4.32c.46-1.22.9-2.45,1.36-3.67L188,72.45l1.23-3.32c.12-.3.22-.61.33-.9l.07-.21-4.85,10.86c-.32.74-.65,1.49-1,2.23l-1.53,3.54c-.68.69-1.35,1.4-2,2.12A59.33,59.33,0,0,0,176,92a40.13,40.13,0,0,0-4.42,7.77c-.06-.13-.11-.27-.17-.4a32.7,32.7,0,0,0-1.51-3l-.19-.35c-.15-.26-.31-.52-.47-.77l-.06-.09-.12-.2h0l.14.33c.18.38.36.78.52,1.17a33.84,33.84,0,0,1,1.37,4c0,.12,0,.23.08.35a25.65,25.65,0,0,0-1.73,8.24,9.2,9.2,0,0,1-1.63,4.8,15.73,15.73,0,0,1-4.31,4,42.41,42.41,0,0,1-6.92,3.57c-.78.34-1.58.65-2.38,1a25.44,25.44,0,0,0,3.21-4.21c.2-.34.38-.7.56-1.05a11.38,11.38,0,0,0,.79-2.06,6.84,6.84,0,0,0,.19-2.92,8.11,8.11,0,0,1,.72-4.52,17.49,17.49,0,0,1,2.72-4.17l0-.06a30.19,30.19,0,0,1,2.91-3l.17-.14c.27-.24.55-.49.84-.72l.06-.05.21-.18h0l.06,0-.09,0-.31.2c-.37.24-.73.49-1.09.75a28.81,28.81,0,0,0-3.3,2.75,18.21,18.21,0,0,0-3.27,4.09,10.92,10.92,0,0,0-.76,1.62c-.1-.55-.19-1.1-.29-1.65,0-.17-.07-.33-.1-.5l-.09-.56a2.07,2.07,0,0,1,0-.22v-.06a.13.13,0,0,1,0-.06h0s0,.08,0,.12c0,.26,0,.53,0,.79l.21,3.1a8.53,8.53,0,0,0-.27,2.64,4.2,4.2,0,0,1-.14,1.4,6.82,6.82,0,0,1-.23.77,10.59,10.59,0,0,1-1.37,2.5,29.11,29.11,0,0,1-5.6,5.66c-1,.83-2.06,1.62-3.13,2.39-3.09,1.06-6.25,2.13-9.45,3.35-6.22,1.49-6.42,4.4-7.56-.35a1.41,1.41,0,0,0-.06-.22h0l-.12-.54s0,0,0,0,0-.19,0-.28,0-.13,0-.19a.69.69,0,0,1,0-.13c0-.23-.07-.45-.1-.68s-.08-.63-.11-.94c0,0,0-.08,0-.12v0c0-.52-.07-1-.07-1.57v-.05c0-.27,0-.55,0-.82v0c0-.28,0-.56,0-.83a32.65,32.65,0,0,1,.91-5.89l.19-.76,0-.09a19.16,19.16,0,0,1,1.91-3.28,9.73,9.73,0,0,1,3.33-3c2.23-1.14,4.42-2.38,6.52-3.73a124.92,124.92,0,0,0,21.9-14.87c1.47-1.28,2.89-2.62,4.24-4a51.88,51.88,0,0,0,4.49-5.33,36.85,36.85,0,0,0,5.18-9.8c.24-.7.45-1.39.65-2.09.13-.26.26-.52.41-.77a8.85,8.85,0,0,1,1.76-2.23,6,6,0,0,1,3.41-1.52,6.12,6.12,0,0,1,1.21,0,7.31,7.31,0,0,1,1.61.33l.48.21.52.21-1-.49a7.15,7.15,0,0,0-2.87-.5,6.35,6.35,0,0,0-3.69,1.4,9.34,9.34,0,0,0-1.36,1.38,52.81,52.81,0,0,0,1-5.57c.19-1.49.32-3,.4-4.47.07-1.23.1-2.44.09-3.66,0-.38,0-.75,0-1.12s0-.72,0-1.08l0-.28a2.62,2.62,0,0,0,0-.28v-.08s0,0,0-.07v.43c0,.45,0,.91,0,1.36-.06,1.59-.19,3.17-.36,4.75A52.42,52.42,0,0,1,177,70.35a35.94,35.94,0,0,1-5.47,9.16c-.27.33-.55.65-.83,1a58.53,58.53,0,0,1-8,7.64c-1.75,1.41-3.55,2.74-5.39,4a59.92,59.92,0,0,0,6.5-8.54A33.91,33.91,0,0,0,169,70.11a17,17,0,0,0-.21-6,21.92,21.92,0,0,1,2.41-4.47c.27-.38.55-.75.86-1.11a10.38,10.38,0,0,1,1.26-1.22l.28-.22.39-.25.08,0,.1-.06-.19.09a5,5,0,0,0-.69.43A11.58,11.58,0,0,0,171,59.5a22,22,0,0,0-2.43,3.81,12.16,12.16,0,0,0-2.26-4.26,5.4,5.4,0,0,1-1-1.88,6.11,6.11,0,0,1-.25-1.44,6.77,6.77,0,0,1,0-.78,14.18,14.18,0,0,1,1.58-5.43,39,39,0,0,1,3.87-6.16,79,79,0,0,1,5.22-6.23q3.12-3.39,6.48-6.55c1.42-1.34,2.88-2.66,4.35-4,.87-.76,1.74-1.52,2.62-2.27l1.16-1,.78-.63.29-.26.22-.16.07-.06h.09l-.09,0-.3.23-1.12.83c-1.33,1-2.64,2-3.93,3.05a142.31,142.31,0,0,0-11.39,10,80.52,80.52,0,0,0-5.59,6.08,39.42,39.42,0,0,0-4.31,6.23l-.27.49a19.28,19.28,0,0,0-1.21,2.92,20.64,20.64,0,0,1,0-2.36,36.7,36.7,0,0,1,2.75-11.14c.32-.81.65-1.61,1-2.4a74.11,74.11,0,0,1,3.44-6.84l.64-1.09c.34-.58.67-1.15,1-1.72l.22-.33.27-.44.06-.09-.07.08-.53.75c-.63.89-1.24,1.8-1.82,2.72a72.77,72.77,0,0,0-4.94,9.06,37.39,37.39,0,0,0-3.37,11.33,18,18,0,0,0,.21,5.61,13.29,13.29,0,0,0,.85,2.66,7.8,7.8,0,0,0,1.28,2.52,10,10,0,0,1,1.86,4.18,13,13,0,0,1,.18,3.58c-.47,1.48-.86,3-1.2,4.48a31.63,31.63,0,0,1-1,3.57,43.81,43.81,0,0,1-3.21,5.69c-.35.51-.69,1-1,1.52A11.27,11.27,0,0,0,160,81a17,17,0,0,0-4.16-8.31c-.53-.62-1.06-1.25-1.61-1.85a22,22,0,0,0-3.64-3.32,5.39,5.39,0,0,0-1.57-.83,2.09,2.09,0,0,0-.69-.12,1,1,0,0,0-.3,0,1.1,1.1,0,0,0-.56.39,1.81,1.81,0,0,0-.27.6l0,.16c0,.17,0,.34-.06.5,0-.22.09-.43.14-.65a1.55,1.55,0,0,1,.3-.55,1,1,0,0,1,.51-.31,1.67,1.67,0,0,1,.89.13,5.73,5.73,0,0,1,1.44.89,28.76,28.76,0,0,1,4.85,5.39,16,16,0,0,1,3.45,8A11.37,11.37,0,0,1,158,86.3a67.68,67.68,0,0,1-8.09,8.24A75.73,75.73,0,0,1,134,105.1c-.25.13-.48.27-.72.41q.76-2.3,1.5-4.66c.19-.59.38-1.17.56-1.77.35-1.2.7-2.4,1-3.63.42-1.58.79-3.2,1.1-4.83a1.55,1.55,0,0,1,0-.21c.1-.56.21-1.13.3-1.7a49.85,49.85,0,0,0,.61-9.32c0-.78-.06-1.55-.08-2.32,0-1.59,0-3.22,0-4.85a16.44,16.44,0,0,1,1.57-4.35,27.81,27.81,0,0,1,2.83-4.19c.56-.72,1.16-1.43,1.75-2.16s1.25-1.53,1.86-2.33a41.59,41.59,0,0,0,3.39-5c.49-.6,1-1.2,1.5-1.77l.3-.31a6.36,6.36,0,0,1,1.85-1.52,2.3,2.3,0,0,1,1.78-.06A7.84,7.84,0,0,1,158.73,53l0,0a7.08,7.08,0,0,1,.72,1.16.06.06,0,0,0,0,0,3.31,3.31,0,0,1,.15.33s0,0,0,0a.69.69,0,0,1,0,.1h0v-.11a3,3,0,0,0-.05-.42,7.25,7.25,0,0,0-.34-1.43A8.67,8.67,0,0,0,157,49.34a8.9,8.9,0,0,0-.83-.66,4.7,4.7,0,0,0-3.48-.76,2.8,2.8,0,0,0-.31.09q.28-.9.51-1.8a47.09,47.09,0,0,0,1.42-10q0-1,.06-1.92a80.17,80.17,0,0,0-.37-8.51c-.07-.76-.15-1.51-.24-2.27,0-.19-.05-.39-.07-.59s0-.1,0-.15,0,0,0,0A83.81,83.81,0,0,1,152.59,36c-.15.88-.32,1.76-.52,2.64-.11-.24-.23-.47-.36-.7a18.74,18.74,0,0,0-3.07-4c-.51-.52-1-1-1.61-1.51l-.43-.37-.11-.1a21.84,21.84,0,0,1,4.24,6.45,10.69,10.69,0,0,1,.68,2.84,38.52,38.52,0,0,1-1.35,4,31.82,31.82,0,0,1-3.13,5.92l-1.06,1.16c-1.82,2-3.76,3.92-5.64,6-.6.7-1.2,1.41-1.79,2.14,0-.94,0-1.87,0-2.81,0-2.75-.1-5.49-.24-8.24-.07-1.46-.17-2.93-.29-4.38,0-.69,0-1.39,0-2.08.15-1.1.31-2.21.47-3.31.11-.78.22-1.56.35-2.34a41.3,41.3,0,0,1,1.92-8.27,0,0,0,0,1,0,0c.77-1.3,1.63-2.57,2.48-3.83a5.91,5.91,0,0,1,.61-.41l3.72-2,1.25-.67L149,22l.42-.22h0l.12-.05h0l-.13,0c-.26.08-.5.18-.76.27-1.52.56-3,1.15-4.54,1.74l.75-1.11a29.64,29.64,0,0,0,2.33-3.87,5.81,5.81,0,0,0,.73-3.2s0-.05,0-.07a4.16,4.16,0,0,0-.91-2.09,4.37,4.37,0,0,0-1.54-1.12l-.43-.16a6,6,0,0,0-1-.26l-.2,0-.25,0,.45.09a6,6,0,0,1,1.39.49,4.13,4.13,0,0,1,1.43,1.15,3.89,3.89,0,0,1,.77,2.07,5.59,5.59,0,0,1-.84,2.95,30.24,30.24,0,0,1-2.46,3.68c-.53.72-1.08,1.43-1.62,2.15a6.6,6.6,0,0,0-1.57,1.31,12,12,0,0,0-1.8,2.81,21.68,21.68,0,0,0-1,2.34c-.14.24-.27.48-.4.73a2.06,2.06,0,0,1-.12.26c0-4.26-.06-8.52-.08-12.77,0-1.23,0-2.46,0-3.69l0-5.2c0-.8,0-1.6,0-2.4V7s0,0,0,0ZM63.74,86.18c1.12.49,2.23,1,3.34,1.51.28.13.56.26.84.41l.17.08a2.14,2.14,0,0,0,.13-.19l-.13,0c-.35-.13-.7-.29-1.08-.45l-1.48-.65-1.28-.58-.41-.18-.1.09ZM173.1,25.53h0a.67.67,0,0,1,.12.06l-.12-.07Zm-13.56,29.2,0,0h0v0Zm-12.6,13.68.07,0a.48.48,0,0,1,.12,0ZM169,94.84l0,0,0,0ZM222.53,126s0,0,0,.06,0,0,0-.06Zm-81.64,7.68c-.78.41-1.56.8-2.35,1.17l.56-.35,1.79-.82Zm-16.14,21.6a.15.15,0,0,1,0,.07l0,.05s0-.08,0-.12Zm9,4.48-.21,1a2.38,2.38,0,0,1,0,.26c0-.08,0-.16,0-.23s0-.12,0-.18c.09-.29.17-.58.26-.87Zm-13.47,4.55s0,.06,0,.09c-.27,1.13-.51,2.27-.73,3.42-.27,1.58-.53,3.16-.79,4.75.4-1.56.8-3.12,1.21-4.67l.12-.42v.12l-.1.31-1.23,4.66c.25-1.59.5-3.18.76-4.77.22-1.09.45-2.19.7-3.28,0-.07.05-.14.07-.21Zm18.17,67.56c.07.15.14.3.22.45l-.28,0h-.14l.06-.12C138.39,232.1,138.43,232,138.48,231.9Z"/><path class="cls-2" d="M73.35,42.18s-1.2,8.21-.27,10.57c1.1,2.82,6.33,4.55,6.33,4.55s2.63-5.16.06-8.57a52.92,52.92,0,0,0-6.12-6.55Z"/><path class="cls-3" d="M79,57.5l.73-.28-5.6-12.29Z"/><path class="cls-3" d="M78.1,54.69l.09-.17L74.4,53Z"/><path class="cls-3" d="M77.88,53.79l.18.07a33.59,33.59,0,0,1,1.08-3.21.92.92,0,0,0-.09.23l.09-.23Z"/><path class="cls-3" d="M76.9,51.58,77,51.4l-2.57-.81Z"/><path class="cls-3" d="M76.14,49.79l.18.06.54-2.31Z"/><path class="cls-4" d="M80.7,35.15s-3,7.74-2.58,10.25c.47,3,5.2,5.82,5.2,5.82s3.68-4.46,1.92-8.35a52.07,52.07,0,0,0-4.54-7.72Z"/><path class="cls-5" d="M82.82,51.31l.77-.11L80.8,38Z"/><path class="cls-5" d="M82.61,48.39l.11-.15-3.36-2.32Z"/><path class="cls-5" d="M82.59,47.47l.16.1a31,31,0,0,1,1.75-2.9,1.1,1.1,0,0,0-.14.21l.14-.21Z"/><path class="cls-5" d="M82.11,45.09l.11-.16-2.33-1.35Z"/><path class="cls-5" d="M81.76,43.18l.16.09,1-2.13Z"/><path class="cls-4" d="M67.5,68.61s-1,7.09-.24,9.14c.95,2.44,5.48,3.93,5.48,3.93s2.27-4.46.05-7.41a45.45,45.45,0,0,0-5.29-5.66Z"/><path class="cls-5" d="M72.29,81.88,73,81.6,68.07,71Z"/><path class="cls-5" d="M71.6,79.44l.08-.18L68.4,78Z"/><path class="cls-5" d="M71.4,78.65l.18.06a25.14,25.14,0,0,1,.92-2.78,1.72,1.72,0,0,0-.07.21l.07-.21Z"/><path class="cls-5" d="M70.56,76.75l.07-.18-2.23-.68Z"/><path class="cls-5" d="M69.89,75.18l.19.06.44-2Z"/><path class="cls-6" d="M72.05,53.89s-3,7.75-2.58,10.26c.47,3,5.19,5.82,5.19,5.82s3.69-4.47,1.93-8.35a53.47,53.47,0,0,0-4.54-7.73Z"/><path class="cls-7" d="M74.17,70.06l.77-.12L72.15,56.73Z"/><path class="cls-7" d="M74,67.14l.12-.15-3.36-2.32Z"/><path class="cls-7" d="M73.93,66.21l.17.11a32.5,32.5,0,0,1,1.75-2.91l-.14.21.13-.2Z"/><path class="cls-7" d="M73.45,63.84l.11-.16-2.33-1.36Z"/><path class="cls-7" d="M73.11,61.92l.16.1,1-2.14Z"/><path class="cls-4" d="M128,73.68s-5.24,5.16-5.85,7.33c-.73,2.59,2,6.61,2,6.61s4.62-2.25,4.62-6a46.21,46.21,0,0,0-.82-7.91Z"/><path class="cls-8" d="M123.74,87.5l.74.21L127,76Z"/><path class="cls-8" d="M125,84.31l.1.16a24.79,24.79,0,0,1,2.47-1.71l-.18.13.18-.13Z"/><path class="cls-8" d="M125.48,82.23l.16-.1-1.4-1.94Z"/><path class="cls-8" d="M125.91,80.54l.11.16,1.6-1.37Z"/><path class="cls-4" d="M61.55,55.33s-8.13,1.63-10,3.3c-2.28,2-2.15,7.5-2.15,7.5s5.75.73,8.09-2.83a52.37,52.37,0,0,0,4.1-8Z"/><path class="cls-5" d="M49,65.76l.51.59,9.68-9.41Z"/><path class="cls-5" d="M51.37,64h.2L51.73,60Z"/><path class="cls-5" d="M52.15,63.51v.19a32.18,32.18,0,0,1,3.39-.07h0Z"/><path class="cls-5" d="M53.9,61.83h.19L54,59.15Z"/><path class="cls-5" d="M55.33,60.51v.2l2.35-.28Z"/><path class="cls-2" d="M61.4,57.18s-2.21,8-1.59,10.45c.75,2.93,5.72,5.3,5.72,5.3s3.25-4.79,1.13-8.49a52.6,52.6,0,0,0-5.26-7.26Z"/><path class="cls-3" d="M65.05,73.07l.76-.19L61.78,60Z"/><path class="cls-3" d="M64.56,70.18l.1-.17L61.1,68Z"/><path class="cls-3" d="M64.45,69.26l.17.09a30.81,30.81,0,0,1,1.47-3.06,1.55,1.55,0,0,0-.12.22l.11-.22Z"/><path class="cls-3" d="M63.75,66.94l.09-.17-2.45-1.13Z"/><path class="cls-3" d="M63.22,65.07l.17.08.82-2.23Z"/><path class="cls-6" d="M105.05,54.65s-3.3,7.61-3,10.14c.33,3,4.93,6,4.93,6s3.88-4.3,2.29-8.26A53.69,53.69,0,0,0,105.05,54.65Z"/><path class="cls-7" d="M106.46,70.8l.77-.08L105,57.4Z"/><path class="cls-7" d="M106.37,67.88l.13-.15-3.25-2.46Z"/><path class="cls-7" d="M106.39,67l.16.11a33.07,33.07,0,0,1,1.88-2.83,1.37,1.37,0,0,0-.15.21l.14-.21Z"/><path class="cls-7" d="M106,64.55l.11-.15L103.87,63Z"/><path class="cls-7" d="M105.75,62.63l.17.1L107,60.64Z"/><path class="cls-6" d="M103.08,53.94s6.9,4.59,9.44,4.76c3,.21,6.82-3.79,6.82-3.79s-3.55-4.57-7.72-3.71A52.34,52.34,0,0,0,103.08,53.94Z"/><path class="cls-7" d="M119.32,55.41l.05-.77-13.49-.18Z"/><path class="cls-7" d="M116.42,55l-.12-.15-3,2.77Z"/><path class="cls-7" d="M115.51,54.8l.14-.13a32.1,32.1,0,0,1-2.45-2.35,1,1,0,0,0,.17.18l-.17-.17Z"/><path class="cls-7" d="M113.09,54.75l-.14-.14-1.83,2Z"/><path class="cls-7" d="M111.14,54.67l.14-.14-1.86-1.47Z"/><path class="cls-4" d="M108.07,72.29s7.53-3.48,9-5.55c1.76-2.46.34-7.79.34-7.79s-5.75.63-7.2,4.64a52.05,52.05,0,0,0-2.14,8.7Z"/><path class="cls-5" d="M117.83,59.23l-.63-.45L110,70.18Z"/><path class="cls-5" d="M116,61.47l-.19,0,.79,4Z"/><path class="cls-5" d="M115.31,62.15l0-.19a32.4,32.4,0,0,1-3.28.87l.25-.06-.24.06Z"/><path class="cls-5" d="M114,64.19l-.19,0,.73,2.59Z"/><path class="cls-5" d="M112.91,65.8l0-.19-2.22.82Z"/><path class="cls-4" d="M107.11,80s-5.26-6.41-7.63-7.31c-2.83-1.08-7.63,1.62-7.63,1.62s2.05,5.42,6.3,5.81a52.44,52.44,0,0,0,9-.12Z"/><path class="cls-5" d="M92,73.88l-.28.72,12.85,4.13Z"/><path class="cls-5" d="M94.66,75.14l.08.18,3.67-1.77Z"/><path class="cls-5" d="M95.48,75.58l-.17.09a31.92,31.92,0,0,1,1.65,3c0-.07-.07-.14-.11-.22l.11.22Z"/><path class="cls-5" d="M97.78,76.34l.09.17,2.32-1.35Z"/><path class="cls-5" d="M99.61,77l-.17.1,1.35,2Z"/><path class="cls-2" d="M117.89,75.59s-6.24-5.47-8.73-6c-3-.6-7.26,2.85-7.26,2.85s2.92,5,7.17,4.7a52.77,52.77,0,0,0,8.82-1.58Z"/><path class="cls-3" d="M102,72l-.16.76,13.36,2Z"/><path class="cls-3" d="M104.8,72.79l.11.16,3.33-2.34Z"/><path class="cls-3" d="M105.68,73.09l-.15.12a33.1,33.1,0,0,1,2.12,2.64l-.15-.2.15.2Z"/><path class="cls-3" d="M108.08,73.47l.11.15,2.07-1.71Z"/><path class="cls-3" d="M110,73.8l-.15.12,1.65,1.7Z"/><path class="cls-6" d="M86.08,47s-1.26,8.19-.35,10.57c1.08,2.82,6.3,4.59,6.3,4.59s2.66-5.15.12-8.57A52.23,52.23,0,0,0,86.08,47Z"/><path class="cls-7" d="M91.57,62.33l.73-.28L86.78,49.73Z"/><path class="cls-7" d="M90.74,59.52l.08-.18-3.77-1.55Z"/><path class="cls-7" d="M90.52,58.62l.19.06a30.87,30.87,0,0,1,1.09-3.2l-.09.23.09-.23Z"/><path class="cls-7" d="M89.56,56.4l.07-.18-2.56-.83Z"/><path class="cls-7" d="M88.81,54.6l.19.06.54-2.31Z"/><path class="cls-4" d="M98.56,54.05s-5.94,5.78-6.65,8.23c-.84,2.91,2.26,7.46,2.26,7.46s5.23-2.5,5.26-6.76a51.79,51.79,0,0,0-.87-8.93Z"/><path class="cls-5" d="M93.69,69.61l.75.22,3-13.16Z"/><path class="cls-5" d="M94.72,66.87l.17-.09-2.07-3.51Z"/><path class="cls-5" d="M95.09,66l.11.17a33.65,33.65,0,0,1,2.8-1.9l-.21.13.21-.13Z"/><path class="cls-5" d="M95.66,63.67l.16-.1-1.54-2.21Z"/><path class="cls-5" d="M96.15,61.78l.11.16,1.82-1.51Z"/><path class="cls-6" d="M96.54,37.8S92.33,45,92.3,47.49c0,3,4.16,6.6,4.16,6.6s4.37-3.79,3.28-7.91a53.14,53.14,0,0,0-3.2-8.38Z"/><path class="cls-7" d="M96,54.1h.77l-.56-13.49Z"/><path class="cls-7" d="M96.23,51.18l.14-.13-2.93-2.84Z"/><path class="cls-7" d="M96.36,50.26l.14.14a32.46,32.46,0,0,1,2.2-2.58l-.17.18.17-.18Z"/><path class="cls-7" d="M96.28,47.85l.13-.14L94.34,46Z"/><path class="cls-7" d="M96.25,45.9l.15.12,1.37-1.94Z"/><path class="cls-2" d="M108.2,41.38s-6.6,5-7.6,7.35c-1.18,2.78,1.34,7.68,1.34,7.68s5.49-1.84,6-6.07a52.58,52.58,0,0,0,.22-9Z"/><path class="cls-3" d="M101.48,56.23l.71.3,4.6-12.69Z"/><path class="cls-3" d="M102.83,53.63l.19-.07-1.63-3.74Z"/><path class="cls-3" d="M103.31,52.83l.08.18a31.8,31.8,0,0,1,3-1.54l-.23.1.22-.1Z"/><path class="cls-3" d="M104.15,50.56l.18-.07-1.27-2.38Z"/><path class="cls-3" d="M104.87,48.76l.09.17,2-1.28Z"/><path class="cls-6" d="M118.86,64.63s-3.33,7.6-3.06,10.13c.32,3,4.91,6.06,4.91,6.06s3.9-4.29,2.32-8.25a53.08,53.08,0,0,0-4.17-7.94Z"/><path class="cls-7" d="M120.22,80.88l.77-.07-2.16-13.33Z"/><path class="cls-7" d="M120.14,78l.12-.15L117,75.33Z"/><path class="cls-7" d="M120.16,77l.16.11c.59-1,1.21-1.92,1.88-2.82,0,.07-.1.14-.14.21l.14-.2Z"/><path class="cls-7" d="M119.8,74.63l.11-.15L117.65,73Z"/><path class="cls-7" d="M119.54,72.71l.16.1,1.13-2.09Z"/><path class="cls-6" d="M139.4,11.56s-3,7.74-2.58,10.25c.47,3,5.19,5.82,5.19,5.82s3.69-4.46,1.93-8.35a52.65,52.65,0,0,0-4.55-7.72Z"/><path class="cls-7" d="M141.52,27.72l.77-.11L139.5,14.4Z"/><path class="cls-7" d="M141.3,24.8l.12-.15-3.36-2.32Z"/><path class="cls-7" d="M141.28,23.88l.16.1a33.27,33.27,0,0,1,1.75-2.9,1.91,1.91,0,0,0-.14.21l.14-.21Z"/><path class="cls-7" d="M140.8,21.5l.11-.16L138.58,20Z"/><path class="cls-7" d="M140.45,19.59l.17.09,1-2.13Z"/><path class="cls-4" d="M150,5.42s-5.91,5.82-6.6,8.27c-.82,2.91,2.31,7.45,2.31,7.45S151,18.6,151,14.34A53,53,0,0,0,150,5.42Z"/><path class="cls-5" d="M145.27,21l.75.21L149,8.05Z"/><path class="cls-5" d="M146.28,18.27l.17-.1-2.09-3.5Z"/><path class="cls-5" d="M146.65,17.42l.1.16a30.22,30.22,0,0,1,2.8-1.92l-.21.13.21-.13Z"/><path class="cls-5" d="M147.2,15.06l.16-.11-1.56-2.19Z"/><path class="cls-5" d="M147.67,13.17l.12.16,1.81-1.52Z"/><path class="cls-6" d="M102.22,233.82s-3,7.75-2.58,10.26c.47,3,5.2,5.82,5.2,5.82s3.68-4.47,1.92-8.35a52.46,52.46,0,0,0-4.54-7.73Z"/><path class="cls-7" d="M104.34,250l.77-.11-2.79-13.21Z"/><path class="cls-7" d="M104.12,247.07l.12-.15-3.36-2.32Z"/><path class="cls-7" d="M104.11,246.14l.16.11a32.5,32.5,0,0,1,1.75-2.91c0,.07-.1.14-.14.21l.13-.2Z"/><path class="cls-7" d="M103.63,243.77l.1-.16-2.33-1.35Z"/><path class="cls-7" d="M103.28,241.86l.16.1,1-2.14Z"/><path class="cls-2" d="M186.7,50.09s-5.23,5.16-5.84,7.33c-.73,2.59,2,6.61,2,6.61s4.62-2.25,4.62-6a46.83,46.83,0,0,0-.83-7.91Z"/><path class="cls-3" d="M182.43,63.91l.75.21,2.52-11.71Z"/><path class="cls-3" d="M183.36,61.49l.17-.1-1.87-3.09Z"/><path class="cls-3" d="M183.69,60.72l.11.16a27.2,27.2,0,0,1,2.47-1.71l-.19.13.19-.13Z"/><path class="cls-3" d="M184.18,58.64l.16-.1-1.4-1.94Z"/><path class="cls-3" d="M184.6,57l.11.16,1.6-1.37Z"/><path class="cls-6" d="M104.49,13.13s.91,8.24,2.41,10.29c1.78,2.45,7.28,2.79,7.28,2.79s1.23-5.66-2.11-8.3a52.54,52.54,0,0,0-7.58-4.78Z"/><path class="cls-7" d="M113.79,26.52l.62-.45-8.53-10.46Z"/><path class="cls-7" d="M112.25,24l0-.19-4.05-.52Z"/><path class="cls-7" d="M111.81,23.21l.19,0c0-1.15.09-2.27.22-3.39a2.29,2.29,0,0,0,0,.25l0-.24Z"/><path class="cls-7" d="M110.3,21.32l0-.19L107.63,21Z"/><path class="cls-7" d="M109.11,19.78h.19l-.07-2.37Z"/><path class="cls-4" d="M110.38,39.5s.92,8.24,2.42,10.29c1.78,2.45,7.28,2.8,7.28,2.8s1.23-5.67-2.12-8.31a52,52,0,0,0-7.58-4.78Z"/><path class="cls-5" d="M119.68,52.89l.63-.45L111.78,42Z"/><path class="cls-5" d="M118.15,50.4l0-.2-4-.51Z"/><path class="cls-5" d="M117.71,49.58l.19,0c0-1.14.09-2.27.22-3.38a2,2,0,0,0,0,.25l0-.25Z"/><path class="cls-5" d="M116.19,47.69l0-.19-2.69-.14Z"/><path class="cls-5" d="M115,46.15h.19l-.07-2.37Z"/><path class="cls-2" d="M120.1,33.59s-2.22,8-1.59,10.45c.75,2.93,5.72,5.3,5.72,5.3s3.25-4.79,1.12-8.49a52,52,0,0,0-5.25-7.26Z"/><path class="cls-3" d="M123.75,49.48l.75-.19-4-12.88Z"/><path class="cls-3" d="M123.26,46.59l.1-.16-3.56-2Z"/><path class="cls-3" d="M123.15,45.67l.17.09a33.14,33.14,0,0,1,1.46-3.06,2.26,2.26,0,0,0-.11.22l.11-.22Z"/><path class="cls-3" d="M122.45,43.35l.09-.17-2.45-1.12Z"/><path class="cls-3" d="M121.92,41.48l.17.08.82-2.23Z"/><path class="cls-4" d="M116,9.69s-1.61,5.86-1.15,7.66c.55,2.15,4.2,3.87,4.2,3.87s2.37-3.51.81-6.22A38.64,38.64,0,0,0,116,9.69Z"/><path class="cls-5" d="M118.6,21.35l.75-.19-3.17-9.38Z"/><path class="cls-5" d="M118.32,19.23l.11-.16-2.64-1.41Z"/><path class="cls-5" d="M118.23,18.52l.18.09a17.69,17.69,0,0,1,1-2.25,1.34,1.34,0,0,0-.07.18l.07-.17Z"/><path class="cls-5" d="M117.73,16.86l.09-.17L116,15.92Z"/><path class="cls-5" d="M117.33,15.46l.17.08.55-1.65Z"/><path class="cls-6" d="M132,2.51s-5.08,6.56-5.43,9.07c-.42,3,3.29,7.08,3.29,7.08s4.82-3.22,4.26-7.44A52.53,52.53,0,0,0,132,2.51Z"/><path class="cls-7" d="M129.35,18.6l.77.11,1.14-13.45Z"/><path class="cls-7" d="M130,15.74l.16-.11-2.55-3.19Z"/><path class="cls-7" d="M130.23,14.85l.12.15a33.67,33.67,0,0,1,2.52-2.28l-.2.16.19-.16Z"/><path class="cls-7" d="M130.46,12.44l.15-.13-1.84-2Z"/><path class="cls-7" d="M130.67,10.5l.14.15,1.59-1.76Z"/><path class="cls-6" d="M166.83,11.91s-2.12,8-1.46,10.47c.78,2.93,5.79,5.24,5.79,5.24s3.18-4.84,1-8.51a52.92,52.92,0,0,0-5.34-7.2Z"/><path class="cls-7" d="M170.91,27.69l.28-.06-3.72-13Z"/><path class="cls-7" d="M170.17,24.82l0-.05-3.52-2.06Z"/><path class="cls-7" d="M170.08,24l.06,0c.48-1,1-2.05,1.49-3.06l-.16.18.16-.18Z"/><path class="cls-7" d="M169.32,21.59l0-.06L167,20.33Z"/><path class="cls-7" d="M168.8,19.81l.06,0,.9-2.19Z"/><path class="cls-6" d="M179.07,46.76s-7.68,3.12-9.25,5.12c-1.87,2.38-.72,7.77-.72,7.77s5.79-.35,7.42-4.29a51.94,51.94,0,0,0,2.55-8.6Z"/><path class="cls-7" d="M168.7,59.35l.61.48,7.75-11Z"/><path class="cls-7" d="M170.69,57.2l.19,0-.6-4Z"/><path class="cls-7" d="M171.35,56.55l0,.19A32.58,32.58,0,0,1,174.7,56l-.24,0,.24,0Z"/><path class="cls-7" d="M172.76,54.58l.19,0-.6-2.63Z"/><path class="cls-7" d="M173.92,53l0,.19,2.27-.71Z"/><path class="cls-2" d="M139.25,34.83s-3.3,7.61-3,10.13c.33,3,4.93,6,4.93,6s3.88-4.3,2.29-8.26A52.07,52.07,0,0,0,139.25,34.83Z"/><path class="cls-3" d="M140.67,51.08l.77-.08-2.21-13.32Z"/><path class="cls-3" d="M140.57,48.15l.13-.15-3.26-2.46Z"/><path class="cls-3" d="M140.6,47.22l.16.12a30.78,30.78,0,0,1,1.87-2.83l-.15.2.15-.2Z"/><path class="cls-3" d="M140.22,44.83l.12-.16-2.27-1.45Z"/><path class="cls-3" d="M140,42.9l.16.11,1.12-2.09Z"/><path class="cls-6" d="M165.81,56.45s-5.26-6.41-7.63-7.31c-2.83-1.08-7.63,1.62-7.63,1.62s2,5.42,6.3,5.81a53,53,0,0,0,9-.11Z"/><path class="cls-7" d="M150.72,50.29l-.28.73,12.85,4.12Z"/><path class="cls-7" d="M153.36,51.55l.08.18L157.11,50Z"/><path class="cls-7" d="M154.18,52l-.18.09a33.26,33.26,0,0,1,1.66,3,2.4,2.4,0,0,0-.11-.23l.11.22Z"/><path class="cls-7" d="M156.48,52.75l.08.18,2.33-1.36Z"/><path class="cls-7" d="M158.31,53.39l-.17.1,1.35,1.95Z"/><path class="cls-6" d="M144.77,23.39s-1.25,8.19-.34,10.57c1.08,2.82,6.3,4.59,6.3,4.59s2.66-5.15.12-8.57a52.76,52.76,0,0,0-6.08-6.59Z"/><path class="cls-7" d="M150.27,38.74l.73-.27-5.52-12.33Z"/><path class="cls-7" d="M149.44,35.93l.08-.18-3.77-1.55Z"/><path class="cls-7" d="M149.22,35l.18.07a33.67,33.67,0,0,1,1.1-3.21.92.92,0,0,0-.09.23l.09-.23Z"/><path class="cls-7" d="M148.25,32.81l.07-.18-2.56-.83Z"/><path class="cls-7" d="M147.51,31l.18.07.55-2.31Z"/><path class="cls-4" d="M145,33s-3,7.73-2.64,10.24c.45,3,5.16,5.86,5.16,5.86s3.71-4.44,2-8.34A52.28,52.28,0,0,0,145,33Z"/><path class="cls-5" d="M147,49.22l.77-.11-2.7-13.23Z"/><path class="cls-5" d="M146.84,46.29l.12-.15-3.34-2.34Z"/><path class="cls-5" d="M146.83,45.37l.16.1c.55-1,1.14-2,1.77-2.89,0,.07-.1.14-.14.21l.14-.21Z"/><path class="cls-5" d="M146.36,43l.11-.16-2.32-1.37Z"/><path class="cls-5" d="M146,41.08l.17.09,1-2.13Z"/><path class="cls-2" d="M155.24,14.22S151,21.36,151,23.9c0,3,4.16,6.6,4.16,6.6s4.37-3.79,3.28-7.91a52.35,52.35,0,0,0-3.21-8.37Z"/><path class="cls-3" d="M154.65,30.51h.78L154.86,17Z"/><path class="cls-3" d="M154.92,27.6l.14-.14-2.93-2.84Z"/><path class="cls-3" d="M155.05,26.68l.15.13a32.46,32.46,0,0,1,2.2-2.58l-.17.19.17-.19Z"/><path class="cls-3" d="M155,24.26l.13-.14L153,22.4Z"/><path class="cls-3" d="M155,22.31l.15.13,1.36-1.94Z"/><path class="cls-4" d="M166.9,17.79s-6.6,5-7.6,7.35c-1.18,2.78,1.34,7.68,1.34,7.68s5.49-1.84,6-6.07a52.58,52.58,0,0,0,.22-9Z"/><path class="cls-5" d="M160.17,32.64l.72.31,4.6-12.7Z"/><path class="cls-5" d="M161.53,30l.18-.07-1.63-3.74Z"/><path class="cls-5" d="M162,29.24l.08.18a33,33,0,0,1,3-1.54l-.23.1.23-.1Z"/><path class="cls-5" d="M162.85,27l.18-.08-1.27-2.38Z"/><path class="cls-5" d="M163.56,25.17l.09.17,2-1.28Z"/><path class="cls-6" d="M179.3,38.53s-3.32,7.59-3.05,10.12c.32,3,4.91,6.06,4.91,6.06s3.89-4.29,2.31-8.25a51.7,51.7,0,0,0-4.17-7.93Z"/><path class="cls-7" d="M180.66,54.78l.77-.08-2.16-13.33Z"/><path class="cls-7" d="M180.58,51.85l.12-.15-3.24-2.47Z"/><path class="cls-7" d="M180.6,50.92l.16.11c.59-1,1.22-1.92,1.88-2.82a2.43,2.43,0,0,0-.14.2l.14-.2Z"/><path class="cls-7" d="M180.24,48.53l.11-.16-2.26-1.46Z"/><path class="cls-7" d="M180,46.6l.16.1,1.13-2.08Z"/><path class="cls-4" d="M189.48,35.24s-5.85-3.21-7.89-3.17c-2.44,0-5.21,3.5-5.21,3.5S179.54,39,182.83,38A43.13,43.13,0,0,0,189.48,35.24Z"/><path class="cls-5" d="M176.36,35.09v.77l10.83-.93Z"/><path class="cls-5" d="M178.71,35.3l.13.13L181,33Z"/><path class="cls-5" d="M179.47,35.38l-.12.15a22.27,22.27,0,0,1,2.13,1.69l-.17-.12.17.12Z"/><path class="cls-5" d="M181.39,35.26l.14.13,1.31-1.73Z"/><path class="cls-5" d="M183,35.19l-.12.15,1.61,1Z"/><path class="cls-6" d="M33.37,48.29S35,56.43,36.61,58.35c2,2.3,7.48,2.2,7.48,2.2s.77-5.75-2.78-8.11a52.41,52.41,0,0,0-7.94-4.15Z"/><path class="cls-7" d="M43.72,60.88l.59-.5L35,50.64Z"/><path class="cls-7" d="M42,58.52l0-.2-4.07-.19Z"/><path class="cls-7" d="M41.48,57.74h.2a31.91,31.91,0,0,1-.06-3.38v0Z"/><path class="cls-7" d="M39.82,56v-.2l-2.69.09Z"/><path class="cls-7" d="M38.51,54.54h.2l-.26-2.36Z"/><path class="cls-4" d="M50.13,88.92S56.3,94.46,58.79,95c3,.64,7.29-2.77,7.29-2.77s-2.85-5-7.1-4.78a52.06,52.06,0,0,0-8.85,1.47Z"/><path class="cls-6" d="M52.4,64.18S54,72.32,55.64,74.25c2,2.29,7.49,2.19,7.49,2.19s.76-5.74-2.79-8.1a53,53,0,0,0-7.94-4.16Z"/><path class="cls-7" d="M62.76,76.78l.59-.5L54,66.54Z"/><path class="cls-7" d="M61,74.42l0-.19L57,74Z"/><path class="cls-7" d="M60.52,73.64h.19c-.07-1.14-.09-2.27-.05-3.39a2.18,2.18,0,0,0,0,.25v-.24Z"/><path class="cls-7" d="M58.85,71.88v-.2l-2.69.09Z"/><path class="cls-7" d="M57.55,70.44h.19l-.26-2.35Z"/><path class="cls-6" d="M21.92,85.16S29.3,89,31.83,88.84c3-.13,6.36-4.52,6.36-4.52s-4-4.16-8.09-2.83a52.82,52.82,0,0,0-8.18,3.67Z"/><path class="cls-7" d="M38.23,84.82l0-.78L24.76,85.37Z"/><path class="cls-7" d="M35.3,84.71l-.14-.13-2.67,3.08Z"/><path class="cls-7" d="M34.37,84.63l.13-.15c-1-.65-1.84-1.33-2.7-2l.19.16-.19-.16Z"/><path class="cls-7" d="M32,84.85l-.15-.13-1.6,2.17Z"/><path class="cls-7" d="M30,85l.12-.16-2-1.25Z"/><path class="cls-2" d="M41.81,98.93s7.38,3.79,9.91,3.68c3-.13,6.36-4.52,6.36-4.52S54,93.93,50,95.26a51.77,51.77,0,0,0-8.18,3.67Z"/><path class="cls-3" d="M58.11,98.59l0-.78L44.65,99.14Z"/><path class="cls-3" d="M55.19,98.48l-.14-.13-2.67,3.08Z"/><path class="cls-3" d="M54.26,98.4l.12-.15c-.94-.65-1.84-1.33-2.69-2l.19.16-.19-.16Z"/><path class="cls-3" d="M51.85,98.62l-.15-.13-1.6,2.17Z"/><path class="cls-3" d="M49.91,98.76,50,98.6l-2-1.25Z"/><path class="cls-4" d="M37.53,89.71S43.9,95,46.4,95.46c3,.53,7.19-3,7.19-3s-3-4.94-7.28-4.52a51.88,51.88,0,0,0-8.78,1.8Z"/><path class="cls-5" d="M66,92.73l.17-.76L52.83,89.84Z"/><path class="cls-5" d="M63.19,91.88l-.11-.16L59.72,94Z"/><path class="cls-5" d="M62.31,91.57l.16-.11a32.79,32.79,0,0,1-2.09-2.68l.15.21-.15-.2Z"/><path class="cls-5" d="M59.92,91.17,59.81,91,57.72,92.7Z"/><path class="cls-5" d="M58,90.81l.16-.12L56.54,89Z"/><path class="cls-5" d="M53.52,92.92l.14-.76L40.25,90.53Z"/><path class="cls-5" d="M50.68,92.19,50.57,92l-3.28,2.43Z"/><path class="cls-5" d="M49.8,91.91l.15-.12a33,33,0,0,1-2.18-2.6,1,1,0,0,0,.15.2l-.15-.2Z"/><path class="cls-5" d="M47.39,91.59l-.11-.15-2,1.76Z"/><path class="cls-5" d="M45.47,91.3l.15-.12-1.69-1.66Z"/><path class="cls-6" d="M35.17,77.65s3.6,7.47,5.69,8.91c2.49,1.72,7.8.22,7.8.22s-.72-5.74-4.75-7.13a52.84,52.84,0,0,0-8.74-2Z"/><path class="cls-7" d="M48.38,87.21l.45-.64-11.52-7Z"/><path class="cls-7" d="M46.11,85.36l0-.19-4,.85Z"/><path class="cls-7" d="M45.42,84.74l.19,0a30.52,30.52,0,0,1-.91-3.26,2,2,0,0,0,0,.24l0-.24Z"/><path class="cls-7" d="M43.36,83.45l0-.19L40.74,84Z"/><path class="cls-7" d="M41.73,82.39l.19,0-.85-2.21Z"/><path class="cls-2" d="M15.81,73.31s5.44,6.25,7.84,7.09c2.86,1,7.58-1.85,7.58-1.85S29,73.2,24.76,72.93a52.07,52.07,0,0,0-9,.38Z"/><path class="cls-3" d="M31.08,79l.25-.73-13-3.75Z"/><path class="cls-3" d="M28.4,77.85l-.09-.17-3.62,1.87Z"/><path class="cls-3" d="M27.57,77.43l.17-.09A33.48,33.48,0,0,1,26,74.43l.12.22L26,74.43Z"/><path class="cls-3" d="M25.25,76.74l-.09-.17L22.87,78Z"/><path class="cls-3" d="M23.39,76.15l.17-.11-1.41-1.9Z"/><path class="cls-4" d="M25.22,66.2s2.66,7.85,4.56,9.54c2.27,2,7.71,1.17,7.71,1.17s0-5.79-3.84-7.66a53,53,0,0,0-8.43-3Z"/><path class="cls-5" d="M37.17,77.29l.52-.58L27.11,68.32Z"/><path class="cls-5" d="M35.14,75.18V75l-4.06.36Z"/><path class="cls-5" d="M34.53,74.48l.19,0c-.22-1.13-.39-2.24-.5-3.35a1,1,0,0,0,0,.24l0-.24Z"/><path class="cls-5" d="M32.65,73l0-.19L30,73.21Z"/><path class="cls-5" d="M31.16,71.71l.19,0-.57-2.3Z"/><path class="cls-2" d="M51.16,124s-.48,7.16.48,9.14c1.15,2.35,5.78,3.48,5.78,3.48s1.91-4.63-.54-7.39A44.94,44.94,0,0,0,51.16,124Z"/><path class="cls-3" d="M57,136.85l.7-.34-5.77-10.16Z"/><path class="cls-3" d="M56.11,134.48l.06-.19-3.37-1Z"/><path class="cls-3" d="M55.84,133.7l.19.05a26.15,26.15,0,0,1,.69-2.84c0,.07,0,.14,0,.21l0-.21Z"/><path class="cls-3" d="M54.85,131.88l.06-.19-2.28-.5Z"/><path class="cls-3" d="M54.07,130.37l.19,0,.27-2Z"/><path class="cls-6" d="M54.52,109s-2.34,8-1.75,10.43c.7,2.95,5.64,5.39,5.64,5.39s3.32-4.74,1.25-8.47A52.28,52.28,0,0,0,54.52,109Z"/><path class="cls-7" d="M57.93,124.92l.75-.17-3.83-13Z"/><path class="cls-7" d="M57.48,122l.1-.17-3.53-2Z"/><path class="cls-7" d="M57.38,121.11l.17.09c.46-1,1-2.06,1.51-3l-.12.22.12-.21Z"/><path class="cls-7" d="M56.72,118.77l.09-.16-2.43-1.17Z"/><path class="cls-7" d="M56.22,116.9l.17.08.85-2.21Z"/><path class="cls-4" d="M66,246.47s2.59,7.88,4.48,9.58c2.25,2,7.7,1.23,7.7,1.23s0-5.79-3.78-7.68a52.53,52.53,0,0,0-8.4-3.13Z"/><path class="cls-5" d="M77.84,257.66l.52-.57-10.51-8.48Z"/><path class="cls-5" d="M75.82,255.54v-.2l-4.06.33Z"/><path class="cls-5" d="M75.22,254.83l.19,0c-.21-1.13-.37-2.24-.48-3.36l0,.25,0-.24Z"/><path class="cls-5" d="M73.35,253.29l0-.19-2.66.42Z"/><path class="cls-5" d="M71.87,252l.19,0-.56-2.3Z"/><path class="cls-6" d="M48.56,241.45S47,249.6,47.8,252c1,2.87,6.13,4.83,6.13,4.83s2.86-5,.44-8.55a52.74,52.74,0,0,0-5.81-6.83Z"/><path class="cls-7" d="M53.46,257l.73-.25-5-12.53Z"/><path class="cls-7" d="M52.74,254.17l.09-.17-3.71-1.7Z"/><path class="cls-7" d="M52.56,253.26l.18.07A33.25,33.25,0,0,1,54,250.17c0,.07-.07.15-.1.23l.1-.23Z"/><path class="cls-7" d="M51.67,251l.08-.18-2.53-.92Z"/><path class="cls-7" d="M51,249.18l.18.07.64-2.29Z"/><path class="cls-2" d="M49.8,102.19s-3.66,7.44-3.5,10c.18,3,4.64,6.27,4.64,6.27s4.08-4.11,2.67-8.13a52.49,52.49,0,0,0-3.81-8.11Z"/><path class="cls-3" d="M50.44,118.48l.77,0L49.64,105Z"/><path class="cls-3" d="M50.49,115.55l.13-.14-3.13-2.61Z"/><path class="cls-3" d="M50.55,114.63l.16.12a32.62,32.62,0,0,1,2-2.74c-.05.07-.11.13-.15.2l.15-.19Z"/><path class="cls-3" d="M50.29,112.22l.13-.15-2.2-1.56Z"/><path class="cls-3" d="M50.12,110.28l.16.11,1.21-2Z"/><path class="cls-6" d="M153.88,239.53s-2.69,7.85-2.21,10.34c.57,3,5.4,5.64,5.4,5.64s3.52-4.6,1.62-8.42a53,53,0,0,0-4.81-7.56Z"/><path class="cls-7" d="M156.58,255.62l.76-.15-3.26-13.1Z"/><path class="cls-7" d="M156.25,252.7l.11-.16-3.43-2.19Z"/><path class="cls-7" d="M156.2,251.78l.17.1a32.69,32.69,0,0,1,1.64-3,2.39,2.39,0,0,0-.13.21l.13-.21Z"/><path class="cls-7" d="M155.64,249.42l.1-.17L153.37,248Z"/><path class="cls-7" d="M155.22,247.52l.17.09,1-2.17Z"/><path class="cls-6" d="M18.31,128.57s6.59,5,9.11,5.37c3,.4,7-3.33,7-3.33s-3.24-4.8-7.46-4.21a52,52,0,0,0-8.7,2.17Z"/><path class="cls-7" d="M34.42,131.1l.1-.76-13.46-1.07Z"/><path class="cls-7" d="M31.55,130.49l-.11-.16-3.17,2.56Z"/><path class="cls-7" d="M30.66,130.24l.14-.12c-.81-.81-1.57-1.64-2.29-2.5l.17.19-.16-.19Z"/><path class="cls-7" d="M28.24,130l-.12-.15-1.95,1.85Z"/><path class="cls-7" d="M26.31,129.82l.14-.13-1.76-1.59Z"/><path class="cls-4" d="M15.72,118.73s5.33,6.35,7.72,7.23c2.84,1.05,7.61-1.72,7.61-1.72s-2.12-5.39-6.37-5.73a52.8,52.8,0,0,0-9,.22Z"/><path class="cls-5" d="M30.89,124.72l.27-.73-12.9-4Z"/><path class="cls-5" d="M28.23,123.49l-.08-.17-3.65,1.81Z"/><path class="cls-5" d="M27.41,123.06l.17-.09A30.94,30.94,0,0,1,25.89,120a1.51,1.51,0,0,0,.11.22l-.11-.22Z"/><path class="cls-5" d="M25.1,122.33l-.09-.18-2.31,1.38Z"/><path class="cls-5" d="M23.26,121.7l.16-.09-1.37-1.94Z"/><path class="cls-6" d="M15.52,106.45s2.22,8,4,9.77c2.15,2.13,7.64,1.6,7.64,1.6S27.5,112,23.77,110a52.79,52.79,0,0,0-8.25-3.51Z"/><path class="cls-7" d="M26.84,118.19l.55-.55-10.09-9Z"/><path class="cls-7" d="M24.93,116v-.2l-4.07.14Z"/><path class="cls-7" d="M24.36,115.23h.2a30,30,0,0,1-.32-3.37,2.18,2.18,0,0,0,0,.25v-.25Z"/><path class="cls-7" d="M22.57,113.61v-.2l-2.68.3Z"/><path class="cls-7" d="M21.15,112.28l.19,0-.45-2.33Z"/><path class="cls-4" d="M37.11,240s6.58,5,9.1,5.37c3,.41,7.06-3.33,7.06-3.33s-3.24-4.8-7.47-4.21A52.06,52.06,0,0,0,37.11,240Z"/><path class="cls-5" d="M53.21,242.52l.11-.77-13.46-1.07Z"/><path class="cls-5" d="M50.35,241.9l-.12-.16-3.17,2.57Z"/><path class="cls-5" d="M49.45,241.66l.15-.13a33.55,33.55,0,0,1-2.29-2.5c0,.07.11.13.16.19l-.16-.18Z"/><path class="cls-5" d="M47,241.44l-.12-.15-2,1.85Z"/><path class="cls-5" d="M45.11,241.24l.14-.13-1.76-1.59Z"/><path class="cls-2" d="M81.69,250.44s5.34,6.35,7.72,7.23C92.25,258.72,97,256,97,256s-2.12-5.4-6.37-5.74a52.8,52.8,0,0,0-9,.22Z"/><path class="cls-3" d="M96.86,256.43l.27-.73-12.9-4Z"/><path class="cls-3" d="M94.2,255.21l-.08-.18-3.65,1.81Z"/><path class="cls-3" d="M93.38,254.77l.17-.09a33.27,33.27,0,0,1-1.69-2.94A.94.94,0,0,0,92,252l-.12-.21Z"/><path class="cls-3" d="M91.07,254l-.09-.17-2.31,1.38Z"/><path class="cls-3" d="M89.23,253.42l.17-.1L88,251.38Z"/><path class="cls-4" d="M29.38,110.35s2.22,8,4,9.77c2.15,2.13,7.63,1.6,7.63,1.6s.31-5.79-3.41-7.86a51.71,51.71,0,0,0-8.25-3.51Z"/><path class="cls-5" d="M40.7,122.08l.55-.55-10.09-9Z"/><path class="cls-5" d="M38.79,119.86v-.19l-4.08.13Z"/><path class="cls-5" d="M38.22,119.13l.2,0a29.76,29.76,0,0,1-.32-3.37,2.09,2.09,0,0,0,0,.25l0-.25Z"/><path class="cls-5" d="M36.43,117.5v-.19l-2.68.3Z"/><path class="cls-5" d="M35,116.17l.2,0-.45-2.33Z"/><path class="cls-2" d="M25.69,254.92s7.65,3.2,10.17,2.89c3-.37,6-5,6-5s-4.35-3.82-8.29-2.17a52.39,52.39,0,0,0-7.86,4.3Z"/><path class="cls-3" d="M41.91,253.29l-.09-.77-13.29,2.39Z"/><path class="cls-3" d="M39,253.42l-.15-.12-2.42,3.28Z"/><path class="cls-3" d="M38.06,253.41l.11-.16q-1.48-.85-2.85-1.83l.2.14-.2-.14Z"/><path class="cls-3" d="M35.67,253.82l-.16-.11L34.09,256Z"/><path class="cls-3" d="M33.75,254.11l.1-.16-2.1-1.09Z"/><path class="cls-6" d="M39.47,261.59s7.65,3.2,10.18,2.88c3-.37,6-5,6-5s-4.35-3.82-8.28-2.18a52.77,52.77,0,0,0-7.87,4.31Z"/><path class="cls-7" d="M55.7,260l-.09-.77-13.29,2.38Z"/><path class="cls-7" d="M52.77,260.09l-.15-.13-2.42,3.29Z"/><path class="cls-7" d="M51.84,260.08l.11-.16a32.26,32.26,0,0,1-2.85-1.84l.21.15-.2-.15Z"/><path class="cls-7" d="M49.45,260.48l-.15-.11-1.42,2.29Z"/><path class="cls-7" d="M47.53,260.77l.11-.16-2.11-1.09Z"/><path class="cls-6" d="M80,241.76s6.77,4.79,9.29,5c3,.29,6.93-3.59,6.93-3.59s-3.41-4.68-7.61-3.93A52.54,52.54,0,0,0,80,241.76Z"/><path class="cls-7" d="M96.2,243.7l.08-.77-13.49-.56Z"/><path class="cls-7" d="M93.31,243.19l-.12-.15-3.07,2.68Z"/><path class="cls-7" d="M92.41,243l.14-.13a33.77,33.77,0,0,1-2.38-2.41l.17.18-.17-.18Z"/><path class="cls-7" d="M90,242.86l-.13-.15L88,244.64Z"/><path class="cls-7" d="M88.05,242.73l.14-.14-1.82-1.52Z"/><path class="cls-4" d="M19.65,135.58S23.82,142.74,26,144c2.62,1.52,7.79-.39,7.79-.39s-1.17-5.68-5.3-6.74a52.11,52.11,0,0,0-8.86-1.3Z"/><path class="cls-5" d="M33.58,144.06l.39-.67-12-6.11Z"/><path class="cls-5" d="M31.16,142.39l-.05-.18-3.91,1.16Z"/><path class="cls-5" d="M30.43,141.83l.18-.06q-.67-1.59-1.17-3.18c0,.08,0,.16.08.23l-.07-.23Z"/><path class="cls-5" d="M28.28,140.72l-.06-.19-2.51,1Z"/><path class="cls-5" d="M26.57,139.79l.18-.07-1-2.14Z"/><path class="cls-2" d="M0,132.79s5.92,5.8,8.38,6.44c2.93.77,7.41-2.44,7.41-2.44s-2.63-5.16-6.89-5.09A52.19,52.19,0,0,0,0,132.79Z"/><path class="cls-3" d="M15.68,137.28l.2-.75L2.65,133.82Z"/><path class="cls-3" d="M12.91,136.32l-.1-.17L9.35,138.3Z"/><path class="cls-3" d="M9.68,135.46l-.1-.17-2.17,1.6Z"/><path class="cls-3" d="M7.79,135l.15-.11-1.55-1.79Z"/><path class="cls-4" d="M8.82,125s3.27,7.62,5.3,9.15c2.42,1.82,7.78.55,7.78.55s-.47-5.77-4.44-7.32A52.14,52.14,0,0,0,8.82,125Z"/><path class="cls-5" d="M12.05,136l.16-.11a33,33,0,0,1-2-2.76,1.91,1.91,0,0,0,.14.21l-.13-.2Z"/><path class="cls-5" d="M21.62,135.06l.46-.61-11.2-7.53Z"/><path class="cls-5" d="M19.42,133.12l0-.19-4,.68Z"/><path class="cls-5" d="M18.76,132.47l.19,0a32.77,32.77,0,0,1-.77-3.3,2,2,0,0,0,.05.24l-.05-.24Z"/><path class="cls-5" d="M16.76,131.1l0-.19-2.61.65Z"/><path class="cls-5" d="M15.18,130l.19,0-.76-2.25Z"/><path class="cls-2" d="M194.4,86.76s-7.16-.33-9.12.68c-2.33,1.19-3.36,5.84-3.36,5.84s4.67,1.81,7.37-.69a45.73,45.73,0,0,0,5.11-5.83Z"/><path class="cls-3" d="M181.68,92.86l.36.69,10-6Z"/><path class="cls-3" d="M184,91.92l.18.07,1-3.4Z"/><path class="cls-3" d="M184.81,91.65l-.05.19a22.37,22.37,0,0,1,2.86.63l-.22,0,.22,0Z"/><path class="cls-3" d="M186.61,90.62l.18,0,.45-2.29Z"/><path class="cls-3" d="M188.1,89.8l0,.19,2,.23Z"/><path class="cls-4" d="M209.5,89.8s-8-2.17-10.46-1.53c-2.93.76-5.27,5.75-5.27,5.75s4.81,3.22,8.5,1.08a53.13,53.13,0,0,0,7.23-5.3Z"/><path class="cls-5" d="M193.63,93.54l.19.75,12.86-4.1Z"/><path class="cls-5" d="M196.51,93l.17.1,2-3.57Z"/><path class="cls-5" d="M197.43,92.92l-.09.17a32,32,0,0,1,3.07,1.45,1.19,1.19,0,0,0-.22-.12l.22.11Z"/><path class="cls-5" d="M199.75,92.2l.17.09L201,89.84Z"/><path class="cls-5" d="M201.61,91.66l-.08.18,2.23.8Z"/><path class="cls-6" d="M216.18,84.93s-7.51-3.5-10.05-3.28c-3,.25-6.17,4.77-6.17,4.77s4.2,4,8.2,2.5a51.83,51.83,0,0,0,8-4Z"/><path class="cls-7" d="M199.91,85.92l.06.77,13.37-1.85Z"/><path class="cls-7" d="M202.84,85.9,203,86l2.55-3.19Z"/><path class="cls-7" d="M203.76,86l-.11.16a30.44,30.44,0,0,1,2.77,1.94l-.2-.15.2.15Z"/><path class="cls-7" d="M206.16,85.64l.16.12,1.51-2.23Z"/><path class="cls-7" d="M208.1,85.42l-.11.16,2.06,1.18Z"/><path class="cls-6" d="M205.85,98.72s-7.9-2.52-10.38-2c-3,.64-5.52,5.52-5.52,5.52s4.67,3.43,8.44,1.44a52.36,52.36,0,0,0,7.46-5Z"/><path class="cls-7" d="M189.83,101.76l.16.76L203,99Z"/><path class="cls-7" d="M192.73,101.38l.16.1L195,98Z"/><path class="cls-7" d="M193.66,101.3l-.1.17a32.8,32.8,0,0,1,3,1.58,2.25,2.25,0,0,0-.21-.12l.21.12Z"/><path class="cls-7" d="M196,100.69l.17.1,1.21-2.4Z"/><path class="cls-7" d="M197.89,100.23l-.09.18,2.19.9Z"/><path class="cls-6" d="M198.92,51.21s-6.24,5.47-7.07,7.87c-1,2.87,1.88,7.58,1.88,7.58s5.35-2.24,5.6-6.49a52.84,52.84,0,0,0-.41-9Z"/><path class="cls-7" d="M193.25,66.51l.73.25,3.7-13Z"/><path class="cls-7" d="M194.42,63.82l.18-.08-1.89-3.62Z"/><path class="cls-7" d="M194.84,63l.09.17a32.36,32.36,0,0,1,2.9-1.75l-.22.12.22-.12Z"/><path class="cls-7" d="M195.52,60.67l.17-.09-1.43-2.29Z"/><path class="cls-7" d="M196.1,58.81l.11.17,1.9-1.42Z"/><path class="cls-4" d="M210.09,58.44s-7.94,2.39-9.68,4.23c-2.09,2.2-1.44,7.67-1.44,7.67s5.79.19,7.79-3.58a52.5,52.5,0,0,0,3.33-8.32Z"/><path class="cls-5" d="M198.6,70l.56.53,8.75-10.28Z"/><path class="cls-5" d="M200.78,68H201L200.75,64Z"/><path class="cls-5" d="M201.5,67.46l0,.19a32.33,32.33,0,0,1,3.36-.39l-.25,0,.25,0Z"/><path class="cls-5" d="M203.09,65.63h.19L202.92,63Z"/><path class="cls-5" d="M204.39,64.18l0,.2,2.32-.5Z"/><path class="cls-4" d="M172.45,71.52s-4.89,6.7-5.18,9.22c-.34,3,3.48,7,3.48,7s4.74-3.34,4.05-7.55a52.42,52.42,0,0,0-2.35-8.65Z"/><path class="cls-5" d="M170.25,87.68l.77.09.78-13.48Z"/><path class="cls-5" d="M170.81,84.81l.15-.12-2.63-3.12Z"/><path class="cls-5" d="M171,83.9l.13.15c.79-.83,1.61-1.62,2.45-2.35l-.19.17.19-.16Z"/><path class="cls-5" d="M171.19,81.49l.15-.13-1.89-1.91Z"/><path class="cls-5" d="M171.36,79.55l.14.14,1.55-1.8Z"/><path class="cls-6" d="M182.22,68.72s-6.23,5.47-7.06,7.87c-1,2.87,1.88,7.58,1.88,7.58s5.35-2.24,5.6-6.49a52.3,52.3,0,0,0-.42-9Z"/><path class="cls-7" d="M176.56,84l.74.25,3.69-13Z"/><path class="cls-7" d="M177.73,81.33l.18-.08L176,77.63Z"/><path class="cls-7" d="M178.14,80.5l.1.17a32.36,32.36,0,0,1,2.9-1.75,1.19,1.19,0,0,0-.22.12l.22-.12Z"/><path class="cls-7" d="M178.83,78.18l.17-.09-1.43-2.29Z"/><path class="cls-7" d="M179.41,76.32l.1.17,1.91-1.42Z"/><path class="cls-6" d="M179.35,26.12s-7.91,2.5-9.63,4.36c-2.06,2.23-1.33,7.69-1.33,7.69s5.79.11,7.73-3.69a52.87,52.87,0,0,0,3.23-8.36Z"/><path class="cls-7" d="M168,37.84l.57.53L177.19,28Z"/><path class="cls-7" d="M170.16,35.85h.2l-.28-4.07Z"/><path class="cls-7" d="M170.88,35.26v.19c1.13-.2,2.25-.35,3.37-.44a1.9,1.9,0,0,0-.25,0l.24,0Z"/><path class="cls-7" d="M172.44,33.41l.19,0-.39-2.66Z"/><path class="cls-7" d="M173.72,31.94l0,.2,2.32-.53Z"/><path class="cls-2" d="M161.65,64.25s-3,7.71-2.67,10.23c.44,3,5.14,5.87,5.14,5.87s3.73-4.44,2-8.34a51.92,51.92,0,0,0-4.47-7.76Z"/><path class="cls-3" d="M163.63,80.44l.77-.11-2.67-13.24Z"/><path class="cls-3" d="M163.44,77.51l.12-.15L160.22,75Z"/><path class="cls-3" d="M163.43,76.58l.16.11c.55-1,1.14-2,1.77-2.89l-.14.21.14-.21Z"/><path class="cls-3" d="M163,74.2l.11-.16-2.32-1.37Z"/><path class="cls-3" d="M162.64,72.29l.17.1,1-2.13Z"/><path class="cls-4" d="M199.89,135.34s-4.87-5.27-7-5.93c-2.5-.78-6.5,1.8-6.5,1.8s2.05,4.57,5.73,4.69a45.55,45.55,0,0,0,7.74-.56Z"/><path class="cls-5" d="M186.55,130.74l-.24.74,11.35,2.8Z"/><path class="cls-5" d="M188.88,131.73l.08.18,3.07-1.74Z"/><path class="cls-5" d="M189.62,132.08l-.16.1a26.93,26.93,0,0,1,1.59,2.45l-.12-.18.12.18Z"/><path class="cls-5" d="M191.63,132.61l.1.17,1.92-1.31Z"/><path class="cls-5" d="M193.26,133.08l-.16.11,1.29,1.59Z"/><path class="cls-2" d="M208.49,148.11s-4.17-7.16-6.37-8.44c-2.62-1.51-7.79.39-7.79.39s1.16,5.68,5.3,6.74a52.67,52.67,0,0,0,8.86,1.31Z"/><path class="cls-3" d="M194.57,139.62l-.39.67,12,6.12Z"/><path class="cls-3" d="M197,141.28l.05.19,3.91-1.16Z"/><path class="cls-3" d="M197.72,141.85l-.19.06a33.17,33.17,0,0,1,1.17,3.19,2.25,2.25,0,0,0-.08-.24l.08.23Z"/><path class="cls-3" d="M199.86,143l.06.19,2.51-1Z"/><path class="cls-3" d="M201.57,143.9l-.18.06,1,2.14Z"/><path class="cls-6" d="M214.11,237.85s-7-4.45-9.53-4.58c-3-.14-6.74,3.92-6.74,3.92s3.63,4.51,7.79,3.56a52.43,52.43,0,0,0,8.48-2.9Z"/><path class="cls-7" d="M197.84,236.69l0,.77,13.5-.08Z"/><path class="cls-7" d="M200.75,237.06l.13.15,2.94-2.83Z"/><path class="cls-7" d="M201.66,237.23l-.13.14a32,32,0,0,1,2.49,2.29l-.17-.18.17.18Z"/><path class="cls-7" d="M204.09,237.23l.13.14,1.79-2Z"/><path class="cls-7" d="M206,237.28l-.13.14,1.89,1.43Z"/><path class="cls-6" d="M194.51,259s-4.83-6.74-7.14-7.8c-2.75-1.26-7.72,1.13-7.72,1.13s1.7,5.54,5.91,6.21a53,53,0,0,0,8.95.46Z"/><path class="cls-7" d="M179.85,251.87l-.33.7,12.56,4.95Z"/><path class="cls-7" d="M182.41,253.29l.06.19,3.78-1.53Z"/><path class="cls-7" d="M183.19,253.79l-.18.08a30.55,30.55,0,0,1,1.46,3.06,1.57,1.57,0,0,0-.09-.23l.09.22Z"/><path class="cls-7" d="M185.44,254.7l.07.18,2.41-1.2Z"/><path class="cls-7" d="M187.23,255.46l-.18.09,1.22,2Z"/><path class="cls-2" d="M199.11,257.41s-2.89-7.77-4.84-9.4c-2.32-1.94-7.74-.94-7.74-.94s.18,5.79,4.07,7.54a52.42,52.42,0,0,0,8.52,2.8Z"/><path class="cls-3" d="M186.84,246.68l-.5.59,10.82,8.08Z"/><path class="cls-3" d="M188.93,248.73v.19l4.06-.48Z"/><path class="cls-3" d="M189.56,249.41l-.19,0c.26,1.11.46,2.23.61,3.33a2,2,0,0,0,0-.24l0,.24Z"/><path class="cls-3" d="M191.49,250.88l0,.19,2.64-.52Z"/><path class="cls-3" d="M193,252.08l-.19,0,.64,2.28Z"/><path class="cls-2" d="M183.17,240.21s-3.85-7.34-6-8.71c-2.56-1.63-7.8.05-7.8.05s.91,5.72,5,7a51.72,51.72,0,0,0,8.8,1.7Z"/><path class="cls-3" d="M169.63,231.12l-.42.65L181,238.41Z"/><path class="cls-3" d="M172,232.89l0,.19,4-1Z"/><path class="cls-3" d="M172.68,233.49l-.19,0a32.66,32.66,0,0,1,1,3.23,2.17,2.17,0,0,0-.07-.24l.07.24Z"/><path class="cls-3" d="M174.78,234.7l.05.18,2.55-.85Z"/><path class="cls-3" d="M176.44,235.7l-.18.06.93,2.18Z"/><path class="cls-6" d="M219.15,108.34S211,109.67,209,111.26c-2.36,1.91-2.43,7.42-2.43,7.42s5.71.94,8.19-2.53a52.85,52.85,0,0,0,4.4-7.81Z"/><path class="cls-7" d="M206.23,118.3l.49.6,10-9Z"/><path class="cls-7" d="M208.65,116.64l.19,0,.32-4.06Z"/><path class="cls-7" d="M209.44,116.16v.19c1.15,0,2.28,0,3.39.05h0Z"/><path class="cls-7" d="M211.26,114.55h.19v-2.69Z"/><path class="cls-7" d="M212.74,113.29v.19l2.37-.19Z"/><path class="cls-2" d="M222,246s-8.28-.49-10.56.64c-2.71,1.34-4,6.71-4,6.71s5.37,2.17,8.54-.69a52.42,52.42,0,0,0,6-6.66Z"/><path class="cls-3" d="M207.26,252.87l.35.7,11.75-6.64Z"/><path class="cls-3" d="M210,251.78l.18.07,1.2-3.9Z"/><path class="cls-3" d="M210.86,251.49l-.05.19a32.38,32.38,0,0,1,3.3.79l-.24-.07.23.06Z"/><path class="cls-3" d="M213,250.31l.19.06.58-2.63Z"/><path class="cls-3" d="M214.7,249.4l0,.19,2.35.33Z"/><path class="cls-4" d="M237.13,121.52s-7.33-3.88-9.87-3.8c-3,.1-6.41,4.45-6.41,4.45s4,4.2,8.06,2.92a52.42,52.42,0,0,0,8.22-3.57Z"/><path class="cls-5" d="M220.82,121.67l0,.78,13.44-1.17Z"/><path class="cls-5" d="M223.75,121.81l.14.13,2.7-3Z"/><path class="cls-5" d="M224.67,121.9l-.12.15a32.75,32.75,0,0,1,2.67,2.08L227,124l.19.16Z"/><path class="cls-5" d="M227.09,121.71l.15.13,1.62-2.15Z"/><path class="cls-5" d="M229,121.6l-.12.15,2,1.28Z"/><path class="cls-5" d="M184.47,117.37l.19,0,.32-4.07Z"/><path class="cls-4" d="M203.89,114s-8.28-.49-10.55.64c-2.71,1.35-4,6.71-4,6.71s5.38,2.17,8.55-.69a51.93,51.93,0,0,0,6-6.66Z"/><path class="cls-5" d="M189.12,120.86l.34.69,11.75-6.64Z"/><path class="cls-5" d="M191.84,119.76l.18.07,1.2-3.9Z"/><path class="cls-5" d="M192.71,119.47l-.05.18c1.13.21,2.23.48,3.3.79l-.24-.07.24.07Z"/><path class="cls-5" d="M194.83,118.29l.19.06.58-2.63Z"/><path class="cls-5" d="M196.55,117.38l0,.19,2.35.33Z"/><path class="cls-4" d="M148.22,253.9s-7.33-3.87-9.87-3.79c-3,.1-6.41,4.45-6.41,4.45s4,4.2,8.06,2.92a52,52,0,0,0,8.22-3.58Z"/><path class="cls-5" d="M131.91,254.06l0,.78,13.45-1.18Z"/><path class="cls-5" d="M134.84,254.2l.14.13,2.7-3.05Z"/><path class="cls-5" d="M135.76,254.29l-.12.15a30.77,30.77,0,0,1,2.67,2.09l-.19-.17.19.16Z"/><path class="cls-5" d="M138.18,254.1l.14.13,1.63-2.15Z"/><path class="cls-5" d="M140.12,254l-.12.16,2,1.27Z"/><path class="cls-6" d="M215.6,89.47s-7.58,3.36-9.09,5.4c-1.79,2.44-.46,7.79-.46,7.79s5.76-.53,7.27-4.52a52.65,52.65,0,0,0,2.28-8.67Z"/><path class="cls-7" d="M205.64,102.37l.62.47,7.4-11.3Z"/><path class="cls-7" d="M207.55,100.16l.19,0-.72-4Z"/><path class="cls-7" d="M208.2,99.49l0,.19a32.2,32.2,0,0,1,3.29-.81l-.25,0,.25,0Z"/><path class="cls-7" d="M209.54,97.48l.19,0-.68-2.6Z"/><path class="cls-7" d="M210.65,95.88l0,.19,2.24-.78Z"/><path class="cls-4" d="M192.4,96.31s-7.58,3.36-9.09,5.41c-1.79,2.43-.46,7.78-.46,7.78s5.76-.53,7.27-4.52a52.65,52.65,0,0,0,2.28-8.67Z"/><path class="cls-5" d="M182.43,109.22l.63.46,7.4-11.29Z"/><path class="cls-5" d="M184.35,107l.19,0-.72-4Z"/><path class="cls-5" d="M185,106.34l0,.19a32.2,32.2,0,0,1,3.29-.81l-.25,0,.24,0Z"/><path class="cls-5" d="M186.34,104.32l.19,0-.68-2.6Z"/><path class="cls-5" d="M187.45,102.73l.05.18,2.24-.78Z"/><path class="cls-4" d="M179.67,254.25s-8.07-1.89-10.51-1.16c-2.9.86-5.06,5.93-5.06,5.93s4.92,3.05,8.53.77a52.23,52.23,0,0,0,7-5.54Z"/><path class="cls-2" d="M228.66,92.14s-8.28.31-10.44,1.66c-2.57,1.6-3.31,7.06-3.31,7.06s5.55,1.64,8.43-1.51a52.4,52.4,0,0,0,5.32-7.21Z"/><path class="cls-3" d="M214.63,100.44l.41.66,11.05-7.75Z"/><path class="cls-3" d="M217.23,99.09l.19,0,.81-4Z"/><path class="cls-3" d="M218.07,98.71l0,.19a33.54,33.54,0,0,1,3.36.47l-.25-.05.24.05Z"/><path class="cls-3" d="M220.07,97.34l.19,0,.33-2.67Z"/><path class="cls-3" d="M221.69,96.26l0,.2,2.37.1Z"/><path class="cls-4" d="M228.29,103.93s-7.78-2.86-10.29-2.43c-3,.5-5.75,5.27-5.75,5.27s4.52,3.62,8.38,1.81a52.4,52.4,0,0,0,7.66-4.65Z"/><path class="cls-5" d="M212.16,106.28l.12.76,13.17-3Z"/><path class="cls-5" d="M215.07,106l.16.11,2.27-3.39Z"/><path class="cls-5" d="M216,106l-.1.17a30.14,30.14,0,0,1,2.92,1.71,1.1,1.1,0,0,0-.21-.14l.21.13Z"/><path class="cls-5" d="M218.37,105.47l.16.11,1.32-2.35Z"/><path class="cls-5" d="M220.28,105.1l-.1.17,2.15,1Z"/><path class="cls-2" d="M61.29,101.43S60.08,109.63,61,112c1.11,2.82,6.34,4.56,6.34,4.56s2.62-5.17.06-8.57a52.1,52.1,0,0,0-6.12-6.55Z"/><path class="cls-3" d="M66.88,116.74l.73-.28L62,104.18Z"/><path class="cls-3" d="M66,113.94l.08-.18-3.79-1.53Z"/><path class="cls-3" d="M65.81,113l.19.06a31,31,0,0,1,1.07-3.21l-.09.23.09-.23Z"/><path class="cls-3" d="M64.83,110.83l.07-.18-2.57-.82Z"/><path class="cls-3" d="M64.07,109l.18.06.54-2.31Z"/><path class="cls-4" d="M68.63,94.39s-3,7.74-2.58,10.26c.47,3,5.2,5.82,5.2,5.82s3.68-4.47,1.92-8.35a51.85,51.85,0,0,0-4.54-7.73Z"/><path class="cls-3" d="M70.54,107.64l.11-.16-3.35-2.31Z"/><path class="cls-5" d="M70.76,110.56l.76-.12-2.79-13.2Z"/><path class="cls-5" d="M70.52,106.71l.16.1a32.32,32.32,0,0,1,1.75-2.9c-.05.07-.1.14-.14.21l.14-.21Z"/><path class="cls-5" d="M70,104.34l.11-.16-2.33-1.36Z"/><path class="cls-5" d="M69.69,102.42l.17.1,1-2.14Z"/><path class="cls-6" d="M68.85,251.73s-5.91,5.82-6.59,8.27c-.82,2.91,2.31,7.45,2.31,7.45s5.21-2.54,5.21-6.8a51.86,51.86,0,0,0-.93-8.92Z"/><path class="cls-7" d="M64.08,267.32l.75.22,2.94-13.18Z"/><path class="cls-7" d="M65.09,264.58l.18-.1-2.1-3.5Z"/><path class="cls-7" d="M65.46,263.72l.1.17a31.62,31.62,0,0,1,2.8-1.92l-.21.13.21-.13Z"/><path class="cls-7" d="M66,261.37l.16-.11-1.56-2.19Z"/><path class="cls-7" d="M66.48,259.48l.12.16,1.82-1.52Z"/><path class="cls-4" d="M59,135.84s7,1.58,9.1.94c2.5-.76,4.34-5.16,4.34-5.16S68.14,129,65,131A45.5,45.5,0,0,0,59,135.84Z"/><path class="cls-5" d="M72.57,132.08l-.23-.74-10.93,4.11Z"/><path class="cls-5" d="M70.09,132.58l-.17-.09-1.55,3.17Z"/><path class="cls-5" d="M69.28,132.72l.08-.18a23.92,23.92,0,0,1-2.7-1.12l.2.08-.2-.08Z"/><path class="cls-5" d="M67.33,133.42l-.18-.09-.84,2.17Z"/><path class="cls-5" d="M65.71,134l.08-.18-2-.59Z"/><path class="cls-6" d="M146.73,103.9s5.81,4.5,8,4.82c2.66.37,6.27-2.91,6.27-2.91s-2.84-4.28-6.59-3.78a46.4,46.4,0,0,0-7.72,1.87Z"/><path class="cls-7" d="M161,106.29l.11-.76-11.94-1Z"/><path class="cls-7" d="M158.46,105.7l-.11-.16-2.82,2.27Z"/><path class="cls-7" d="M157.66,105.47l.15-.12a28.07,28.07,0,0,1-2-2.22l.15.16-.15-.16Z"/><path class="cls-7" d="M155.53,105.27l-.12-.15-1.73,1.65Z"/><path class="cls-7" d="M153.81,105.07l.14-.13-1.57-1.4Z"/><path class="cls-6" d="M36.71,96.12s-2.21,8-1.59,10.45c.75,2.94,5.73,5.31,5.73,5.31s3.24-4.8,1.12-8.5a52.6,52.6,0,0,0-5.26-7.26Z"/><path class="cls-7" d="M40.37,112l.75-.19-4-12.89Z"/><path class="cls-7" d="M39.87,109.13,40,109l-3.56-2Z"/><path class="cls-7" d="M39.76,108.21l.17.09a33.2,33.2,0,0,1,1.47-3.06l-.12.22.12-.22Z"/><path class="cls-7" d="M39.06,105.89l.09-.17-2.44-1.13Z"/><path class="cls-7" d="M38.53,104l.18.08.82-2.23Z"/><path class="cls-6" d="M59.84,91.38s-5.07,6.56-5.42,9.07c-.42,3,3.29,7.07,3.29,7.07s4.82-3.21,4.25-7.43a52.53,52.53,0,0,0-2.12-8.71Z"/><path class="cls-7" d="M57.21,107.47l.77.11,1.14-13.45Z"/><path class="cls-7" d="M57.84,104.61l.16-.12-2.54-3.18Z"/><path class="cls-7" d="M58.09,103.72l.13.15a33.34,33.34,0,0,1,2.51-2.28l-.19.16.19-.16Z"/><path class="cls-7" d="M58.32,101.3l.15-.12-1.84-2Z"/><path class="cls-7" d="M58.54,99.37l.13.14,1.6-1.75Z"/><path class="cls-6" d="M86,123.26s7.74,2.95,10.25,2.56c3-.46,5.82-5.2,5.82-5.2s-4.47-3.68-8.35-1.91A52.65,52.65,0,0,0,86,123.26Z"/><path class="cls-7" d="M102.17,121.12l-.11-.77-13.21,2.8Z"/><path class="cls-7" d="M99.26,121.34l-.16-.12-2.31,3.36Z"/><path class="cls-7" d="M98.33,121.36l.1-.16a33.27,33.27,0,0,1-2.9-1.75l.2.14-.2-.14Z"/><path class="cls-7" d="M96,121.84l-.16-.11-1.35,2.33Z"/><path class="cls-7" d="M94,122.19l.1-.17L92,121Z"/><path class="cls-2" d="M95.57,125.79s-7.32,3.88-8.68,6c-1.61,2.56.09,7.8.09,7.8s5.71-.94,6.94-5a52.55,52.55,0,0,0,1.65-8.81Z"/><path class="cls-3" d="M86.55,139.37l.65.41L93.78,128Z"/><path class="cls-3" d="M88.3,137l.19,0-1-3.95Z"/><path class="cls-3" d="M88.9,136.31l0,.18c1.07-.4,2.15-.75,3.23-1l-.24.07.24-.07Z"/><path class="cls-3" d="M90.1,134.2l.18,0-.86-2.55Z"/><path class="cls-3" d="M91.09,132.53l.06.19,2.18-.94Z"/><path class="cls-6" d="M108.1,234.89s-.6,8.27.5,10.56c1.3,2.73,6.65,4.08,6.65,4.08s2.24-5.34-.57-8.55a52.49,52.49,0,0,0-6.58-6.09Z"/><path class="cls-3" d="M114.8,249.76l.7-.33L109,237.58Z"/><path class="cls-3" d="M113.75,247l.07-.19-3.88-1.24Z"/><path class="cls-3" d="M113.46,246.14l.19.06a31.67,31.67,0,0,1,.84-3.29,2.25,2.25,0,0,0-.08.24l.08-.24Z"/><path class="cls-3" d="M112.32,244l.06-.19-2.62-.62Z"/><path class="cls-3" d="M111.43,242.28l.19,0L112,240Z"/><path class="cls-6" d="M74,106.22s-1.26,8.2-.35,10.57c1.08,2.83,6.3,4.59,6.3,4.59s2.66-5.14.12-8.57A52.23,52.23,0,0,0,74,106.22Z"/><path class="cls-7" d="M79.5,121.58l.73-.28L74.71,109Z"/><path class="cls-7" d="M78.67,118.77l.09-.18L75,117Z"/><path class="cls-7" d="M78.45,117.86l.19.07a33.63,33.63,0,0,1,1.09-3.21l-.09.24.09-.23Z"/><path class="cls-7" d="M77.49,115.64l.07-.18L75,114.64Z"/><path class="cls-7" d="M76.74,113.85l.19.06.55-2.31Z"/><path class="cls-4" d="M71.28,126s-.63,8.27.45,10.57c1.3,2.73,6.64,4.09,6.64,4.09s2.26-5.33-.54-8.55A51.89,51.89,0,0,0,71.28,126Z"/><path class="cls-5" d="M77.92,140.87l.71-.33-6.44-11.86Z"/><path class="cls-5" d="M76.88,138.14,77,138l-3.88-1.26Z"/><path class="cls-5" d="M76.6,137.25l.18.06a32.36,32.36,0,0,1,.85-3.29,2.17,2.17,0,0,0-.07.24l.07-.23Z"/><path class="cls-5" d="M75.46,135.11l.06-.18-2.62-.63Z"/><path class="cls-5" d="M74.58,133.38l.19,0,.37-2.34Z"/><path class="cls-2" d="M74.81,236.55s-3,7.73-2.65,10.24c.45,3,5.16,5.86,5.16,5.86s3.72-4.44,2-8.34a52.69,52.69,0,0,0-4.49-7.75Z"/><path class="cls-3" d="M76.83,252.74l.76-.11-2.7-13.23Z"/><path class="cls-3" d="M76.63,249.81l.12-.15-3.35-2.34Z"/><path class="cls-3" d="M76.61,248.89l.16.1c.55-1,1.14-2,1.77-2.89l-.14.21.14-.21Z"/><path class="cls-3" d="M76.15,246.51l.11-.16L73.94,245Z"/><path class="cls-3" d="M75.81,244.6l.17.09,1-2.13Z"/><path class="cls-4" d="M86.5,113.3s-6,5.78-6.65,8.22C79,124.43,82.11,129,82.11,129s5.22-2.51,5.26-6.77a52.75,52.75,0,0,0-.87-8.92Z"/><path class="cls-5" d="M81.62,128.86l.75.22,3-13.16Z"/><path class="cls-5" d="M82.65,126.12l.17-.09-2.07-3.51Z"/><path class="cls-5" d="M83,125.27l.11.16a33.65,33.65,0,0,1,2.8-1.9l-.21.13.21-.13Z"/><path class="cls-5" d="M83.59,122.91l.16-.1-1.54-2.2Z"/><path class="cls-5" d="M84.08,121l.11.16L86,119.68Z"/><path class="cls-6" d="M60.88,241.32s-4.21,7.15-4.24,9.69c0,3,4.16,6.6,4.16,6.6s4.38-3.79,3.28-7.91a53.14,53.14,0,0,0-3.2-8.38Z"/><path class="cls-7" d="M60.3,257.62h.77l-.56-13.49Z"/><path class="cls-7" d="M60.57,254.7l.14-.13-2.93-2.84Z"/><path class="cls-7" d="M60.7,253.78l.15.14a32.46,32.46,0,0,1,2.2-2.58l-.17.18.17-.18Z"/><path class="cls-7" d="M60.62,251.37l.14-.14-2.08-1.72Z"/><path class="cls-7" d="M60.59,249.42l.15.12,1.37-1.94Z"/><path class="cls-6" d="M145,120.76s7.95-2.33,9.72-4.16c2.1-2.18,1.48-7.66,1.48-7.66s-5.78-.23-7.8,3.52a51.81,51.81,0,0,0-3.4,8.3Z"/><path class="cls-7" d="M156.61,109.27l-.56-.54L147.23,119Z"/><path class="cls-7" d="M154.41,111.22h-.19l.19,4.07Z"/><path class="cls-7" d="M153.69,111.8l0-.2a32.44,32.44,0,0,1-3.37.37l.25,0-.24,0Z"/><path class="cls-7" d="M152.09,113.62h-.2l.34,2.67Z"/><path class="cls-7" d="M150.78,115.05l0-.19-2.32.48Z"/><path class="cls-4" d="M148.14,107.77s-6.6-.92-8.5-.16c-2.26.9-3.62,5.12-3.62,5.12s4.16,2.08,6.89,0a41.87,41.87,0,0,0,5.23-5Z"/><path class="cls-5" d="M135.83,112.29l.28.72,9.8-4.71Z"/><path class="cls-5" d="M138.09,111.65l.18.08,1.17-3.07Z"/><path class="cls-5" d="M138.83,111.46l-.06.18a21.74,21.74,0,0,1,2.59.83l-.19-.06.19.06Z"/><path class="cls-5" d="M140.59,110.66l.18.07.6-2.08Z"/><path class="cls-5" d="M142,110l0,.19,1.87.38Z"/><path class="cls-4" d="M200.84,244.15s-3,7.74-2.58,10.26c.47,3,5.19,5.82,5.19,5.82s3.69-4.47,1.93-8.35a52.42,52.42,0,0,0-4.55-7.73Z"/><path class="cls-9" d="M203,260.32l.77-.12L200.94,247Z"/><path class="cls-9" d="M202.74,257.4l.12-.16-3.36-2.31Z"/><path class="cls-9" d="M202.72,256.47l.16.1c.54-1,1.13-2,1.75-2.9l-.14.21.14-.21Z"/><path class="cls-9" d="M202.24,254.1l.11-.16L200,252.58Z"/><path class="cls-9" d="M201.89,252.18l.17.1,1-2.14Z"/><path class="cls-2" d="M134.76,233.05s-6.56,5.07-7.53,7.42c-1.16,2.8,1.41,7.67,1.41,7.67s5.47-1.9,6-6.13a52.81,52.81,0,0,0,.14-9Z"/><path class="cls-3" d="M128.17,248l.72.3,4.48-12.74Z"/><path class="cls-3" d="M129.51,245.36l.18-.07L128,241.56Z"/><path class="cls-3" d="M130,244.55l.09.18a33.07,33.07,0,0,1,3-1.58l-.23.11.23-.1Z"/><path class="cls-3" d="M130.79,242.27l.18-.08-1.29-2.36Z"/><path class="cls-3" d="M131.49,240.46l.09.17,2-1.29Z"/><path class="cls-6" d="M100.92,75.53s.92,8.24,2.42,10.29c1.78,2.45,7.28,2.8,7.28,2.8s1.23-5.66-2.12-8.31a52.54,52.54,0,0,0-7.58-4.78Z"/><path class="cls-7" d="M110.22,88.92l.63-.45L102.32,78Z"/><path class="cls-7" d="M108.69,86.43l0-.19-4-.52Z"/><path class="cls-7" d="M108.24,85.61l.2,0c0-1.15.09-2.27.22-3.39l0,.25,0-.24Z"/><path class="cls-7" d="M106.73,83.72l0-.19-2.69-.14Z"/><path class="cls-7" d="M105.54,82.18h.2l-.07-2.37Z"/><path class="cls-2" d="M120.31,243s-3.5,7.51-3.29,10c.26,3,4.77,6.17,4.77,6.17s4-4.2,2.51-8.2A52.86,52.86,0,0,0,120.31,243Z"/><path class="cls-3" d="M121.3,259.23l.77-.06-1.85-13.37Z"/><path class="cls-3" d="M121.29,256.3l.12-.14-3.18-2.55Z"/><path class="cls-3" d="M121.33,255.37l.15.12a32.65,32.65,0,0,1,2-2.77l-.15.2.15-.2Z"/><path class="cls-3" d="M121,253l.12-.15-2.23-1.51Z"/><path class="cls-3" d="M120.81,251l.16.11,1.17-2.06Z"/><path class="cls-4" d="M169.44,90.87s-8.18-1.36-10.56-.48c-2.84,1-4.68,6.24-4.68,6.24s5.11,2.73,8.57.23a52.73,52.73,0,0,0,6.67-6Z"/><path class="cls-5" d="M154,96.17l.26.73,12.4-5.36Z"/><path class="cls-5" d="M156.84,95.37l.17.09,1.6-3.75Z"/><path class="cls-5" d="M157.74,95.17l-.07.18a33.66,33.66,0,0,1,3.2,1.14l-.24-.1.23.1Z"/><path class="cls-5" d="M160,94.23l.18.07.86-2.55Z"/><path class="cls-5" d="M161.78,93.51l-.06.18,2.3.58Z"/><path class="cls-2" d="M109.64,109.59s-.14,8.29,1.09,10.52c1.46,2.65,6.87,3.69,6.87,3.69s1.93-5.46-1-8.5a52.52,52.52,0,0,0-6.91-5.71Z"/><path class="cls-3" d="M117.17,124.06l.68-.37-7.15-11.46Z"/><path class="cls-3" d="M116,121.39l.06-.19-4-1Z"/><path class="cls-3" d="M115.63,120.52l.18,0c.17-1.13.38-2.24.65-3.32a2,2,0,0,0,0,.24l0-.24Z"/><path class="cls-3" d="M114.36,118.46l0-.19-2.65-.47Z"/><path class="cls-3" d="M113.38,116.78l.19,0,.23-2.36Z"/><path class="cls-6" d="M178.15,95.83s-8.07-1.93-10.5-1.22c-2.91.85-5.1,5.91-5.1,5.91s4.91,3.07,8.53.82a52.07,52.07,0,0,0,7.07-5.51Z"/><path class="cls-7" d="M162.39,100l.22.74,12.73-4.48Z"/><path class="cls-7" d="M165.26,99.44l.17.1,1.86-3.63Z"/><path class="cls-7" d="M166.18,99.3l-.08.18a31.88,31.88,0,0,1,3.1,1.35l-.22-.11.22.11Z"/><path class="cls-7" d="M168.47,98.52l.17.09,1-2.49Z"/><path class="cls-7" d="M170.32,97.92l-.07.18,2.25.74Z"/><path class="cls-6" d="M154.83,77s-6.6,5-7.6,7.35c-1.18,2.79,1.34,7.69,1.34,7.69s5.49-1.85,6-6.08a52.58,52.58,0,0,0,.22-9Z"/><path class="cls-7" d="M148.1,91.89l.72.3,4.6-12.69Z"/><path class="cls-7" d="M149.46,89.29l.18-.07L148,85.48Z"/><path class="cls-7" d="M149.93,88.49l.09.18c1-.57,2-1.09,3-1.55l-.22.11.22-.11Z"/><path class="cls-7" d="M150.78,86.22l.18-.08-1.27-2.38Z"/><path class="cls-7" d="M151.49,84.41l.1.17,2-1.27Z"/><path class="cls-2" d="M165.49,100.29s-3.33,7.6-3.06,10.12c.32,3,4.91,6.06,4.91,6.06s3.9-4.28,2.32-8.24a52.5,52.5,0,0,0-4.17-7.94Z"/><path class="cls-3" d="M166.84,116.54l.78-.08-2.16-13.32Z"/><path class="cls-3" d="M166.77,113.61l.12-.15L163.65,111Z"/><path class="cls-3" d="M166.79,112.69l.16.11c.59-1,1.21-1.92,1.88-2.82l-.15.2.15-.2Z"/><path class="cls-3" d="M166.42,110.29l.12-.15-2.26-1.46Z"/><path class="cls-3" d="M166.16,108.36l.17.11,1.12-2.09Z"/><path class="cls-6" d="M190.7,124.48s-8.11,1.74-10,3.43c-2.26,2-2,7.53-2,7.53s5.76.65,8-2.94a53,53,0,0,0,4-8Z"/><path class="cls-7" d="M178.31,135.08l.51.58,9.55-9.54Z"/><path class="cls-7" d="M180.64,133.3l.19,0,.11-4.08Z"/><path class="cls-7" d="M181.4,132.78V133c1.14-.09,2.27-.13,3.38-.12h0Z"/><path class="cls-7" d="M183.13,131.08h.2l-.14-2.69Z"/><path class="cls-7" d="M184.55,129.75v.19l2.35-.31Z"/><path class="cls-4" d="M182.67,245.76s-8.17-1.4-10.56-.53c-2.84,1-4.7,6.22-4.7,6.22s5.1,2.75,8.57.26a52.45,52.45,0,0,0,6.69-6Z"/><path class="cls-9" d="M163.94,258.54l.22.75,12.71-4.55Z"/><path class="cls-9" d="M166.8,257.93l.17.1,1.84-3.64Z"/><path class="cls-9" d="M167.72,257.79l-.08.17c1.07.4,2.11.85,3.11,1.34l-.22-.11.22.11Z"/><path class="cls-9" d="M170,257l.18.09,1-2.49Z"/><path class="cls-9" d="M171.86,256.38l-.08.18,2.26.73Z"/><path class="cls-9" d="M167.23,251l.26.73,12.42-5.31Z"/><path class="cls-9" d="M170.05,250.21l.17.08,1.62-3.74Z"/><path class="cls-9" d="M171,250l-.08.18a30.15,30.15,0,0,1,3.19,1.15l-.23-.1.23.09Z"/><path class="cls-9" d="M173.19,249.07l.18.08.87-2.55Z"/><path class="cls-9" d="M175,248.36l-.06.18,2.29.59Z"/><path class="cls-6" d="M198.08,241.82s-7.52-3.49-10.05-3.28c-3,.25-6.17,4.77-6.17,4.77s4.2,4,8.2,2.5a51.83,51.83,0,0,0,8-4Z"/><path class="cls-7" d="M181.8,242.81l.07.77,13.37-1.85Z"/><path class="cls-7" d="M184.73,242.8l.15.13,2.55-3.19Z"/><path class="cls-7" d="M185.66,242.84l-.12.16a32.73,32.73,0,0,1,2.78,1.94l-.2-.15.2.15Z"/><path class="cls-7" d="M188.06,242.53l.16.12,1.51-2.23Z"/><path class="cls-7" d="M190,242.31l-.1.16,2.06,1.18Z"/><path class="cls-2" d="M184.71,106.39s-6.23,5.46-7.06,7.87c-1,2.86,1.88,7.57,1.88,7.57s5.34-2.23,5.59-6.49a51.53,51.53,0,0,0-.41-9Z"/><path class="cls-3" d="M179.05,121.68l.73.26,3.7-13Z"/><path class="cls-3" d="M180.22,119l.17-.08-1.89-3.61Z"/><path class="cls-3" d="M180.63,118.16l.1.17a33.32,33.32,0,0,1,2.9-1.75l-.22.12.22-.12Z"/><path class="cls-3" d="M181.32,115.84l.17-.09-1.43-2.28Z"/><path class="cls-3" d="M181.9,114l.1.16,1.91-1.41Z"/><path class="cls-4" d="M172,144.39s-5.78-5.94-8.23-6.64c-2.91-.83-7.46,2.27-7.46,2.27s2.5,5.22,6.77,5.25a52.9,52.9,0,0,0,8.92-.87Z"/><path class="cls-5" d="M156.47,139.53l-.21.75,13.15,3Z"/><path class="cls-5" d="M159.22,140.56l.09.17,3.51-2.07Z"/><path class="cls-5" d="M160.07,140.93l-.17.11a33.65,33.65,0,0,1,1.9,2.8,2.39,2.39,0,0,0-.13-.21l.13.21Z"/><path class="cls-5" d="M162.42,141.5l.1.16,2.21-1.54Z"/><path class="cls-5" d="M164.31,142l-.16.11,1.51,1.83Z"/><path class="cls-6" d="M173.64,117.5s-6.23,5.46-7.06,7.87c-1,2.86,1.88,7.57,1.88,7.57s5.35-2.23,5.6-6.49a52.14,52.14,0,0,0-.42-9Z"/><path class="cls-7" d="M168,132.79l.74.26,3.69-13Z"/><path class="cls-7" d="M169.16,130.1l.17-.08-1.89-3.61Z"/><path class="cls-7" d="M169.57,129.27l.1.17a31.89,31.89,0,0,1,2.9-1.75.94.94,0,0,0-.22.12l.21-.12Z"/><path class="cls-7" d="M170.25,127l.17-.09L169,124.58Z"/><path class="cls-7" d="M170.84,125.09l.1.17,1.9-1.41Z"/><path class="cls-4" d="M184.56,119.56s-7.93,2.39-9.68,4.23c-2.09,2.2-1.43,7.67-1.43,7.67s5.79.19,7.78-3.58a53.07,53.07,0,0,0,3.34-8.32Z"/><path class="cls-5" d="M173.07,131.13l.56.53,8.75-10.28Z"/><path class="cls-5" d="M175.25,129.17h.19l-.22-4.08Z"/><path class="cls-5" d="M176,128.59l0,.19a32.65,32.65,0,0,1,3.36-.39h0Z"/><path class="cls-5" d="M177.56,126.75h.19l-.36-2.67Z"/><path class="cls-5" d="M178.86,125.31l0,.19,2.32-.5Z"/><path class="cls-2" d="M158.33,118.31s-4.64,6.87-4.83,9.4c-.23,3,3.74,6.85,3.74,6.85s4.6-3.52,3.76-7.7a51.63,51.63,0,0,0-2.67-8.55Z"/><path class="cls-3" d="M156.73,134.53l.78.06.27-13.49Z"/><path class="cls-3" d="M157.18,131.64l.15-.13-2.74-3Z"/><path class="cls-3" d="M157.37,130.73l.14.14a31.93,31.93,0,0,1,2.36-2.43l-.18.17.18-.17Z"/><path class="cls-3" d="M157.45,128.31l.14-.13-2-1.85Z"/><path class="cls-3" d="M157.54,126.37l.14.13,1.48-1.85Z"/><path class="cls-4" d="M147.59,233.79s-7.07,4.32-8.29,6.55c-1.46,2.65.56,7.78.56,7.78s5.65-1.29,6.62-5.44a52.27,52.27,0,0,0,1.11-8.89Z"/><path class="cls-9" d="M139.41,247.89l.68.38,5.85-12.17Z"/><path class="cls-9" d="M141,245.44l.19-.05L140,241.51Z"/><path class="cls-9" d="M141.58,244.7l.06.18c1-.47,2.1-.88,3.16-1.24l-.24.09.24-.09Z"/><path class="cls-9" d="M142.64,242.52l.19-.06-1-2.49Z"/><path class="cls-9" d="M143.53,240.79l.08.18,2.11-1.07Z"/><path class="cls-6" d="M180.48,103.69s-7.55,3.44-9,5.5c-1.77,2.46-.39,7.79-.39,7.79s5.76-.59,7.23-4.59a52.6,52.6,0,0,0,2.19-8.7Z"/><path class="cls-7" d="M170.64,116.7l.63.46,7.29-11.37Z"/><path class="cls-7" d="M172.54,114.47l.19,0-.77-4Z"/><path class="cls-7" d="M173.18,113.79l0,.19a32.89,32.89,0,0,1,3.28-.84l-.24,0,.24,0Z"/><path class="cls-7" d="M174.5,111.77l.19,0-.71-2.6Z"/><path class="cls-7" d="M175.59,110.16l.06.18,2.23-.8Z"/><path class="cls-4" d="M97.29,68.74s-5.24,5.16-5.85,7.33c-.73,2.59,2,6.61,2,6.61s4.62-2.25,4.62-6a46.21,46.21,0,0,0-.82-7.91Z"/><path class="cls-5" d="M93,82.56l.74.21,2.52-11.71Z"/><path class="cls-5" d="M94,80.14l.17-.09L92.24,77Z"/><path class="cls-5" d="M94.28,79.37l.1.16a28.67,28.67,0,0,1,2.47-1.71l-.18.13.18-.13Z"/><path class="cls-5" d="M94.76,77.29l.16-.1-1.4-1.94Z"/><path class="cls-5" d="M95.19,75.6l.11.16,1.6-1.36Z"/><path class="cls-2" d="M87.34,20.48s1.27,7.05,2.69,8.74c1.68,2,6.44,2,6.44,2s.73-4.95-2.31-7a45.33,45.33,0,0,0-6.82-3.68Z"/><path class="cls-3" d="M96.11,31.52l.6-.49-8.06-8.46Z"/><path class="cls-3" d="M94.68,29.44l0-.2-3.53-.18Z"/><path class="cls-3" d="M94.24,28.75h.19a26.08,26.08,0,0,1,0-2.93v0Z"/><path class="cls-3" d="M92.83,27.22V27l-2.33.07Z"/><path class="cls-3" d="M91.71,26h.19l-.23-2Z"/><path class="cls-6" d="M105.65,23s-3.3,7.61-3,10.13c.33,3,4.93,6,4.93,6s3.88-4.3,2.29-8.25A52.07,52.07,0,0,0,105.65,23Z"/><path class="cls-7" d="M107.07,39.28l.77-.08-2.21-13.32Z"/><path class="cls-7" d="M107,36.36l.13-.15-3.26-2.46Z"/><path class="cls-7" d="M107,35.43l.16.11A30.78,30.78,0,0,1,109,32.71l-.15.21.15-.2Z"/><path class="cls-7" d="M106.62,33l.12-.15-2.27-1.45Z"/><path class="cls-7" d="M106.36,31.11l.16.1,1.12-2.09Z"/><path class="cls-6" d="M168.53,80.85s-7.16-.32-9.12.68c-2.33,1.2-3.36,5.85-3.36,5.85s4.67,1.81,7.37-.7a45,45,0,0,0,5.11-5.83Z"/><path class="cls-7" d="M155.81,87l.36.69,10-6Z"/><path class="cls-7" d="M158.16,86l.19.06,1-3.39Z"/><path class="cls-7" d="M158.94,85.74l-.05.19a26.39,26.39,0,0,1,2.86.63l-.22,0,.22,0Z"/><path class="cls-7" d="M160.74,84.71l.18.05.45-2.28Z"/><path class="cls-7" d="M162.23,83.9l0,.19,2,.23Z"/><path class="cls-2" d="M141.73,66.58s-4.89,6.7-5.18,9.22c-.34,3,3.48,7,3.48,7s4.74-3.34,4.05-7.55a52.42,52.42,0,0,0-2.35-8.65Z"/><path class="cls-3" d="M139.53,82.74l.77.09.78-13.48Z"/><path class="cls-3" d="M140.09,79.87l.15-.12-2.63-3.12Z"/><path class="cls-3" d="M140.31,79l.13.14c.79-.83,1.61-1.61,2.45-2.34l-.19.17.19-.17Z"/><path class="cls-3" d="M140.47,76.55l.15-.13-1.89-1.91Z"/><path class="cls-3" d="M140.64,74.61l.14.14L142.33,73Z"/><path class="cls-4" d="M151.5,63.79s-6.23,5.47-7.06,7.87c-1,2.86,1.88,7.57,1.88,7.57s5.35-2.23,5.6-6.49a52.23,52.23,0,0,0-.42-8.95Z"/><path class="cls-5" d="M145.84,79.08l.74.26,3.69-13Z"/><path class="cls-5" d="M147,76.39l.18-.08L145.3,72.7Z"/><path class="cls-5" d="M147.42,75.56l.1.17c.95-.64,1.92-1.22,2.9-1.75a1.19,1.19,0,0,0-.22.12l.22-.12Z"/><path class="cls-5" d="M148.11,73.24l.17-.09-1.43-2.28Z"/><path class="cls-5" d="M148.69,71.38l.1.17,1.91-1.41Z"/><path class="cls-6" d="M130.93,59.31s-3,7.72-2.67,10.23c.44,3,5.14,5.87,5.14,5.87s3.73-4.43,2-8.33a51.7,51.7,0,0,0-4.47-7.77Z"/><path class="cls-7" d="M132.91,75.5l.77-.11L131,62.15Z"/><path class="cls-7" d="M132.72,72.58l.12-.16-3.34-2.34Z"/><path class="cls-7" d="M132.71,71.65l.16.1c.55-1,1.14-2,1.77-2.89l-.14.21.14-.2Z"/><path class="cls-7" d="M132.25,69.27l.11-.16L130,67.73Z"/><path class="cls-7" d="M131.92,67.35l.17.1,1-2.13Z"/><path class="cls-4" d="M89.26,72.9s-1.2,8.21-.27,10.57c1.1,2.82,6.33,4.55,6.33,4.55s2.63-5.16.06-8.57a52.92,52.92,0,0,0-6.12-6.55Z"/><path class="cls-5" d="M94.86,88.22l.73-.28L90,75.65Z"/><path class="cls-5" d="M94,85.41l.09-.17-3.79-1.53Z"/><path class="cls-5" d="M93.79,84.51l.18.07a33.59,33.59,0,0,1,1.08-3.21.92.92,0,0,0-.09.23l.09-.23Z"/><path class="cls-5" d="M92.8,82.3l.08-.18-2.57-.81Z"/><path class="cls-5" d="M92.05,80.51l.18.06.54-2.31Z"/><path class="cls-6" d="M88.73,81.51s-3,7.75-2.57,10.26c.46,3,5.19,5.82,5.19,5.82s3.69-4.47,1.92-8.35a52.46,52.46,0,0,0-4.54-7.73Z"/><path class="cls-7" d="M90.86,97.68l.76-.12L88.83,84.35Z"/><path class="cls-7" d="M90.64,94.76l.12-.16L87.4,92.28Z"/><path class="cls-7" d="M90.62,93.83l.16.1c.54-1,1.13-2,1.75-2.9l-.14.21.14-.21Z"/><path class="cls-7" d="M90.14,91.45l.11-.16-2.33-1.35Z"/><path class="cls-7" d="M89.79,89.54l.17.1,1-2.14Z"/><path class="cls-4" d="M161,240.87s-.88-8.25-2.37-10.31c-1.77-2.45-7.27-2.82-7.27-2.82s-1.25,5.65,2.08,8.31a52.45,52.45,0,0,0,7.56,4.82Z"/><path class="cls-5" d="M151.73,227.43l-.63.45,8.48,10.5Z"/><path class="cls-5" d="M153.25,229.93l0,.19,4,.54Z"/><path class="cls-5" d="M153.69,230.75l-.19,0a31.44,31.44,0,0,1-.24,3.38l0-.25,0,.25Z"/><path class="cls-5" d="M155.2,232.65l0,.19,2.69.15Z"/><path class="cls-5" d="M156.38,234.19h-.2l.06,2.37Z"/><path class="cls-4" d="M98.59,246.57s-1.37,8.18-.49,10.56c1.05,2.85,6.24,4.68,6.24,4.68s2.73-5.1.23-8.56a51.87,51.87,0,0,0-6-6.68Z"/><path class="cls-5" d="M103.88,262l.73-.27-5.35-12.39Z"/><path class="cls-5" d="M103.08,259.18l.09-.17-3.75-1.61Z"/><path class="cls-5" d="M102.88,258.27l.18.07a33.47,33.47,0,0,1,1.14-3.19,1.09,1.09,0,0,0-.09.23l.09-.23Z"/><path class="cls-5" d="M101.94,256l.07-.18L99.46,255Z"/><path class="cls-5" d="M101.22,254.23l.19.07L102,252Z"/><path class="cls-4" d="M53,151.63s8.25.84,10.57-.19c2.77-1.23,4.26-6.53,4.26-6.53s-5.27-2.4-8.56.32a51.67,51.67,0,0,0-6.27,6.4Z"/><path class="cls-5" d="M68.07,145.36l-.31-.71-12,6.14Z"/><path class="cls-5" d="M65.31,146.33l-.18-.07-1.36,3.84Z"/><path class="cls-5" d="M64.42,146.59l0-.18c-1.11-.26-2.2-.57-3.26-.93l.24.08-.23-.08Z"/><path class="cls-5" d="M62.25,147.67l-.18-.06-.7,2.6Z"/><path class="cls-5" d="M60.49,148.51l.06-.19-2.34-.43Z"/><path class="cls-6" d="M118.92,263.66s8.25.78,10.57-.26c2.76-1.25,4.22-6.57,4.22-6.57s-5.29-2.35-8.56.38a52.36,52.36,0,0,0-6.23,6.45Z"/><path class="cls-7" d="M133.93,257.29l-.32-.71-12,6.22Z"/><path class="cls-7" d="M131.17,258.28l-.18-.07-1.33,3.85Z"/><path class="cls-7" d="M130.28,258.55l.06-.19a31.48,31.48,0,0,1-3.27-.91l.24.08-.24-.08Z"/><path class="cls-7" d="M128.12,259.64l-.18-.06-.68,2.61Z"/><path class="cls-7" d="M126.37,260.49l0-.19-2.33-.41Z"/><path class="cls-2" d="M152.72,93.68s-8.08,1.83-9.95,3.55c-2.24,2-2,7.55-2,7.55s5.77.59,8-3a52.05,52.05,0,0,0,3.9-8.07Z"/><path class="cls-3" d="M140.45,104.42l.53.57,9.44-9.65Z"/><path class="cls-3" d="M142.76,102.62h.2l.06-4.08Z"/><path class="cls-3" d="M143.52,102.09v.19c1.14-.11,2.26-.16,3.38-.16h0Z"/><path class="cls-3" d="M145.24,100.37h.19l-.17-2.69Z"/><path class="cls-3" d="M146.63,99v.19l2.35-.33Z"/><path class="cls-2" d="M111.23,98.94s5.72-6,6.33-8.47c.73-2.94-2.54-7.37-2.54-7.37s-5.12,2.69-5,7a52.56,52.56,0,0,0,1.21,8.89Z"/><path class="cls-3" d="M115.51,83.2l-.75-.18-2.53,13.26Z"/><path class="cls-3" d="M114.58,86l-.16.1,2.2,3.43Z"/><path class="cls-3" d="M114.24,86.84l-.11-.16a32.43,32.43,0,0,1-2.73,2l.21-.14-.21.14Z"/><path class="cls-3" d="M113.77,89.22l-.17.11,1.63,2.14Z"/><path class="cls-3" d="M113.35,91.12l-.11-.15-1.78,1.57Z"/><path class="cls-4" d="M26.29,94.48s-2.21,8-1.59,10.45c.75,2.94,5.73,5.3,5.73,5.3s3.24-4.79,1.12-8.49a52.6,52.6,0,0,0-5.26-7.26Z"/><path class="cls-5" d="M29.94,110.37l.76-.19-4-12.88Z"/><path class="cls-5" d="M29.45,107.48l.1-.16-3.56-2Z"/><path class="cls-5" d="M29.34,106.56l.17.09A31.74,31.74,0,0,1,31,103.6a1.55,1.55,0,0,0-.12.22l.12-.22Z"/><path class="cls-5" d="M28.64,104.24l.09-.17L26.28,103Z"/><path class="cls-5" d="M28.11,102.37l.18.09.81-2.23Z"/><path class="cls-2" d="M186.65,16.69s-6.6,5-7.6,7.35c-1.18,2.79,1.34,7.69,1.34,7.69s5.49-1.85,6-6.08a52.58,52.58,0,0,0,.22-9Z"/><path class="cls-3" d="M179.92,31.54l.72.31,4.6-12.69Z"/><path class="cls-3" d="M181.28,29l.18-.07-1.63-3.74Z"/><path class="cls-3" d="M181.75,28.15l.08.17c1-.57,2-1.08,3-1.54l-.23.1.23-.1Z"/><path class="cls-3" d="M182.6,25.88l.18-.08-1.27-2.38Z"/><path class="cls-3" d="M183.31,24.07l.09.17,2-1.28Z"/><path class="cls-6" d="M200.31,23.82s-8.18-1.36-10.56-.48c-2.84,1-4.67,6.24-4.67,6.24s5.11,2.73,8.56.23a51.93,51.93,0,0,0,6.67-6Z"/><path class="cls-7" d="M184.89,29.12l.27.73,12.39-5.36Z"/><path class="cls-7" d="M187.71,28.32l.17.08,1.61-3.75Z"/><path class="cls-7" d="M188.62,28.12l-.07.18a33.42,33.42,0,0,1,3.19,1.13l-.23-.09.23.09Z"/><path class="cls-7" d="M190.85,27.17l.18.08.86-2.55Z"/><path class="cls-7" d="M192.65,26.45l-.06.19,2.3.58Z"/><path class="cls-4" d="M204.14,41.73s-8.08,1.89-9.94,3.62c-2.22,2.06-1.91,7.56-1.91,7.56s5.77.55,8-3.08a52.56,52.56,0,0,0,3.86-8.1Z"/><path class="cls-5" d="M191.94,52.55l.52.57,9.38-9.71Z"/><path class="cls-5" d="M194.23,50.73h.2l0-4.07Z"/><path class="cls-5" d="M195,50.2v.19a32.32,32.32,0,0,1,3.38-.18H195Z"/><path class="cls-5" d="M196.69,48.47h.2l-.19-2.68Z"/><path class="cls-5" d="M198.08,47.11v.19l2.35-.35Z"/><path class="cls-2" d="M47,35.25s-1.3,8.19-.4,10.57c1.07,2.83,6.28,4.62,6.28,4.62s2.69-5.13.16-8.57a52.94,52.94,0,0,0-6-6.62Z"/><path class="cls-3" d="M52.4,50.63l.73-.27L47.67,38Z"/><path class="cls-3" d="M51.58,47.82l.09-.18L47.9,46.07Z"/><path class="cls-3" d="M51.37,46.91l.18.07a33.52,33.52,0,0,1,1.11-3.2l-.09.23.09-.23Z"/><path class="cls-3" d="M50.41,44.69l.07-.18-2.55-.84Z"/><path class="cls-3" d="M49.67,42.89l.19.06.56-2.3Z"/><path class="cls-4" d="M97.4,10.29s-4.14,5-4.47,7c-.4,2.35,2.43,5.64,2.43,5.64s3.87-2.43,3.51-5.76a41.09,41.09,0,0,0-1.47-6.9Z"/><path class="cls-5" d="M94.89,22.88l.76.13,1-10.59Z"/><path class="cls-5" d="M95.52,20.67l.16-.11-2-2.54Z"/><path class="cls-5" d="M95.74,19.94l.12.15a20.64,20.64,0,0,1,2-1.75l-.15.14.15-.14Z"/><path class="cls-5" d="M96,18.08l.16-.12-1.44-1.57Z"/><path class="cls-5" d="M96.18,16.53l.13.15,1.27-1.38Z"/><path class="cls-2" d="M138.68,0s-4.14,5.05-4.47,7c-.4,2.35,2.43,5.64,2.43,5.64s3.87-2.42,3.51-5.76A41.09,41.09,0,0,0,138.68,0Z"/><path class="cls-3" d="M136.17,12.59l.76.13,1-10.58Z"/><path class="cls-3" d="M136.8,10.38l.16-.11-2-2.54Z"/><path class="cls-3" d="M137,9.65l.12.16a19.37,19.37,0,0,1,2-1.75L139,8.2l.15-.14Z"/><path class="cls-3" d="M137.24,7.79l.16-.12L136,6.11Z"/><path class="cls-3" d="M137.46,6.25l.13.14L138.86,5Z"/></g></g></svg>